<svg width="12" height="16" viewBox="0 0 12 16" fill="none" xmlns="http://www.w3.org/2000/svg">
<path d="M6 0.5C3.54836 0.5 1.61159 2.58004 1.78626 5.02546L1.82842 5.61576C1.98475 7.80434 3.80585 9.5 6 9.5C8.19415 9.5 10.0153 7.80434 10.1716 5.61577L10.2137 5.02546C10.3884 2.58005 8.45164 0.5 6 0.5Z" stroke="white"/>
<path d="M4.63636 9.5C2.35191 9.5 0.5 11.3519 0.5 13.6364C0.5 14.6656 1.33438 15.5 2.36364 15.5H9.63636C10.6656 15.5 11.5 14.6656 11.5 13.6364C11.5 11.3519 9.64809 9.5 7.36364 9.5H4.63636Z" stroke="white"/>
</svg>
