<svg width="44" height="44" viewBox="0 0 44 44" fill="none" xmlns="http://www.w3.org/2000/svg">
<path d="M35.0625 39.6757V41.9375C33.2551 42.8432 31.261 43.3141 29.2394 43.3125H14.7606C12.739 43.3141 10.7449 42.8432 8.93751 41.9375V39.6757C8.93603 38.9927 9.1884 38.3336 9.64563 37.8263C9.93079 37.5208 10.2776 37.2794 10.6631 37.1182L18.3838 34.0313C18.601 33.9439 18.7926 33.8029 18.9405 33.6213C19.0884 33.4397 19.1878 33.2236 19.2294 32.9932L19.25 33C19.25 34.1413 20.35 35.0625 22 35.0625C23.65 35.0625 24.75 34.1413 24.75 33L24.7706 32.9932C24.8123 33.2236 24.9117 33.4397 25.0596 33.6213C25.2075 33.8029 25.399 33.9439 25.6163 34.0313L33.3369 37.1182C33.7224 37.2794 34.0692 37.5208 34.3544 37.8263C34.8116 38.3336 35.064 38.9927 35.0625 39.6757Z" fill="#FF9559"/>
<path d="M34.375 19.25V19.9375C34.375 21.835 32.835 24.0625 30.9375 24.0625H30.25L30.2294 24.0488C31.3353 22.1564 32.0222 20.0488 32.2438 17.8682L32.3125 17.875H33C33.3643 17.8761 33.7135 18.0213 33.9711 18.279C34.2287 18.5366 34.3739 18.8857 34.375 19.25Z" fill="#F6A96C"/>
<path d="M34.375 19.9375V37.8125L34.3544 37.8263C34.0692 37.5208 33.7224 37.2794 33.3369 37.1181L25.6163 34.0312C25.399 33.9439 25.2074 33.8028 25.0595 33.6213C24.9116 33.4397 24.8122 33.2236 24.7706 32.9931C24.7566 32.916 24.7497 32.8378 24.75 32.7594V29.0331C27.0829 28.0319 29.0124 26.2768 30.2294 24.0487L30.25 24.0625H30.9375C32.835 24.0625 34.375 21.835 34.375 19.9375Z" fill="#A65D4E"/>
<path d="M34.375 12.3752V19.2502C34.3739 18.8859 34.2287 18.5368 33.9711 18.2792C33.7134 18.0215 33.3643 17.8763 33 17.8752H32.3125L32.2438 17.8684C32.2907 17.4138 32.3136 16.9572 32.3125 16.5002C32.3125 11.9421 28.1875 12.3752 26.8125 8.25022C26.8125 12.0521 18.9062 14.4377 11.6875 14.4377V16.5002C11.6864 16.9572 11.7093 17.4138 11.7563 17.8684L11.6875 17.8752H11C10.6357 17.8763 10.2866 18.0215 10.0289 18.2792C9.7713 18.5368 9.62609 18.8859 9.625 19.2502V12.3752C9.625 5.9196 15.1663 0.68772 22 0.68772C25.2476 0.668632 28.3793 1.89375 30.7519 4.11147C31.8887 5.16801 32.7967 6.44647 33.4199 7.86783C34.0431 9.2892 34.3682 10.8233 34.375 12.3752Z" fill="#A65D4E"/>
<path d="M24.7706 32.9932L24.75 33.0001C24.75 34.1413 23.65 35.0626 22 35.0626C20.35 35.0626 19.25 34.1413 19.25 33.0001L19.2294 32.9932C19.2434 32.9161 19.2503 32.8378 19.25 32.7595V29.0332C21.0154 29.739 22.9846 29.739 24.75 29.0332V32.7595C24.7497 32.8378 24.7566 32.9161 24.7706 32.9932Z" fill="#FED2A4"/>
<path d="M19.25 29.0331V32.7594C19.2503 32.8378 19.2434 32.916 19.2294 32.9931C19.1878 33.2236 19.0884 33.4397 18.9405 33.6213C18.7926 33.8028 18.601 33.9439 18.3837 34.0312L10.6631 37.1181C10.2776 37.2794 9.93078 37.5208 9.64562 37.8263L9.625 37.8125V19.9375C9.625 21.835 11.165 24.0625 13.0625 24.0625H13.75L13.7706 24.0487C14.9876 26.2768 16.9171 28.0319 19.25 29.0331Z" fill="#A65D4E"/>
<path d="M26.8125 8.25C26.8125 12.0519 18.9063 14.4375 11.6875 14.4375V16.5C11.6864 16.9569 11.7094 17.4136 11.7563 17.8681C11.9778 20.0487 12.6647 22.1564 13.7706 24.0488C14.9876 26.2768 16.9171 28.0319 19.25 29.0331C21.0154 29.7389 22.9846 29.7389 24.75 29.0331C27.083 28.0319 29.0124 26.2768 30.2294 24.0488C31.3353 22.1564 32.0223 20.0487 32.2438 17.8681C32.2907 17.4136 32.3136 16.9569 32.3125 16.5C32.3125 11.9419 28.1875 12.375 26.8125 8.25Z" fill="#FED2A4"/>
<path d="M13.7706 24.0488L13.75 24.0625H13.0625C11.165 24.0625 9.625 21.835 9.625 19.9375V19.25C9.62609 18.8857 9.7713 18.5366 10.0289 18.279C10.2866 18.0213 10.6357 17.8761 11 17.875H11.6875L11.7563 17.8682C11.9778 20.0488 12.6647 22.1564 13.7706 24.0488Z" fill="#FFBD86"/>
<path d="M26.8125 8.25C26.8125 12.0519 18.9062 14.4375 11.6875 14.4375V16.5C18.9062 16.5 26.8125 14.1144 26.8125 10.3125C28.0954 14.1625 31.7673 14.0456 32.2554 17.7114C32.2926 17.3085 32.3125 16.9015 32.3125 16.5C32.3125 11.9419 28.1875 12.375 26.8125 8.25Z" fill="#F6A96C"/>
<path d="M33 17.875H32.3125C32.6768 17.8761 33.0259 18.0213 33.2836 18.2789C33.5412 18.5366 33.6864 18.8857 33.6875 19.25V19.9375C33.6875 21.835 32.1475 24.0625 30.25 24.0625H30.9375C32.835 24.0625 34.375 21.835 34.375 19.9375V19.25C34.3739 18.8857 34.2287 18.5366 33.9711 18.2789C33.7134 18.0213 33.3643 17.8761 33 17.875Z" fill="#FFBD86"/>
<path d="M10.3125 19.9375V19.25C10.3136 18.8857 10.4588 18.5366 10.7164 18.2789C10.9741 18.0213 11.3232 17.8761 11.6875 17.875H11C10.6357 17.8761 10.2866 18.0213 10.0289 18.2789C9.7713 18.5366 9.62609 18.8857 9.625 19.25V19.9375C9.625 21.835 11.165 24.0625 13.0625 24.0625H13.75C11.8525 24.0625 10.3125 21.835 10.3125 19.9375Z" fill="#FED2A4"/>
<path d="M21.3125 33.6876V32.3126C21.3125 31.9479 21.4574 31.5982 21.7152 31.3403C21.9731 31.0824 22.3228 30.9376 22.6875 30.9376H24.75V29.0332C22.9846 29.739 21.0154 29.739 19.25 29.0332V32.7595C19.2503 32.8378 19.2434 32.9161 19.2294 32.9932L19.25 33.0001C19.25 34.1413 20.35 35.0626 22 35.0626C22.1363 35.0598 22.2724 35.0501 22.4077 35.0337C22.0982 34.9694 21.8204 34.8004 21.6209 34.5552C21.4214 34.3101 21.3125 34.0037 21.3125 33.6876Z" fill="#FFBD86"/>
<path d="M13.7706 24.0486L13.75 24.0623H13.0625C12.5761 24.0561 12.1006 23.917 11.6875 23.6602V36.7082L18.3837 34.0311C18.601 33.9437 18.7926 33.8027 18.9405 33.6211C19.0884 33.4395 19.1878 33.2234 19.2294 32.993C19.2434 32.9158 19.2503 32.8376 19.25 32.7592V29.033C16.9171 28.0318 14.9876 26.2766 13.7706 24.0486Z" fill="#784132"/>
<path d="M30.2294 24.0486L30.25 24.0623H30.9375C31.4239 24.0561 31.8994 23.917 32.3125 23.6602V36.7082L25.6163 34.0311C25.399 33.9437 25.2074 33.8027 25.0595 33.6211C24.9116 33.4395 24.8122 33.2234 24.7706 32.993C24.7566 32.9158 24.7497 32.8376 24.75 32.7592V29.033C27.0829 28.0318 29.0124 26.2766 30.2294 24.0486Z" fill="#784132"/>
<path d="M19.6082 35.7157C20.3041 36.2134 21.145 36.4672 22 36.4375C22.8551 36.4672 23.696 36.2134 24.3918 35.7157C24.6729 35.4982 24.907 35.2261 25.08 34.9157C25.253 34.6053 25.3613 34.263 25.3983 33.9096C25.2359 33.8087 25.0962 33.6751 24.9881 33.5174C24.8801 33.3596 24.806 33.1811 24.7706 32.9932L24.75 33C24.75 34.1413 23.65 35.0625 22 35.0625C20.35 35.0625 19.25 34.1413 19.25 33L19.2294 32.9932C19.194 33.1811 19.1199 33.3596 19.0119 33.5174C18.9038 33.6751 18.7641 33.8087 18.6017 33.9096C18.6387 34.263 18.747 34.6053 18.92 34.9157C19.093 35.2261 19.3271 35.4982 19.6082 35.7157Z" fill="#F95C3A"/>
<path d="M33.3747 41.1567C33.1257 41.2187 32.8702 41.2501 32.6136 41.2502H16.7062C15.9222 41.2502 15.1703 40.9387 14.6159 40.3843C14.0615 39.8299 13.75 39.078 13.75 38.2939V35.8877L10.6631 37.1252C10.1546 37.3308 9.71891 37.6832 9.41156 38.1375C9.10422 38.5918 8.93918 39.1273 8.9375 39.6758V41.9377C10.7449 42.8434 12.739 43.3142 14.7606 43.3127H29.2394C31.261 43.3142 33.2551 42.8434 35.0625 41.9377V40.0691C34.6347 40.6072 34.0415 40.9894 33.3747 41.1567Z" fill="#F95C3A"/>
<path d="M19.5298 6.05346C20.2581 6.62886 21.0391 7.13413 21.8625 7.56252H22C26.8125 7.56252 30.0293 6.69902 31.8464 5.31784C31.5092 4.89138 31.1436 4.48827 30.7519 4.11127C30.6728 4.03634 30.5841 3.97034 30.5023 3.89746C28.6 5.29377 26.0006 6.18752 22 6.18752C21.1748 6.18865 20.3501 6.14389 19.5298 6.05346Z" fill="#C38778"/>
<path d="M19.5298 6.05358C20.3501 6.14401 21.1748 6.18877 22 6.18764C26.0006 6.18764 28.6 5.29389 30.5023 3.89758C28.1607 1.81617 25.1329 0.673035 22 0.687638C20.1494 0.688173 18.3205 1.08677 16.6375 1.85639C17.0967 3.54345 18.1168 5.0238 19.5298 6.05358Z" fill="#B46E5A"/>
<path d="M19.5298 6.05346C17.3622 5.88838 15.2788 5.14374 13.4977 3.89746C13.0113 4.33306 12.5615 4.80789 12.1529 5.31715C13.9514 6.68527 17.127 7.54327 21.8625 7.56252C21.0391 7.13413 20.2581 6.62886 19.5298 6.05346Z" fill="#B46E5A"/>
<path d="M34.1688 10.3125C34.1275 10.0953 34.0787 9.8801 34.0251 9.66766C34.0113 9.61266 33.9955 9.55835 33.9811 9.50404C33.8799 9.1258 33.7589 8.75312 33.6188 8.38754C33.5995 8.33735 33.5803 8.28648 33.5603 8.23698C33.3101 7.61541 33.0052 7.01724 32.6494 6.44948L32.6446 6.44191C32.4007 6.05322 32.1344 5.67904 31.8471 5.32129C30.0293 6.69904 26.8125 7.56254 22 7.56254C21.9519 7.56254 21.9079 7.56254 21.8625 7.56254C23.3643 8.33362 24.9491 8.9308 26.5863 9.34248C26.7349 8.99739 26.8118 8.62574 26.8125 8.25004C26.964 8.70711 27.1672 9.14537 27.4182 9.55629C29.6345 10.0513 31.8979 10.3048 34.1688 10.3125Z" fill="#B46E5A"/>
<path d="M24.0625 14.6664C24.0625 14.6664 24.0625 13.75 27.1157 13.75C28.7231 13.75 29.3157 14.1309 29.5151 14.4918C29.6828 14.7929 29.3831 15.125 28.9479 15.125H26.5052C26.5052 15.125 24.0625 15.125 24.0625 14.6664Z" fill="#784132"/>
<path d="M19.9375 14.6664C19.9375 14.6664 19.9375 13.75 16.8843 13.75C15.2769 13.75 14.6843 14.1309 14.4849 14.4918C14.3172 14.7929 14.6169 15.125 15.0521 15.125H17.4948C17.4948 15.125 19.9375 15.125 19.9375 14.6664Z" fill="#784132"/>
<path d="M21.4239 17.3497L20.6449 20.6862C20.6318 20.7437 20.6251 20.8025 20.625 20.8615C20.6021 21.2296 20.7255 21.5918 20.9684 21.8694C21.2112 22.147 21.5538 22.3175 21.9216 22.3437H22.0784C22.4462 22.3175 22.7888 22.147 23.0317 21.8694C23.2745 21.5918 23.3979 21.2296 23.375 20.8615C23.375 20.8025 23.3683 20.7437 23.3551 20.6862L22.5761 17.3497C22.551 17.2129 22.4804 17.0886 22.3759 16.9968C22.2714 16.9049 22.1389 16.851 22 16.8438C21.8611 16.851 21.7287 16.9049 21.6241 16.9968C21.5196 17.0886 21.449 17.2129 21.4239 17.3497Z" fill="#FFBD86"/>
<path d="M18.5625 23.375H25.4375C25.4375 23.375 24.75 26.125 22 26.125C19.25 26.125 18.5625 23.375 18.5625 23.375Z" fill="#FF808C"/>
<path d="M22 26.125C23.3555 26.125 24.4544 25.6633 24.4544 25.0938C24.4544 24.5242 23.3555 24.0625 22 24.0625C20.6445 24.0625 19.5456 24.5242 19.5456 25.0938C19.5456 25.6633 20.6445 26.125 22 26.125Z" fill="#F25A6B"/>
<path d="M19.9375 24.0625H24.0625C24.3029 24.0618 24.5389 23.998 24.7468 23.8773C24.9547 23.7566 25.1272 23.5834 25.2471 23.375H18.7529C18.8728 23.5834 19.0453 23.7566 19.2532 23.8773C19.4611 23.998 19.6971 24.0618 19.9375 24.0625Z" fill="#F5F5FC"/>
<path d="M28.875 19.9376C28.6927 19.9376 28.5178 19.8652 28.3889 19.7363C28.2599 19.6073 28.1875 19.4325 28.1875 19.2501C28.1875 18.2993 27.7633 17.8751 26.8125 17.8751C26.4478 17.8751 26.0981 18.02 25.8402 18.2779C25.5824 18.5357 25.4375 18.8855 25.4375 19.2501C25.4375 19.4325 25.3651 19.6073 25.2361 19.7363C25.1072 19.8652 24.9323 19.9376 24.75 19.9376C24.5677 19.9376 24.3928 19.8652 24.2639 19.7363C24.1349 19.6073 24.0625 19.4325 24.0625 19.2501C24.0625 18.5208 24.3522 17.8213 24.868 17.3056C25.3837 16.7899 26.0832 16.5001 26.8125 16.5001C27.1822 16.4657 27.555 16.5132 27.9043 16.6392C28.2536 16.7652 28.5708 16.9667 28.8334 17.2293C29.096 17.4918 29.2974 17.8091 29.4235 18.1583C29.5495 18.5076 29.597 18.8804 29.5625 19.2501C29.5625 19.4325 29.4901 19.6073 29.3612 19.7363C29.2322 19.8652 29.0574 19.9376 28.875 19.9376Z" fill="#784132"/>
<path d="M19.25 19.9376C19.0677 19.9376 18.8928 19.8652 18.7639 19.7363C18.6349 19.6073 18.5625 19.4325 18.5625 19.2501C18.5625 18.8855 18.4176 18.5357 18.1598 18.2779C17.9019 18.02 17.5522 17.8751 17.1875 17.8751C16.2367 17.8751 15.8125 18.2993 15.8125 19.2501C15.8125 19.4325 15.7401 19.6073 15.6111 19.7363C15.4822 19.8652 15.3073 19.9376 15.125 19.9376C14.9427 19.9376 14.7678 19.8652 14.6389 19.7363C14.5099 19.6073 14.4375 19.4325 14.4375 19.2501C14.4031 18.8804 14.4506 18.5076 14.5766 18.1583C14.7026 17.8091 14.9041 17.4918 15.1666 17.2293C15.4292 16.9667 15.7464 16.7652 16.0957 16.6392C16.445 16.5132 16.8178 16.4657 17.1875 16.5001C17.9169 16.5001 18.6163 16.7899 19.1321 17.3056C19.6478 17.8213 19.9375 18.5208 19.9375 19.2501C19.9375 19.4325 19.8651 19.6073 19.7361 19.7363C19.6072 19.8652 19.4323 19.9376 19.25 19.9376Z" fill="#784132"/>
</svg>
