<svg width="28" height="44" viewBox="0 0 28 44" fill="none" xmlns="http://www.w3.org/2000/svg">
<path d="M24.1706 24.8475L18.9412 23.2453L18.1176 21.5849L17.5247 21.8257L17.5165 21.8091C17.1788 21.0951 16.8824 19.7917 16.8824 19.1442C18.6118 18.1396 19.7647 16.2634 19.7647 14.1132H21.4118C21.8647 14.1132 22.2353 13.7396 22.2353 13.283V10.7925V8.30189C22.2353 6.01057 21.3129 3.93509 19.8224 2.43245C18.3318 0.929812 16.2729 0 14 0C9.45412 0 5.76471 3.71925 5.76471 8.30189V10.7925V13.283C5.76471 13.7396 6.13529 14.1132 6.58824 14.1132H8.23529C8.23529 15.7238 8.87765 17.1683 9.92353 18.2226C10.2776 18.5796 10.6812 18.8951 11.1176 19.1442C11.1176 19.7917 10.8212 21.0951 10.4835 21.8091L10.4753 21.8257L9.88235 21.5849L9.05882 23.2453L3.82941 24.8475C1.58941 25.3623 0 27.3796 0 29.6959V44H28V29.6959C28 27.3796 26.4106 25.3623 24.1706 24.8475Z" fill="#FFD5C2"/>
<path d="M22.2352 8.30189V10.7925C22.2352 10.3358 21.8646 9.96226 21.4117 9.96226H19.7646V9.13208C13.9999 9.96226 11.5294 5.81132 11.5294 5.81132C10.9282 7.62113 8.23524 9.13208 8.23524 9.13208V9.96226H6.58818C6.13524 9.96226 5.76465 10.3358 5.76465 10.7925V8.30189C5.76465 3.71925 9.45406 0 13.9999 0C16.2729 0 18.3317 0.929812 19.8223 2.43245C21.3129 3.93509 22.2352 6.01057 22.2352 8.30189Z" fill="#563D35"/>
<path d="M14 23.2453L12.353 24.9057L9.05884 23.2453L9.88237 21.585L10.4753 21.8257L14 23.2453Z" fill="#F4F4F4"/>
<path d="M18.1177 21.585L18.9412 23.2453L15.6471 24.9057L14.0001 23.2453L17.5248 21.8257L18.1177 21.585Z" fill="#E2E2E2"/>
<path d="M18.9413 23.2451L15.6472 33.7636V24.9055L18.9413 23.2451Z" fill="#F4F4F4"/>
<path d="M12.353 24.9055V33.7636L9.05884 23.2451L12.353 24.9055Z" fill="#E2E2E2"/>
<path d="M15.6471 24.9055V33.7636L14 39.0187L12.353 33.7636V24.9055L14 23.2451L15.6471 24.9055Z" fill="#C93329"/>
<path d="M12.353 33.7287V33.7636L14 39.0187L15.6471 33.7636V24.9055L15.5219 24.7793C15.2106 27.8809 14.2594 31.2357 12.353 33.7287Z" fill="#96221B"/>
<path d="M12.353 33.7636L14.0001 39.0187L6.20126 30.5923L7.98832 28.7825L5.00714 25.7772L9.05891 23.2451L12.353 33.7636Z" fill="#88879B"/>
<path d="M22.993 25.7772L20.0118 28.7825L21.7989 30.5923L14.0001 39.0187L15.6471 33.7636L18.9412 23.2451L22.993 25.7772Z" fill="#88879B"/>
<path d="M14 39.0187L21.7988 30.5923L20.0118 28.7825L22.9929 25.7772L18.9412 23.2451L24.1706 24.8474C26.4106 25.3621 28 27.3795 28 29.6957V43.9998H0V29.6957C0 27.3795 1.58941 25.3621 3.82941 24.8474L9.05882 23.2451L5.00706 25.7772L7.98824 28.7825L6.20118 30.5923L14 39.0187Z" fill="#595866"/>
<path d="M28 29.6954V43.9995H0V41.509H20.5882C23.3141 41.509 25.5294 39.2758 25.5294 36.5278V25.3867C27.0282 26.2584 28 27.8856 28 29.6954Z" fill="#343439"/>
<path d="M17.5163 21.8094L17.5245 21.826L13.9998 23.2457L10.4751 21.826L10.4833 21.8094C10.821 21.0955 11.1175 19.7921 11.1175 19.1445C11.9657 19.6426 12.9457 19.9249 13.9998 19.9249C15.0539 19.9249 16.0339 19.6426 16.8822 19.1445C16.8822 19.7921 17.1786 21.0955 17.5163 21.8094Z" fill="#F9B9A5"/>
<path d="M5.76473 34.0382V44.0005H4.11768V34.0382C4.11768 33.5816 4.48826 33.208 4.94121 33.208C5.39415 33.208 5.76473 33.5816 5.76473 34.0382Z" fill="#161516"/>
<path d="M23.8822 34.0382V44.0005H22.2351V34.0382C22.2351 33.5816 22.6057 33.208 23.0586 33.208C23.5116 33.208 23.8822 33.5816 23.8822 34.0382Z" fill="#161516"/>
<path d="M19.8223 2.43247C19.4122 2.01904 18.956 1.65375 18.4668 1.33496C19.6395 4.01896 20.1311 6.93458 18.8967 9.21511C19.1791 9.19768 19.4649 9.17526 19.7647 9.13209V9.96228H21.4117C21.8647 9.96228 22.2353 10.3359 22.2353 10.7925V8.3019C22.2353 6.01058 21.3129 3.93511 19.8223 2.43247Z" fill="#382621"/>
<path d="M9.86597 5.13043C9.62714 5.13873 9.38832 5.14704 9.13303 5.14704C8.1942 5.14704 7.30479 5.07232 6.48126 4.93119C6.5142 4.83987 6.55538 4.75685 6.59656 4.67383C7.59303 4.94779 8.69656 5.10553 9.86597 5.13043Z" fill="#91675A"/>
<path d="M18.7256 3.53809C17.4294 4.05114 15.8935 4.3691 14.2324 4.41144C14.4745 4.41809 14.7167 4.42473 14.9645 4.42473C16.3555 4.42473 17.655 4.26201 18.7791 3.98224C18.7692 3.83197 18.7495 3.6842 18.7256 3.53809Z" fill="#91675A"/>
<path d="M20.6129 3.34577C20.267 3.52011 19.8717 3.66125 19.4517 3.79408C19.427 3.61143 19.3941 3.43709 19.3694 3.26276C19.6576 3.12162 19.9211 2.97219 20.1764 2.81445C20.3247 2.98049 20.4729 3.16313 20.6129 3.34577Z" fill="#6A4134"/>
<path d="M19.7644 9.13184V14.113C19.7644 16.2632 18.6115 18.1394 16.8821 19.1439C16.0338 19.642 15.0538 19.9243 13.9997 19.9243C12.9456 19.9243 11.9656 19.642 11.1174 19.1439C10.9527 19.0526 10.7962 18.953 10.6479 18.8367C11.1832 19.0028 11.7597 19.0941 12.3527 19.0941C13.4068 19.0941 14.3868 18.8118 15.235 18.3137C16.9644 17.3092 18.1174 15.433 18.1174 13.2828V9.23976C18.6362 9.24806 19.1797 9.21485 19.7644 9.13184Z" fill="#FCAD95"/>
<path d="M11.4513 12.4249C10.8682 12.4249 10.3593 12.2115 10.0661 12.0139C9.68807 11.7582 9.58678 11.2427 9.84043 10.8616C10.0916 10.4839 10.5956 10.3818 10.9736 10.6284C11.0271 10.6616 11.4504 10.9081 11.8507 10.6367C12.2262 10.3793 12.7393 10.4806 12.9937 10.8591C13.249 11.2394 13.1494 11.7549 12.773 12.0123C12.3283 12.3145 11.8704 12.4249 11.4513 12.4249Z" fill="#7C4D4D"/>
<path d="M14.158 17.2391C13.2686 17.2391 12.6007 16.9253 12.5587 16.9062C12.1478 16.7086 11.974 16.213 12.1692 15.7995C12.3644 15.3869 12.8527 15.2126 13.2612 15.4035C13.2884 15.416 14.1448 15.7937 14.9469 15.406C15.3579 15.2109 15.8487 15.3853 16.0447 15.7995C16.2399 16.213 16.0661 16.7086 15.6552 16.9062C15.1339 17.1552 14.6167 17.2391 14.158 17.2391Z" fill="#C95F5F"/>
<path d="M16.8255 12.4248C16.2408 12.4248 15.7327 12.2106 15.4411 12.0113C15.064 11.754 14.9651 11.2384 15.2204 10.8582C15.4732 10.4829 15.9789 10.3808 16.3544 10.6299C16.4079 10.6631 16.8263 10.9063 17.2307 10.634C17.6078 10.3783 18.1201 10.4805 18.3729 10.8615C18.6257 11.2426 18.5252 11.7581 18.1472 12.0138C17.7009 12.3152 17.243 12.4248 16.8255 12.4248Z" fill="#7C4D4D"/>
<path d="M22.2354 29.0566L24.7059 30.717L14.0001 39.0189L21.7989 30.5924L20.0118 28.7826L22.993 25.7773L24.5462 26.6972L22.2354 29.0566Z" fill="#343439"/>
<path d="M14 42.3401C14.4549 42.3401 14.8236 41.9684 14.8236 41.5099C14.8236 41.0514 14.4549 40.6797 14 40.6797C13.5452 40.6797 13.1765 41.0514 13.1765 41.5099C13.1765 41.9684 13.5452 42.3401 14 42.3401Z" fill="#161516"/>
</svg>
