<svg width="44" height="44" viewBox="0 0 44 44" fill="none" xmlns="http://www.w3.org/2000/svg">
<g clip-path="url(#clip0_2980_17445)">
<path d="M27.3102 0C26.121 0 25.1202 0.806609 24.8251 1.90257L24.7981 2.00999L24.7711 1.90257C24.476 0.806609 23.4753 0 22.2861 0C20.6984 0 19.4616 1.59191 19.6626 3.10827C19.7295 3.61324 19.915 4.09535 20.1671 4.53604C21.2016 6.34348 24.7981 8.66104 24.7981 8.66104C26.4061 7.4299 28.3946 6.34348 29.4291 4.53604C29.6813 4.09535 29.8667 3.61324 29.9336 3.10827C30.1347 1.59191 28.8978 0 27.3102 0Z" fill="#F95C3A"/>
<path d="M29.9334 3.10802C29.867 3.6129 29.681 4.09475 29.4294 4.53578C28.3949 6.34356 26.4065 7.42947 24.798 8.66061C24.798 8.66061 24.2435 8.30363 23.5074 7.75981C24.9928 6.68809 26.658 5.65177 27.5747 4.05041C27.8271 3.61023 28.0123 3.12838 28.0796 2.62264C28.2106 1.63599 27.7324 0.617375 26.945 0.0265547C27.0636 0.00885156 27.1858 0 27.3098 0C28.898 0 30.1344 1.59165 29.9334 3.10802Z" fill="#C93329"/>
<path d="M19.5035 34.3414L15.1355 31.4489C14.5432 31.0567 14.6156 30.5741 14.1942 30.0261C13.3526 28.9314 12.8785 27.5756 12.8785 26.1568V24.7998H10.768H10.6582H8.5476V26.1568C8.5476 27.5758 8.07349 28.9317 7.23173 30.0264C6.81046 30.5742 6.99652 31.0567 6.40441 31.4488L2.02065 34.3518C1.2106 34.8883 0.723511 35.7952 0.723511 36.7667V43.9997H10.6581H10.7682H20.8165V36.7855C20.8164 35.8022 20.3234 34.8844 19.5035 34.3414Z" fill="#FED2A4"/>
<path d="M21.4021 36.7854V43.9996H19.6767V37.719C19.6767 36.7358 19.4305 35.812 18.3641 35.2744L13.9957 32.3816C12.2208 31.2063 11.0037 28.4207 11.1526 26.1568V24.7998H12.8789V26.1568C12.8789 28.286 13.9461 30.2727 15.7212 31.449L20.0895 34.3417C20.9096 34.8847 21.4021 35.8023 21.4021 36.7854Z" fill="#FFBD86"/>
<path d="M42.4801 12.5968C40.6121 10.312 37.7713 8.85352 34.5899 8.85352C31.5459 8.85352 28.8136 10.1888 26.947 12.3055C25.8672 13.5301 25.2848 15.1148 25.2848 16.7475V16.8399V28.9554C25.2848 32.8493 28.4414 36.006 32.3354 36.006H36.9253C40.8192 36.006 43.9759 32.8493 43.9759 28.9554V16.8399C43.9759 15.2963 43.4571 13.7918 42.4801 12.5968Z" fill="#343439"/>
<path d="M43.9757 16.8392V28.9548C43.9757 32.8493 40.819 36.0061 36.9254 36.0061H35.1477C39.0422 36.0061 42.199 32.8493 42.199 28.9548V16.8392C42.199 16.0677 42.0688 15.306 41.8172 14.5877C41.5657 13.8685 41.1919 13.1935 40.703 12.5966C39.0103 10.5258 36.5197 9.13427 33.7004 8.89159C33.9936 8.86675 34.2903 8.85352 34.5897 8.85352C37.7712 8.85352 40.6117 10.3114 42.4797 12.5966C42.9686 13.1936 43.3425 13.8685 43.594 14.5877C43.8464 15.306 43.9757 16.0677 43.9757 16.8392Z" fill="#161516"/>
<path d="M40.9742 34.5809L39.6469 33.7206C38.7975 33.158 38.3416 32.3242 37.7866 31.5048C36.9371 30.2504 36.4641 28.7537 36.4641 27.1941V27.1777H34.6286H34.5332H32.6976V27.1941C32.6976 28.7261 32.2413 30.1973 31.42 31.4377C30.859 32.2852 30.8593 32.7986 29.9868 33.3765L28.168 34.5809C27.7995 34.8249 27.3434 34.9255 27.041 35.2351C25.927 36.3759 25.2849 37.9188 25.2849 39.5471V43.9996H34.5331H34.6288H43.877V39.5471C43.877 37.9187 43.2348 36.3757 42.1208 35.235C41.8183 34.9254 41.3425 34.8248 40.9742 34.5809Z" fill="#FED2A4"/>
<path d="M43.8765 39.5469V43.9994H42.1199V39.5469C42.1199 37.4769 40.8013 35.942 39.075 34.7985L37.8686 34.0005C35.719 32.5762 34.6304 29.904 34.4268 27.1946V27.1777H36.4639V27.1946C36.4639 29.7729 37.7571 32.1794 39.9067 33.6028L41.1131 34.4017C42.8393 35.5452 43.8765 37.477 43.8765 39.5469Z" fill="#FFBD86"/>
<path d="M40.8911 15.7168L41.6493 18.344V21.9733C41.6493 22.2125 41.6373 22.4491 41.6139 22.6819C41.4481 24.3372 40.7072 25.8229 39.5936 26.9365C38.3237 28.2064 36.5691 28.9922 34.6304 28.9922C30.9929 28.9922 28.0019 26.2252 27.647 22.6819C27.6236 22.4491 27.6116 22.2125 27.6116 21.9733V18.344L28.2844 15.7168H40.8911Z" fill="#FED2A4"/>
<path d="M41.6489 18.3437V21.9725C41.6489 22.2117 41.6374 22.4491 41.6135 22.6811C41.4479 24.3365 40.7074 25.8228 39.5932 26.9361C38.324 28.2063 36.5693 28.9919 34.6305 28.9919C34.3302 28.9919 34.0344 28.9733 33.7448 28.9361C35.3294 28.7368 36.7491 28.0096 37.8217 26.9362C38.936 25.8229 39.6764 24.3366 39.842 22.6812C39.8659 22.4491 39.8774 22.2118 39.8774 21.9726V18.3438L39.1201 15.7168H40.8916L41.6489 18.3437Z" fill="#FFBD86"/>
<path d="M31.7615 22.8571C31.4054 22.8571 31.1169 22.5686 31.1169 22.2126V21.1094C31.1169 20.7533 31.4054 20.4648 31.7615 20.4648C32.1175 20.4648 32.406 20.7533 32.406 21.1094V22.2126C32.406 22.5685 32.1174 22.8571 31.7615 22.8571Z" fill="#161516"/>
<path d="M37.4993 22.8571C37.1432 22.8571 36.8547 22.5686 36.8547 22.2126V21.1094C36.8547 20.7533 37.1432 20.4648 37.4993 20.4648C37.8553 20.4648 38.1438 20.7533 38.1438 21.1094V22.2126C38.1438 22.5685 37.8553 22.8571 37.4993 22.8571Z" fill="#161516"/>
<path d="M35.3041 15.5234H33.9566H27.6115V18.5877C30.1638 18.5113 32.7009 17.9777 34.0756 16.5972C34.2978 16.374 34.4802 16.1671 34.6304 15.9787C34.7806 16.1671 34.9629 16.374 35.1851 16.5972C36.5598 17.9777 39.0973 18.5113 41.6495 18.5877V15.5234H35.3041Z" fill="#343439"/>
<path d="M42.1198 35.2356L40.9484 37.5577C40.3901 38.6645 40.0992 39.8869 40.0992 41.1265V43.9995H29.063V41.1273C29.063 39.8871 28.7719 38.6643 28.2132 37.5573L27.0415 35.2357C27.3431 34.9253 27.6807 34.6455 28.0488 34.4016L29.2554 33.6033C30.128 33.0245 30.859 32.2848 31.4195 31.4375L31.4204 31.4384C31.4204 31.4384 32.1557 33.9233 34.5811 33.9233C37.0066 33.9233 37.742 31.4384 37.742 31.4384C38.3034 32.2856 39.0343 33.0254 39.9069 33.6033L41.1127 34.4016C41.4807 34.6455 41.8182 34.9252 42.1198 35.2356Z" fill="#FF9559"/>
<path d="M42.1201 35.2365L41.2867 36.8875C40.7393 36.0754 39.9607 35.3854 39.075 34.799L37.8686 34.001C37.4541 33.7264 37.0794 33.4066 36.7428 33.0479C37.4682 32.3421 37.7348 31.4616 37.7419 31.4395C37.7569 31.4616 37.772 31.4837 37.7871 31.505C37.8128 31.544 37.8394 31.5821 37.8659 31.6202C37.9623 31.7583 38.0713 31.9003 38.1795 32.0348C38.4686 32.394 38.791 32.724 39.1413 33.025C39.3878 33.2368 39.6367 33.4258 39.9066 33.6042C39.9066 33.6042 41.1127 34.4021 41.113 34.4022C41.4261 34.6094 41.7265 34.8494 42.0049 35.1214C42.0439 35.1594 42.082 35.1975 42.1201 35.2365Z" fill="#F95C3A"/>
<path d="M21.4021 36.7861V44.0003H0.024292V36.7666C0.024292 35.795 0.511472 34.8889 1.321 34.3521L5.70536 31.4487C6.29704 31.0563 6.81078 30.5744 7.23144 30.0262C9.43419 31.0626 11.9931 31.0626 14.195 30.0254C14.6148 30.5737 15.1285 31.0564 15.721 31.4488L20.0894 34.3415C20.9096 34.8845 21.4021 35.8021 21.4021 36.7861Z" fill="#74C733"/>
<path d="M21.4021 36.7851V43.9993H19.6768V37.7187C19.6768 36.7355 19.4306 35.8117 18.3642 35.2741L13.9958 32.3813C13.3705 31.9677 12.8151 31.3539 12.3634 30.6338C12.9905 30.5054 13.6052 30.3025 14.1942 30.0244C14.2465 30.0935 14.3005 30.1608 14.3572 30.2272C14.4983 30.3927 14.644 30.5539 14.8001 30.7056C15.082 30.982 15.3916 31.2304 15.7212 31.4487C15.7212 31.4487 20.0895 34.3414 20.0895 34.3414C20.2436 34.4432 20.3853 34.5584 20.5147 34.6842C21.0771 35.2307 21.4021 35.9862 21.4021 36.7851Z" fill="#57A41B"/>
<path d="M5.42496 37.0408V44.0002H4.11682V37.0408C4.11682 36.6798 4.40987 36.3867 4.77089 36.3867C5.13286 36.3867 5.42496 36.6798 5.42496 37.0408Z" fill="#57A41B"/>
<path d="M17.3091 37.0408V44.0002H16.001V37.0408C16.001 36.6798 16.294 36.3867 16.655 36.3867C17.0161 36.3867 17.3091 36.6798 17.3091 37.0408Z" fill="#57A41B"/>
<path d="M17.9761 20.8848H19.1844C20.3956 20.8848 21.3773 19.9029 21.3773 18.6919C21.3773 17.4808 20.3955 16.499 19.1844 16.499H17.9761V20.8848Z" fill="#F6A96C"/>
<path d="M3.56408 20.8848H2.35571C1.14459 20.8848 0.162842 19.9029 0.162842 18.6919C0.162842 17.4808 1.14468 16.499 2.35571 16.499H3.56408V20.8848Z" fill="#F6A96C"/>
<path d="M18.8138 11.6204L18.8408 14.6412V18.8145C18.8408 19.0895 18.827 19.3616 18.8001 19.6293C18.6095 21.5326 17.7575 23.2409 16.477 24.5214C15.0168 25.9816 12.9993 26.8852 10.7701 26.8852C6.58732 26.8852 3.14819 23.7036 2.74008 19.6292C2.71318 19.3615 2.69934 19.0894 2.69934 18.8144V14.6412V11.6203L8.80632 9.80176L18.8138 11.6204Z" fill="#FED2A4"/>
<path d="M18.7999 19.6287C18.6094 21.5321 17.7574 23.2407 16.4766 24.5215C15.017 25.9811 12.9993 26.8846 10.77 26.8846C10.4662 26.8846 10.1668 26.8677 9.87183 26.8341C11.7407 26.6278 13.4173 25.7819 14.6787 24.5215C15.9594 23.2408 16.8115 21.5321 17.0019 19.6287C17.0284 19.3612 17.0231 11.2949 17.0231 11.2949L18.8141 11.62C18.8141 11.62 18.8273 19.3613 18.7999 19.6287Z" fill="#FFBD86"/>
<path d="M7.47119 18.83C7.11515 18.83 6.82666 18.5416 6.82666 18.1855V16.917C6.82666 16.561 7.11515 16.2725 7.47119 16.2725C7.82723 16.2725 8.11572 16.561 8.11572 16.917V18.1855C8.11572 18.5416 7.82723 18.83 7.47119 18.83Z" fill="#161516"/>
<path d="M14.0688 18.83C13.7128 18.83 13.4243 18.5416 13.4243 18.1855V16.917C13.4243 16.561 13.7128 16.2725 14.0688 16.2725C14.4249 16.2725 14.7134 16.561 14.7134 16.917V18.1855C14.7134 18.5416 14.4248 18.83 14.0688 18.83Z" fill="#161516"/>
<path d="M2.69927 13.0303C2.69927 13.0303 6.26885 13.1444 8.54078 11.0508C8.47994 11.1283 10.5029 12.0585 10.6896 12.147C11.9484 12.7437 13.3217 12.9501 14.701 13.0468C16.8069 13.1944 18.7991 12.8511 20.3467 11.3148L20.9413 10.6684C21.3109 10.2667 21.2126 9.62548 20.7389 9.35418C19.9235 8.88719 18.7402 8.17271 17.8841 7.50025C15.9749 6.00073 14.1213 4.8917 11.7479 5.36737C10.8911 5.53907 10.1363 5.96412 9.52288 6.58441C9.1573 6.95412 8.56837 6.98007 8.17289 6.64251C7.94678 6.44958 7.74775 6.27942 7.70882 6.24307C7.17378 5.74291 6.39836 5.40724 5.64735 5.39976C4.98177 5.39315 4.31773 5.6122 3.79824 6.03089C3.10816 6.58716 2.6991 7.44078 2.6991 8.32731V11.6197L2.69927 13.0303Z" fill="#343439"/>
<path d="M20.9416 10.6685L20.3464 11.3151C19.1763 12.4763 17.7529 12.9555 16.218 13.0565C17.0302 12.7819 17.7858 12.3399 18.4571 11.6738L19.0523 11.0272C19.4217 10.626 19.3234 9.98471 18.8495 9.7128C18.0346 9.24599 16.8513 8.53125 15.9948 7.85896C14.3873 6.59593 12.8187 5.61015 10.9453 5.61453C11.2013 5.5065 11.4697 5.42323 11.7478 5.36737C14.1216 4.89171 15.9753 6.00065 17.8841 7.50017C18.7405 8.17246 19.9239 8.8872 20.7387 9.35401C21.2126 9.62514 21.3109 10.2664 20.9416 10.6685Z" fill="#161516"/>
</g>
<defs>
<clipPath id="clip0_2980_17445">
<rect width="44" height="44" fill="white"/>
</clipPath>
</defs>
</svg>
