<svg width="44" height="44" viewBox="0 0 44 44" fill="none" xmlns="http://www.w3.org/2000/svg">
<path d="M39.1875 43.3125C39.1875 43.3125 44 33 39.875 27.5C36.3756 22.8319 31.3844 10.23 29.9544 6.53125H29.9406C30.1675 8.25 11.8903 10.2499 12.0794 9.45312C10.0238 14.9531 6.48313 23.8288 3.73313 27.5C-0.391871 33 4.125 43.3125 4.125 43.3125H39.1875Z" fill="#F5F4F8"/>
<path d="M9.625 32.8624V37.1249H13.75V34.3749L9.63188 32.8486L9.625 32.8624Z" fill="#FFD5C2"/>
<path d="M33.6875 29.5625C33.6875 27.5206 32.1956 25.8225 30.2431 25.4994C30.0231 25.4581 29.7962 25.4375 29.5625 25.4375H25.9669C25.8088 25.4375 25.6575 25.41 25.5131 25.3619C25.0319 25.19 24.6675 24.7638 24.5987 24.2275L24.1106 20.2056C24.7775 19.9237 25.3825 19.5112 25.8844 19.0094C26.8813 18.0125 27.5 16.6375 27.5 15.125V15.4688C27.5 16.038 27.962 16.5 28.5312 16.5C29.1005 16.5 29.5625 16.038 29.5625 15.4688V13.4062C29.5625 12.837 29.1005 12.375 28.5312 12.375C27.962 12.375 27.5 12.837 27.5 13.4062V10.3125C22.6875 11 20.625 6.1875 20.625 6.1875C20.625 6.1875 18.5625 6.875 18.5625 8.9375C18.5625 10.5875 16.3625 12.6775 16.5344 15.9156H16.555C16.7475 17.2425 17.4212 18.4181 18.3906 19.2638C18.8375 19.6488 19.3394 19.9719 19.8894 20.1987L19.4012 24.2275C19.3325 24.7638 18.9681 25.19 18.4869 25.3619C18.3425 25.41 18.1912 25.4375 18.0331 25.4375H16.8094C16.3075 26.3175 15.8125 26.8125 15.8125 26.8125C15.8125 26.8125 12.375 29.5625 12.375 30.9375V30.9788L16.5825 32.5944C17.3113 32.5256 18.1225 32.6012 18.9269 32.8556C20.3431 33.3094 21.4569 34.1481 22.0138 35.0625C22.5706 34.1481 23.6912 33.3162 25.1006 32.8625C25.8981 32.6081 26.6888 32.5256 27.4038 32.5944L33.6875 30.1813V29.5625Z" fill="#FFD5C2"/>
<path d="M34.3681 32.8486L30.25 34.3749V37.1249H34.375V32.8624L34.3681 32.8486Z" fill="#FFD5C2"/>
<path d="M9.625 37.125H13.75V43.3125H9.625V37.125Z" fill="white"/>
<path d="M9.61124 30.0645L9.55624 30.1401L8.64874 32.4845L9.63187 32.8488L13.75 34.3751C14.0594 33.3988 15.18 32.7251 16.5825 32.5945L12.375 30.9788C12.32 31.8863 10.5944 30.7795 9.61124 30.0645Z" fill="white"/>
<path d="M39.875 27.5C36.3756 22.8319 31.3844 10.23 29.9544 6.53125H29.9406C30.1675 8.25 29.9406 10.2712 29.4181 12.8837C29.5075 13.035 29.5625 13.2137 29.5625 13.4062V14.3137C29.8169 15.4344 30.2912 16.2731 30.6075 16.7544C30.9375 17.2356 31.1644 17.7856 31.2744 18.3631C31.8862 21.6287 30.25 25.4375 30.25 25.4375L30.2431 25.4994C32.1956 25.8225 33.6875 27.5206 33.6875 29.5625V30.1813L27.4037 32.5944C28.8131 32.7181 29.9337 33.3988 30.25 34.375L34.3681 32.8487L34.375 32.8625V37.125H30.25V34.375L28.1875 43.3125H30.25H34.375H39.1875C39.1875 43.3125 44 33 39.875 27.5Z" fill="#F5F4F8"/>
<path d="M29.9406 6.53125C29.8719 5.98125 29.755 5.46562 29.59 4.97062C29.3975 5.23875 29.15 5.39687 28.8819 5.39C28.3181 5.36938 27.8781 4.62687 27.9056 3.72625C27.9125 3.55438 27.9538 3.39625 28.0156 3.245V3.23813C27.8094 3.00437 27.5825 2.78437 27.3419 2.57812C25.9738 1.40937 24.0763 0.6875 22 0.6875C19.415 0.6875 16.7956 1.1 15.2144 2.3375C15.5306 2.60563 15.9981 3.12125 16.0187 3.72625C16.0462 4.62687 15.6131 5.36938 15.0425 5.39C14.4787 5.40375 13.9975 4.68187 13.97 3.78125C13.8256 4.2625 13.5644 5.19063 13.365 5.64437C13.0006 6.49687 12.4506 7.90625 12.0794 9.45312C11.8525 10.4087 11.6875 11.4125 11.6875 12.375C11.6875 15.8125 10.3125 20.625 10.3125 20.625C10.3125 20.625 8.9375 26.8125 8.9375 29.5625C8.9375 29.5625 9.2125 29.7825 9.61125 30.0644C10.5944 30.7794 12.32 31.8863 12.375 30.9788V30.9375C12.375 29.5625 15.8125 26.8125 15.8125 26.8125C15.8125 26.8125 16.3075 26.3175 16.8094 25.4375C17.6275 24.0075 18.4663 21.5462 17.1875 18.5625C16.775 17.6 16.5825 16.72 16.5344 15.9156C16.3625 12.6775 18.5625 10.5875 18.5625 8.9375C18.5625 6.875 20.625 6.1875 20.625 6.1875C20.625 6.1875 22.6875 11 27.5 10.3125V13.4062C27.5 12.8356 27.9606 12.375 28.5312 12.375L28.6756 12.3888C28.9919 12.43 29.26 12.6156 29.4112 12.8769C29.4112 12.8769 29.4181 12.8769 29.4181 12.8837C29.9406 10.2712 30.1675 8.25 29.9406 6.53125ZM16.3694 7.13625C15.675 7.74813 14.4169 7.52125 14.4169 7.52125C14.4169 7.52125 14.2863 6.30437 14.9806 5.6925C15.675 5.08063 16.5481 4.90188 16.9331 5.30062C17.3181 5.69938 17.0637 6.52437 16.3694 7.13625ZM29.5144 7.52125C29.5144 7.52125 28.2494 7.74813 27.555 7.13625C26.8606 6.52437 26.6062 5.69938 26.9912 5.30062C27.3762 4.90188 28.2494 5.08063 28.9437 5.6925C29.645 6.30437 29.5144 7.52125 29.5144 7.52125Z" fill="#9E7059"/>
<path d="M29.6313 7.0675C29.81 7.22563 29.9338 7.425 30.0231 7.63125C30.0163 7.29438 29.9956 6.97125 29.9544 6.66187C29.8306 6.73062 29.7069 6.77187 29.5694 6.765C29.535 6.765 29.5075 6.75812 29.4731 6.75125C29.4869 6.82687 29.5006 6.89563 29.5006 6.96438C29.5488 6.99188 29.59 7.03312 29.6313 7.0675ZM28.2425 8.51125C27.7406 8.06437 27.4656 7.5075 27.5069 7.08813C26.8469 6.48313 26.6131 5.6925 26.9913 5.30062C27.3144 4.96375 27.9881 5.03937 28.6069 5.43812C28.6 5.39687 28.6 5.35563 28.6 5.31437C28.1806 5.10813 27.885 4.46875 27.9056 3.72625C27.9125 3.55438 27.9538 3.39625 28.0156 3.245V3.23813C27.8094 3.00437 27.5825 2.78437 27.3419 2.57812C25.9738 1.40937 24.0763 0.6875 22 0.6875C19.415 0.6875 16.7956 1.1 15.2144 2.3375C15.5306 2.60563 15.9981 3.12125 16.0188 3.72625V3.81563C16.3212 4.10438 16.6856 4.565 16.7063 5.10125V5.15625C16.7956 5.18375 16.8713 5.23875 16.9331 5.30062C17.1875 5.56187 17.16 6.01562 16.9125 6.46937C17.2013 6.44187 17.4556 6.50375 17.6206 6.67562C18.0056 7.07438 17.7513 7.89937 17.0569 8.51125C16.3625 9.12313 15.1044 8.89625 15.1044 8.89625C15.1044 8.89625 15.0219 8.15375 15.3244 7.54188C14.8363 7.59688 14.4169 7.52125 14.4169 7.52125C14.4169 7.52125 14.3138 6.545 14.795 5.89875C14.7263 5.71312 14.685 5.50688 14.6644 5.28688C14.2794 5.05312 13.9906 4.46875 13.97 3.78125C13.8256 4.2625 13.5644 5.19063 13.365 5.64437C13.0006 6.49687 12.4506 7.90625 12.0794 9.45312C11.8525 10.4087 11.6875 11.4125 11.6875 12.375C11.6875 15.8125 10.3125 20.625 10.3125 20.625C10.3125 20.625 8.9375 26.8125 8.9375 29.5625C8.9375 29.5625 9.2125 29.7825 9.61125 30.0644C10.5944 30.7794 12.32 31.8863 12.375 30.9788V30.9375C12.375 29.5625 15.8125 26.8125 15.8125 26.8125C15.8125 26.8125 16.3075 26.3175 16.8094 25.4375C17.6275 24.0075 18.4663 21.5462 17.1875 18.5625C16.775 17.6 16.5825 16.72 16.5344 15.9156C16.3625 12.6775 18.5625 10.5875 18.5625 8.9375C18.5625 6.875 20.625 6.1875 20.625 6.1875C20.625 6.1875 22.6875 11 27.5 10.3125V13.4062C27.5 12.8356 27.9606 12.375 28.5313 12.375L28.6756 12.3888C28.9919 12.43 29.26 12.6156 29.4113 12.8769C29.4113 12.8769 29.4181 12.8769 29.4181 12.8837C29.7138 11.3919 29.92 10.0856 29.9956 8.92375C29.6106 8.95813 28.765 8.97188 28.2425 8.51125Z" fill="#D95336"/>
<path d="M13.475 9.17812C13.475 9.28812 13.475 9.39812 13.4681 9.50812C13.0006 9.4325 12.5606 9.33625 12.1412 9.22625C12.1756 9.06812 12.2169 8.91687 12.2581 8.76562C12.6431 8.91687 13.0487 9.06125 13.475 9.17812Z" fill="#BFA599"/>
<path d="M14.2244 9.36914C14.2216 9.45233 14.2195 9.53483 14.2168 9.6187C14.9194 9.70189 15.6585 9.74726 16.423 9.74726C16.6911 9.74726 16.9524 9.74039 17.2136 9.73351C16.1631 9.70739 15.1587 9.57883 14.2244 9.36914Z" fill="#BFA599"/>
<path d="M24.7747 3.71777C23.5379 4.11377 22.1375 4.35715 20.6422 4.39427C20.9034 4.40115 21.1647 4.40802 21.4328 4.40802C22.627 4.40802 23.7579 4.29665 24.7837 4.10209C24.7809 3.97421 24.7788 3.84565 24.7747 3.71777Z" fill="#BFA599"/>
<path d="M27.8713 3.08707C27.2319 3.43082 26.4275 3.71957 25.5406 3.93957C25.5338 3.77457 25.5338 3.61644 25.5338 3.45145C26.18 3.1902 26.7781 2.89457 27.3006 2.54395C27.3144 2.5577 27.3281 2.56457 27.3419 2.57832C27.5275 2.73645 27.7063 2.90832 27.8713 3.08707Z" fill="#BFA599"/>
<path d="M28.9781 2.11719C28.9781 2.11719 29.9819 2.87344 29.9544 3.78094C29.9406 4.25531 29.8031 4.67469 29.59 4.97031C29.3975 5.23844 29.15 5.39656 28.8819 5.38969C28.3181 5.36906 27.8781 4.62656 27.9056 3.72594C27.9125 3.55406 27.9538 3.39594 28.0156 3.24469V3.23781C28.2906 2.57781 28.9781 2.11719 28.9781 2.11719Z" fill="#57A41B"/>
<path d="M26.9913 5.30075C27.3763 4.902 28.2494 5.08075 28.9438 5.69262C29.645 6.3045 29.5144 7.52137 29.5144 7.52137C29.5144 7.52137 28.2494 7.74825 27.555 7.13637C26.8606 6.5245 26.6063 5.6995 26.9913 5.30075Z" fill="#3F7217"/>
<path d="M27.5 10.3125V15.125C27.5 16.6375 26.8812 18.0125 25.8844 19.0094C25.6506 19.2431 25.4031 19.4494 25.1281 19.635C25.7606 18.7481 26.125 17.6619 26.125 16.5V13.4613C26.125 12.5813 25.465 11.8112 24.585 11.7219C21.9587 11.4538 20.0337 8.8 19.1331 7.26687C19.745 6.48312 20.625 6.1875 20.625 6.1875C20.625 6.1875 22.6875 11 27.5 10.3125Z" fill="#FCAD95"/>
<path d="M16.0187 3.72594C16.0462 4.62656 15.6131 5.36906 15.0425 5.38969C14.4787 5.40344 13.9975 4.68156 13.97 3.78094C13.9425 2.87344 14.9462 2.11719 14.9462 2.11719C14.9462 2.11719 15.0631 2.19281 15.2144 2.33719C15.5306 2.60531 15.9981 3.12094 16.0187 3.72594Z" fill="#3F7217"/>
<path d="M14.9806 5.69262C15.675 5.08075 16.5481 4.902 16.9331 5.30075C17.3181 5.6995 17.0637 6.5245 16.3694 7.13637C15.675 7.74825 14.4169 7.52137 14.4169 7.52137C14.4169 7.52137 14.2862 6.3045 14.9806 5.69262Z" fill="#57A41B"/>
<path d="M29.9544 6.66195C29.8306 6.7307 29.7069 6.77195 29.5694 6.76508C29.535 6.76508 29.5075 6.7582 29.4731 6.75133C29.4112 6.39383 29.2669 5.97445 28.9437 5.69258C28.8337 5.59633 28.7237 5.51383 28.6069 5.4382C28.6 5.39695 28.6 5.3557 28.6 5.31445C28.6894 5.36258 28.7856 5.3832 28.8819 5.39008C29.15 5.39695 29.3975 5.23883 29.59 4.9707C29.755 5.4657 29.8719 5.98133 29.9406 6.53133C29.9475 6.57258 29.9544 6.61383 29.9544 6.66195Z" fill="#BE4125"/>
<path d="M29.9956 8.92324C29.6106 8.95762 28.765 8.97137 28.2425 8.51074C27.7406 8.06387 27.4656 7.50699 27.5069 7.08762C27.5206 7.10824 27.5344 7.12199 27.555 7.13574C28.2494 7.74762 29.5144 7.52074 29.5144 7.52074C29.5144 7.52074 29.5419 7.28699 29.5006 6.96387C29.5487 6.99137 29.59 7.03262 29.6312 7.06699C29.81 7.22512 29.9337 7.42449 30.0231 7.63074V7.63762C30.0369 8.05012 30.0231 8.46949 29.9956 8.92324Z" fill="#BE4125"/>
<path d="M16.7062 5.10105V5.15605C16.2662 4.97043 15.565 5.17668 14.9806 5.6923C14.9119 5.75418 14.85 5.82293 14.795 5.89855C14.7262 5.71293 14.685 5.50668 14.6644 5.28668C14.7812 5.35543 14.9119 5.3898 15.0425 5.3898C15.5925 5.36918 16.0187 4.6748 16.0187 3.81543C16.3212 4.10418 16.6856 4.5648 16.7062 5.10105Z" fill="#BE4125"/>
<path d="M17.0569 8.51104C16.3625 9.12291 15.1044 8.89604 15.1044 8.89604C15.1044 8.89604 15.0219 8.15354 15.3244 7.54166C15.6819 7.50041 16.0738 7.39729 16.3694 7.13604C16.6031 6.92979 16.7888 6.69604 16.9125 6.46916C17.2013 6.44166 17.4556 6.50354 17.6206 6.67541C18.0056 7.07416 17.7513 7.89916 17.0569 8.51104Z" fill="#BE4125"/>
<path d="M19.8894 20.1982L19.4012 24.2269C19.3325 24.7632 18.9681 25.1894 18.4869 25.3613C18.3425 25.4094 18.1912 25.4369 18.0331 25.4369H16.8094C17.6275 24.0069 18.4662 21.5457 17.1875 18.5619C16.775 17.5994 16.5825 16.7194 16.5344 15.915H16.555C16.7475 17.2419 17.4212 18.4175 18.3906 19.2632C18.8375 19.6482 19.3394 19.9713 19.8894 20.1982Z" fill="#8F2C16"/>
<path d="M9.625 41.9059V43.3125H13.75V37.125H13.1787C12.9518 39.1916 12.9793 41.6192 9.625 41.9059Z" fill="#C6C5D2"/>
<path d="M30.25 34.375L28.1875 43.3126H15.8125L13.75 34.375C14.0594 33.3988 15.18 32.725 16.5825 32.5944C17.3113 32.5257 18.1225 32.6013 18.9269 32.8557C20.3431 33.3094 21.4569 34.1482 22.0138 35.0625C22.5706 34.1482 23.6912 33.3163 25.1006 32.8625C25.8981 32.6082 26.6888 32.5257 27.4038 32.5944C28.8131 32.7182 29.9338 33.3988 30.25 34.375Z" fill="white"/>
<path d="M28.6117 32.8682C27.4017 38.8714 22.077 42.9847 15.6585 42.6465L15.8125 43.3127H28.1875L30.25 34.3752C30.0321 33.7021 29.4264 33.1748 28.6117 32.8682Z" fill="#C6C5D2"/>
<path d="M24.2688 21.5055C24.2206 21.533 24.1656 21.5605 24.1106 21.5811C23.4575 21.8492 22.7494 22.0005 22 22.0005C21.2575 22.0005 20.5425 21.8492 19.8894 21.5742C19.8344 21.5536 19.7794 21.5261 19.7313 21.4986L19.8894 20.1992C20.5425 20.4742 21.2575 20.6255 22 20.6255C22.7494 20.6255 23.4575 20.4742 24.1106 20.2061L24.2688 21.5055Z" fill="#FCAD95"/>
<path d="M29.5625 14.3135C29.8168 15.4341 30.2912 16.2729 30.6075 16.7541C30.9375 17.2354 31.1644 17.7854 31.2744 18.3629C31.8862 21.6285 30.25 25.4372 30.25 25.4372L30.2431 25.4991C30.0231 25.4579 29.7962 25.4372 29.5625 25.4372H25.9668C25.8087 25.4372 25.6575 25.4097 25.5131 25.3616C25.0318 25.1897 24.6675 24.7635 24.5987 24.2272L24.1106 20.2054C24.7775 19.9235 25.3825 19.511 25.8843 19.0091C26.8812 18.0122 27.5 16.6372 27.5 15.1247V15.4685C27.5 16.0391 27.9606 16.4997 28.5312 16.4997C29.1018 16.4997 29.5625 16.0391 29.5625 15.4685V14.3135Z" fill="#BE4125"/>
<path d="M27.2593 19.6969C26.7575 20.1987 26.1525 20.6112 25.4856 20.8931L25.9737 24.915C26.0012 25.1075 26.0631 25.2794 26.1525 25.4375H25.9668C25.8087 25.4375 25.6575 25.41 25.5131 25.3619C25.0318 25.19 24.6675 24.7638 24.5987 24.2275L24.1106 20.2056C24.7775 19.9237 25.3825 19.5112 25.8843 19.0094C26.8812 18.0125 27.5 16.6375 27.5 15.125V15.4688C27.5 16.0394 27.9606 16.5 28.5312 16.5C28.6412 16.5 28.7443 16.4863 28.8406 16.445C28.6962 17.7031 28.1187 18.8375 27.2593 19.6969Z" fill="#8F2C16"/>
<path d="M30.6625 16.8504C30.4769 17.0566 30.2088 17.1872 29.9063 17.1872C29.425 17.1872 29.0263 16.8641 28.9163 16.4241C29.2944 16.2729 29.5625 15.9016 29.5625 15.4685V14.3135C29.8169 15.4341 30.2913 16.2729 30.6075 16.7541C30.6281 16.7885 30.6488 16.816 30.6625 16.8504Z" fill="#8F2C16"/>
<path d="M30.25 41.9989V43.3127H34.375V37.876C33.9371 40.1214 32.6177 42.0443 30.25 41.9989Z" fill="#C6C5D2"/>
<path d="M13.75 34.3749V35.7499L9.63188 34.2236H9.625V32.8624L9.63188 32.8486L13.75 34.3749Z" fill="#FCAD95"/>
<path d="M34.375 32.8624V34.2236H34.3681L30.25 35.7499V34.3749L34.3681 32.8486L34.375 32.8624Z" fill="#FCAD95"/>
<path d="M31.8725 26.1525C31.3913 25.8225 30.8413 25.5956 30.2431 25.4994L30.25 25.4375C30.25 25.4375 31.8863 21.6287 31.2744 18.3631C31.1644 17.7856 30.9375 17.2356 30.6075 16.7544C30.2912 16.2731 29.8169 15.4344 29.5625 14.3137V13.4062C29.5625 13.2137 29.5075 13.035 29.4181 12.8837C29.9406 10.2712 30.1675 8.25 29.9406 6.53125H29.9544C30.2706 7.34938 30.7656 8.61437 31.3775 10.1269C31.3156 11.33 31.1094 12.6912 30.7931 14.2587C30.8825 14.41 30.9375 14.5887 30.9375 14.7812V15.6887C31.1919 16.8094 31.6663 17.6481 31.9825 18.1294C32.3125 18.6106 32.5394 19.1606 32.6494 19.7381C33.11 22.1787 32.3056 24.9288 31.8725 26.1525Z" fill="#C6C5D2"/>
<path d="M35.7431 34.2242L35.75 34.238V43.313H34.375V32.863L34.3681 32.8492L35.3512 32.4848L34.3612 29.9205L33.6875 30.1817V29.563C33.6875 28.7792 33.4675 28.0436 33.0825 27.418C34.2719 28.1467 35.0625 29.453 35.0625 30.938V31.5567L35.7362 31.2955L36.7262 33.8598L35.7431 34.2242Z" fill="#C6C5D2"/>
<path d="M25.9999 25.8476C26.2687 25.5788 26.2687 25.1442 25.9999 24.8754C25.7311 24.6066 25.2966 24.6066 25.0278 24.8754L22 27.9032L18.9723 24.8754C18.7034 24.6066 18.2689 24.6066 18.0001 24.8754C17.7313 25.1442 17.7313 25.5788 18.0001 25.8476L21.3125 29.1599V29.5628H20.625C20.2448 29.5628 19.9375 29.8701 19.9375 30.2503C19.9375 30.6305 20.2448 30.9378 20.625 30.9378H21.3125V32.3128C21.3125 32.693 21.6198 33.0003 22 33.0003C22.3802 33.0003 22.6875 32.693 22.6875 32.3128V30.9378H23.375C23.7552 30.9378 24.0625 30.6305 24.0625 30.2503C24.0625 29.8701 23.7552 29.5628 23.375 29.5628H22.6875V29.1599L25.9999 25.8476Z" fill="#88879B"/>
<path d="M19.6268 13.3694C19.017 13.3694 18.4869 13.1514 18.181 12.9472C17.8647 12.7362 17.7795 12.3099 17.9905 11.9937C18.1995 11.6802 18.6237 11.5929 18.9386 11.7998C19.0115 11.8459 19.6323 12.2109 20.2435 11.8032C20.5604 11.5929 20.9867 11.6781 21.197 11.9937C21.4081 12.3099 21.3228 12.7362 21.0066 12.9472C20.5412 13.2573 20.0633 13.3694 19.6268 13.3694Z" fill="#7C4D4D"/>
<path d="M24.4393 13.3694C23.8295 13.3694 23.2994 13.1514 22.9935 12.9472C22.6772 12.7362 22.592 12.3099 22.803 11.9937C23.0127 11.6802 23.4362 11.5929 23.7511 11.7998C23.824 11.8459 24.4448 12.2109 25.056 11.8032C25.3722 11.5929 25.7985 11.6781 26.0095 11.9937C26.2206 12.3099 26.1353 12.7362 25.8191 12.9472C25.3537 13.2573 24.8758 13.3694 24.4393 13.3694Z" fill="#7C4D4D"/>
<path d="M22.055 18.1798C21.0959 18.1798 20.3768 17.8485 20.3314 17.8265C19.9877 17.6649 19.8412 17.2545 20.0028 16.9114C20.1643 16.5697 20.572 16.4233 20.9151 16.5821C20.9481 16.5972 22.0412 17.0737 23.0807 16.5835C23.4245 16.4212 23.8335 16.569 23.9958 16.9121C24.1573 17.2552 24.0109 17.6656 23.6672 17.8272C23.1068 18.0918 22.5493 18.1798 22.055 18.1798Z" fill="#C95F5F"/>
</svg>
