<svg width="44" height="44" viewBox="0 0 44 44" fill="none" xmlns="http://www.w3.org/2000/svg">
<g clip-path="url(#clip0_2980_17743)">
<path d="M33.512 41.8915L32.7991 36.5452C32.6469 35.4038 31.8752 34.4404 30.7945 34.0428L26.5729 32.4894C26.066 32.3204 25.7241 31.8461 25.7241 31.3117V29.3099L28.3978 28.1958C29.7857 27.6176 30.6896 26.2616 30.6896 24.7582V24.1375C31.718 24.1375 32.5517 23.3038 32.5517 22.2754C32.5517 21.247 31.718 20.4134 30.6896 20.4134V19.172C30.6896 17.458 29.3001 14.8271 27.5862 14.8271H16.4138C14.6997 14.8271 13.3103 17.458 13.3103 19.172V20.4134C12.2819 20.4134 11.4482 21.247 11.4482 22.2754C11.4482 23.3038 12.2819 24.1375 13.3103 24.1375V24.7582C13.3103 26.2616 14.2143 27.6175 15.602 28.1959L18.2758 29.3099V31.3117C18.2758 31.8461 17.9339 32.3204 17.427 32.4894L13.2054 34.0428C12.1247 34.4404 11.353 35.4038 11.2008 36.5452L10.488 41.8915C10.3391 43.0077 11.2075 43.9996 12.3337 43.9996H31.6663C32.7924 43.9996 33.6609 43.0077 33.512 41.8915Z" fill="#FFD5C2"/>
<path d="M31.3096 23.5176H30.0682C30.0682 23.5176 29.477 25.154 29.4475 27.2416C29.431 28.4109 29.734 29.7218 30.0682 30.9659H31.3096C31.6439 29.7217 31.9468 28.4109 31.9303 27.2416C31.9008 25.154 31.3096 23.5176 31.3096 23.5176Z" fill="#6E4439"/>
<path d="M13.9308 23.5176H12.6894C12.6894 23.5176 12.0982 25.154 12.0688 27.2416C12.0522 28.4109 12.3552 29.7218 12.6894 30.9659H13.9308C14.2651 29.7217 14.568 28.4109 14.5515 27.2416C14.522 25.154 13.9308 23.5176 13.9308 23.5176Z" fill="#5E342E"/>
<path d="M13.0148 19.5068H9.58671C9.14757 19.5068 8.84731 19.9503 9.0104 20.358L9.64063 21.9336C9.78262 22.2885 10.2085 22.432 10.5363 22.2353L13.0148 20.7482V19.5068Z" fill="#C93329"/>
<path d="M13.0148 19.5066H9.58671C9.14757 19.5066 8.84731 19.0631 9.0104 18.6554L9.64063 17.0799C9.78262 16.725 10.2085 16.5814 10.5363 16.7781L13.0148 18.2652V19.5066Z" fill="#F95C3A"/>
<path d="M30.985 19.5068H34.4131C34.8522 19.5068 35.1525 19.9503 34.9894 20.358L34.3591 21.9336C34.2172 22.2885 33.7913 22.432 33.4635 22.2353L30.985 20.7482V19.5068Z" fill="#C93329"/>
<path d="M30.985 19.5066H34.4131C34.8522 19.5066 35.1525 19.0631 34.9894 18.6554L34.3591 17.0799C34.2172 16.725 33.7913 16.5814 33.4635 16.7781L30.985 18.2652V19.5066Z" fill="#F95C3A"/>
<path d="M25.7241 29.3105L18.2758 27.6553V31.3123C18.2758 31.7591 18.0286 32.1526 17.6538 32.3721C22.8594 33.2832 25.7241 29.3105 25.7241 29.3105Z" fill="#FCAD95"/>
<path d="M13.3103 20.4134C12.2819 20.4134 11.4482 21.2471 11.4482 22.2754C11.4482 23.3038 12.2819 24.1375 13.3103 24.1375V24.7582C13.3103 26.2617 14.2143 27.6176 15.6021 28.1959L19.6126 29.867C20.369 30.1822 21.1804 30.3445 21.9999 30.3445C22.8194 30.3445 23.6307 30.1822 24.3871 29.867L28.3979 28.1959C29.7857 27.6176 30.6896 26.2617 30.6896 24.7582V24.1375C31.718 24.1375 32.5517 23.3038 32.5517 22.2754C32.5517 21.247 31.718 20.4134 30.6896 20.4134V18.3961C30.6896 16.425 29.0917 14.8271 27.1207 14.8271H16.8793C14.9082 14.8271 13.3103 16.425 13.3103 18.3961V20.4134Z" fill="#FFD5C2"/>
<path d="M17.6551 22.8962C17.3137 22.8962 17.0344 22.6169 17.0344 22.2756V21.6549C17.0344 21.3135 17.3137 21.0342 17.6551 21.0342C17.9964 21.0342 18.2757 21.3135 18.2757 21.6549V22.2756C18.2757 22.6169 17.9964 22.8962 17.6551 22.8962Z" fill="#623F33"/>
<path d="M26.3446 22.8962C26.0032 22.8962 25.7239 22.6169 25.7239 22.2756V21.6549C25.7239 21.3135 26.0032 21.0342 26.3446 21.0342C26.686 21.0342 26.9653 21.3135 26.9653 21.6549V22.2756C26.9653 22.6169 26.686 22.8962 26.3446 22.8962Z" fill="#623F33"/>
<path d="M22 27.2581C20.8965 27.2581 19.8643 26.9865 19.1681 26.5129C18.8847 26.3201 18.811 25.934 19.0041 25.6507C19.1965 25.3676 19.583 25.2939 19.8663 25.4867C20.3543 25.8185 21.1519 26.0168 22 26.0168C22.848 26.0168 23.6456 25.8185 24.1336 25.4867C24.4176 25.2934 24.8031 25.3673 24.9958 25.6507C25.1888 25.934 25.1152 26.3201 24.8319 26.5129C24.1358 26.9865 23.1035 27.2581 22 27.2581Z" fill="#C95F5F"/>
<path d="M13.3102 20.4142C12.2818 20.4142 11.4481 21.2479 11.4481 22.2763C11.4481 23.3047 12.2818 24.1384 13.3102 24.1384V24.7591C13.3102 26.2625 14.2141 27.6185 15.6019 28.1967L19.6124 29.8678C19.8087 29.9496 20.009 30.02 20.2119 30.0811C18.4395 28.7845 17.2597 27.6511 16.5684 26.91C16.0655 26.3708 15.793 25.6592 15.793 24.9218V21.4529C17.5697 20.8327 22.5568 18.7957 22.6205 15.4487L21.8447 14.6729C21.8447 14.6729 21.5085 19.1211 13.3102 20.4142Z" fill="#FCAD95"/>
<path d="M29.1252 33.3446L26.8917 36.918C26.5514 37.4625 25.9547 37.7932 25.3127 37.7932H18.6872C18.0451 37.7932 17.4484 37.4625 17.1081 36.918L14.8747 33.3446C14.6953 33.0576 14.3192 32.9672 14.029 33.1413L11.9902 34.3646C11.6925 34.5432 11.5992 34.9314 11.7832 35.2258L14.5517 39.6553H29.4482L32.2166 35.2257C32.4007 34.9313 32.3073 34.5432 32.0096 34.3645L29.9708 33.1412C29.6807 32.9672 29.3045 33.0576 29.1252 33.3446Z" fill="#C93329"/>
<path d="M29.4481 39.6553H14.5515V44.0001H29.4481V39.6553Z" fill="#F95C3A"/>
<path d="M25.1034 8C23.0861 8 21.9999 8.62069 21.9999 8.62069C21.9999 8.62069 20.9137 8 18.8965 8C16.8792 8 9.22404 11.8836 12.0689 20.8836C12.0689 20.8836 21.9999 19.1207 21.9999 14.8276C21.9999 19.1207 31.931 20.8836 31.931 20.8836C34.7758 11.8836 27.1206 8 25.1034 8Z" fill="#6E4439"/>
<path d="M21.9999 8.621V8.62069C21.9999 8.62069 20.9137 8 18.8965 8C16.8792 8 9.22409 11.8836 12.0689 20.8836C12.0689 20.8836 13.2711 20.6697 14.8379 20.2109C13.0844 12.1406 20.0752 8.62721 21.9999 8.621Z" fill="#5E342E"/>
<path d="M13.931 32.2072H12.6896C12.3468 32.2072 12.0689 31.9293 12.0689 31.5865C12.0689 31.2437 12.3468 30.9658 12.6896 30.9658H13.931C14.2738 30.9658 14.5517 31.2437 14.5517 31.5865C14.5517 31.9294 14.2738 32.2072 13.931 32.2072Z" fill="#F95C3A"/>
<path d="M13.9311 32.207C13.9311 32.207 15.0173 34.0691 13.3104 36.5519C11.6035 34.0691 12.6898 32.207 12.6898 32.207" fill="#5E342E"/>
<path d="M30.0682 32.2072H31.3096C31.6524 32.2072 31.9303 31.9293 31.9303 31.5865C31.9303 31.2437 31.6524 30.9658 31.3096 30.9658H30.0682C29.7254 30.9658 29.4475 31.2437 29.4475 31.5865C29.4475 31.9294 29.7254 32.2072 30.0682 32.2072Z" fill="#F95C3A"/>
<path d="M30.0682 32.207C30.0682 32.207 28.982 34.0691 30.6889 36.5519C32.3958 34.0691 31.3096 32.207 31.3096 32.207" fill="#6E4439"/>
</g>
<defs>
<clipPath id="clip0_2980_17743">
<rect width="44" height="44" fill="white"/>
</clipPath>
</defs>
</svg>
