<svg width="44" height="44" viewBox="0 0 44 44" fill="none" xmlns="http://www.w3.org/2000/svg">
<path d="M13.2499 11.5333C12.3469 11.5333 11.6149 12.2654 11.6149 13.1683V14.4288C11.6149 15.3318 12.3469 16.0638 13.2499 16.0638H14.0172L14.0149 11.5332L13.2499 11.5333Z" fill="#FFBD86"/>
<path d="M31.9524 14.4287V13.1683C31.9524 12.2652 31.2204 11.5332 30.3174 11.5332H29.6409L29.6386 16.0638H30.3174C31.2203 16.0637 31.9524 15.3316 31.9524 14.4287Z" fill="#F6A96C"/>
<path d="M33.4765 29.1906L27.1309 28.0119C26.3164 27.8482 25.7304 26.9033 25.7304 26.0725V22.3701H21.7836H21.7835H17.8367V26.0725C17.8367 26.9033 17.2507 27.8482 16.4362 28.0119L10.0906 29.1906C7.0723 30.0793 5 32.8499 5 35.9962V43.0612C5 43.5788 5.41955 43.9984 5.93715 43.9984H37.63C38.1476 43.9984 38.5671 43.5788 38.5671 43.0612V35.9962C38.5671 32.8499 36.4948 30.0793 33.4765 29.1906Z" fill="#FED2A4"/>
<path d="M33.4766 29.1906L27.1309 28.0119C26.3164 27.8482 25.7304 26.9033 25.7304 26.0725V22.3701H22.1598V28.2335C22.1598 29.0644 22.7458 30.0093 23.5603 30.173L29.9059 31.3517C32.9242 32.2404 34.9965 35.0108 34.9965 38.1573V43.9984H37.63C38.1476 43.9984 38.5671 43.5788 38.5671 43.0612V35.9962C38.5671 32.8498 36.4949 30.0793 33.4766 29.1906Z" fill="#FFBD86"/>
<path d="M29.9949 10.7874V9.21594C29.9949 6.99712 29.084 4.84705 27.4026 3.39926C26.0844 2.2642 24.2314 1.27342 21.7836 1.24609C19.3358 1.27342 17.4829 2.26411 16.1646 3.39926C14.4832 4.84705 13.5723 6.99703 13.5723 9.21594V10.7874V11.5333L13.5745 16.064C13.5752 16.098 13.5761 16.9342 13.5773 17.9029C13.5791 19.4281 14.2719 20.8708 15.4612 21.8256L19.2557 24.872C19.6313 25.1735 20.0986 25.3379 20.5804 25.3379H22.9868C23.4687 25.3379 23.9359 25.1736 24.3115 24.8719C25.0496 24.2792 26.3703 23.2185 27.5519 22.2696C29.0905 21.034 29.9869 19.1684 29.9902 17.195C29.9912 16.5662 29.9923 16.0872 29.9928 16.0639L29.995 11.5332L29.9949 10.7874Z" fill="#FED2A4"/>
<path d="M27.4026 3.39926C26.0844 2.2642 24.2313 1.27342 21.7836 1.24609C21.1426 1.25323 20.5427 1.32696 19.9823 1.45157C21.562 1.80271 22.8268 2.56137 23.7998 3.39917C25.4811 4.84696 26.3921 6.99695 26.3921 9.21585V10.7873V11.5332L26.3898 16.0639C26.3893 16.0872 26.3884 16.5663 26.3873 17.195C26.384 19.1684 25.4877 21.034 23.949 22.2696C22.7674 23.2185 21.4467 24.2792 20.7087 24.8719C20.492 25.0459 20.2444 25.1725 19.9816 25.2499C20.1747 25.3072 20.376 25.3379 20.5803 25.3379H22.9867C23.4686 25.3379 23.9358 25.1736 24.3114 24.8719C25.0495 24.2792 26.3702 23.2185 27.5518 22.2696C29.0904 21.034 29.9868 19.1684 29.9901 17.195C29.9911 16.5662 29.9922 16.0872 29.9926 16.0639L29.9948 11.5332V10.7873V9.21585C29.9949 6.99703 29.084 4.84696 27.4026 3.39926Z" fill="#FFBD86"/>
<path d="M27.3999 0.148825C26.8346 -0.14216 25.6814 0.0352151 24.5637 0.323879C22.7596 0.789832 20.8077 0.789832 19.0036 0.323879C17.8858 0.0352151 16.7328 -0.14216 16.1674 0.148825C13.8082 1.36295 12.3281 10.949 12.3281 10.949H31.2394C31.2393 10.949 29.7592 1.36295 27.3999 0.148825Z" fill="#595866"/>
<path d="M27.3999 0.148825C26.8346 -0.14216 25.6815 0.0352151 24.5638 0.323879C24.419 0.361262 24.2731 0.39452 24.1266 0.425887C26.2614 2.39686 27.5821 10.9489 27.5821 10.9489H31.2392C31.2393 10.949 29.7592 1.36295 27.3999 0.148825Z" fill="#343439"/>
<path d="M21.7837 9.44336C16.1065 9.44336 11.3167 10.5484 9.81928 12.0594C9.45052 12.4315 9.71615 13.0641 10.24 13.0641H33.3274C33.8513 13.0641 34.1169 12.4314 33.7481 12.0594C32.2506 10.5484 27.4609 9.44336 21.7837 9.44336Z" fill="#161516"/>
<path d="M33.4765 29.1904L27.1309 28.0117L21.7836 40.458L16.4363 28.0117L10.0907 29.1904C7.07242 30.0791 5.00012 32.8497 5.00012 35.996V43.061C5.00012 43.5786 5.41967 43.9982 5.93727 43.9982H37.6301C38.1477 43.9982 38.5672 43.5786 38.5672 43.061V35.996C38.5671 32.8497 36.4948 30.0791 33.4765 29.1904Z" fill="#595866"/>
<path d="M33.4765 29.1904L27.1309 28.0117L26.8645 28.6317L29.8724 29.1904C32.8907 30.0791 34.963 32.8497 34.963 35.996V43.9981H37.6299C38.1475 43.9981 38.567 43.5785 38.567 43.0609V35.9959C38.5671 32.8496 36.4947 30.0791 33.4765 29.1904Z" fill="#343439"/>
<path d="M21.7837 40.4583L16.648 28.5047C16.5451 28.2653 16.6305 27.9817 16.8557 27.8508C17.4446 27.5087 17.8369 26.7525 17.8369 26.0727V24.8027H15.9587C13.7218 24.8027 11.9083 26.6162 11.9083 28.8531L15.5243 32.369C15.6872 32.5273 15.7386 32.768 15.6549 32.9792L14.8914 34.9036C14.7969 35.1417 14.8754 35.4135 15.0823 35.5646L21.7837 40.4583Z" fill="#161516"/>
<path d="M21.7837 40.4583L26.9194 28.5047C27.0222 28.2653 26.9368 27.9817 26.7116 27.8508C26.1227 27.5087 25.7304 26.7525 25.7304 26.0727V24.8027H27.6086C29.8455 24.8027 31.659 26.6162 31.659 28.8531L28.043 32.369C27.8802 32.5273 27.8287 32.768 27.9124 32.9792L28.6759 34.9036C28.7704 35.1417 28.6919 35.4135 28.485 35.5646L21.7837 40.4583Z" fill="#161516"/>
<path d="M17.3903 30.2324L21.7836 40.4583L26.177 30.2324C23.3633 31.3946 20.2039 31.3946 17.3903 30.2324Z" fill="#74C733"/>
<path d="M9.96522 37.2695C9.59853 37.2695 9.30127 37.5668 9.30127 37.9335V43.9976H10.6292V37.9335C10.6292 37.5668 10.3319 37.2695 9.96522 37.2695Z" fill="#343439"/>
<path d="M33.602 37.2695C33.2353 37.2695 32.938 37.5668 32.938 37.9335V43.9976H34.2659V37.9335C34.2659 37.5668 33.9687 37.2695 33.602 37.2695Z" fill="#343439"/>
</svg>
