<svg width="327" height="313" viewBox="0 0 327 313" fill="none" xmlns="http://www.w3.org/2000/svg">
<path d="M51.8615 312.218C45.1491 312.218 39.2369 307.799 37.3381 301.361L9.5003 207.021C9.11135 205.704 8.9025 204.341 8.88079 202.97C8.81692 198.828 10.5388 194.48 13.9205 191.463C13.1765 188.496 12.5219 185.508 11.9566 182.501C4.86227 178.775 -0.019104 171.18 5.62046e-05 162.529L0.0313511 148.815C0.0505113 140.379 4.65981 133.022 11.4259 129.232C18.1026 89.1568 40.5768 53.3823 74.238 29.8063C74.5739 29.5547 74.9182 29.3158 75.2701 29.0891C85.4224 22.1001 96.3686 16.3795 107.817 12.0781C108.244 11.8993 108.679 11.7364 109.118 11.5914C125.863 5.45441 143.456 2.3428 161.41 2.3428C167.355 2.3428 173.377 2.70046 179.36 3.40747C183.556 1.95385 188.096 1.07951 192.72 0.850865C193.647 0.804881 194.571 0.78125 195.497 0.78125C207.233 0.78125 218.963 4.48874 228.527 11.2216C228.932 11.5071 229.362 11.8194 229.805 12.1611C230.385 12.2365 230.957 12.331 231.525 12.4434C236.948 13.5272 241.949 16.4096 245.99 20.7781C249.235 24.2888 251.6 28.4721 252.951 32.9965C258.575 37.2449 263.904 41.8855 268.894 46.8755C273.329 45.4346 277.986 44.6791 282.647 44.6791C289.908 44.6791 297.145 46.5012 303.572 49.9468C325.163 61.5279 333.309 88.5137 321.731 110.102C318.884 115.413 315.004 120.044 310.366 123.756C310.564 124.719 310.75 125.681 310.927 126.639C310.94 126.702 311.039 127.184 311.07 127.363C312.663 136.276 313.47 145.376 313.47 154.405C313.47 164.922 312.38 175.42 310.224 185.68C323.519 228.694 293.495 295.144 289.968 302.705C287.48 308.038 282.129 311.447 276.244 311.447L51.8615 312.218Z" fill="white"/>
<path d="M304.364 154.956C304.364 166.966 302.875 178.633 300.068 189.765C300.03 189.956 299.992 190.127 299.953 190.299C295.638 207.217 288.287 222.912 278.53 236.794C278.53 236.794 278.549 236.794 278.53 236.813C254.585 270.859 216.129 293.963 172.155 297.094C168.756 297.361 165.319 297.476 161.844 297.476C145.69 297.476 130.166 294.784 115.693 289.838C92.6074 281.934 72.1954 268.282 56.1948 250.581C47.583 241.091 40.251 230.437 34.4461 218.884C34.3509 218.731 34.2743 218.578 34.2168 218.407C24.6885 199.293 19.323 177.754 19.323 154.956C19.323 106.513 43.4961 63.7037 80.4439 37.9645C80.5582 37.8694 80.6917 37.7736 80.8258 37.6976C90.4302 31.0528 100.875 25.5532 112.007 21.4102C112.16 21.3335 112.312 21.2767 112.466 21.2384C127.856 15.5478 144.487 12.4355 161.844 12.4355C221.266 12.4355 272.21 48.8105 293.576 100.518C293.653 100.671 293.729 100.823 293.767 100.996C297.452 109.951 300.24 119.365 302.016 129.122C302.055 129.274 302.074 129.427 302.112 129.579C303.582 137.809 304.364 146.287 304.364 154.956Z" fill="#FFD0C4"/>
<g opacity="0.42">
<path d="M300.068 189.765C300.03 189.956 299.992 190.128 299.954 190.3C284.45 185.183 266.635 186.481 252.753 194.94C239.788 202.864 230.546 215.772 221.61 228.241C211.452 242.409 200.95 257.054 185.025 264.138C178.934 266.831 172.232 268.148 165.51 268.148C154.856 268.148 144.144 264.844 135.723 258.506C128.811 253.293 123.388 246.343 118.157 239.602C115.56 236.241 112.848 232.766 110.003 229.558C98.4512 216.555 84.417 208.383 70.478 206.55C56.6916 204.736 42.7909 209.681 34.4467 218.884C34.3515 218.732 34.2749 218.579 34.2174 218.407C42.6951 209.185 56.6725 204.239 70.5348 206.072C84.5882 207.924 98.7373 216.154 110.346 229.233C113.211 232.461 115.922 235.936 118.538 239.296C123.751 246.018 129.136 252.948 136.01 258.124C149.624 268.378 169.253 270.611 184.834 263.699C200.644 256.673 211.108 242.084 221.209 227.955C230.183 215.448 239.463 202.502 252.505 194.539C262.854 188.238 275.609 185.622 288.478 187.188C292.469 187.665 296.345 188.524 300.068 189.765Z" fill="white"/>
<path d="M302.111 129.579C297.49 131.183 292.526 131.966 287.485 131.966C281.737 131.966 275.895 130.934 270.318 128.873C259.798 124.997 250.021 117.397 242.785 107.449C240.551 104.355 238.527 101.033 236.579 97.825C234.402 94.2542 232.149 90.5499 229.59 87.1707C219.566 73.9572 204.386 65.1736 187.926 63.0736C176.736 61.6417 165.204 63.3029 154.034 64.8874C140.381 66.8348 126.27 68.8402 112.847 65.155C98.7935 61.2789 86.7258 51.0634 80.4438 37.9642C80.5582 37.8691 80.6917 37.7733 80.8258 37.6973C87.0694 50.7006 99.042 60.8587 112.98 64.6965C126.289 68.3625 140.361 66.3577 153.976 64.4104C165.166 62.8252 176.736 61.164 187.983 62.6157C204.558 64.7156 219.871 73.5759 229.972 86.8846C232.55 90.2836 234.803 93.9879 236.98 97.5772C238.928 100.785 240.933 104.088 243.185 107.162C250.345 117.034 260.045 124.596 270.471 128.433C280.878 132.272 292.22 132.5 302.015 129.121C302.054 129.274 302.073 129.427 302.111 129.579Z" fill="white"/>
<path d="M293.767 100.995C293.079 101.053 292.373 101.072 291.685 101.072C290.425 101.072 289.184 100.976 287.943 100.804C274.462 98.7995 265.316 86.3307 260.027 76.211C258.48 73.2514 257.01 70.1583 255.597 67.1604C251.607 58.6826 247.463 49.9373 240.856 43.2159C234.134 36.3611 225.18 31.9887 215.632 30.9189C204.061 29.6397 192.623 33.2105 181.568 36.6855C173.644 39.1489 165.471 41.7265 157.184 42.5472C145.785 43.6738 134.71 41.3446 125.965 35.9785C120.007 32.3125 115.195 27.214 112.006 21.4091C112.159 21.3325 112.312 21.2756 112.465 21.2373C115.615 26.9464 120.351 31.9683 126.213 35.5582C134.863 40.8854 145.842 43.1961 157.127 42.0695C165.376 41.2488 173.529 38.6897 181.434 36.2263C192.528 32.7321 204.022 29.1421 215.689 30.4597C225.332 31.5289 234.401 35.9395 241.199 42.871C247.863 49.6493 252.006 58.4521 256.035 66.949C257.448 69.9469 258.9 73.04 260.446 75.9996C265.697 86.005 274.728 98.3588 288.018 100.326C289.832 100.594 291.703 100.67 293.574 100.517C293.652 100.67 293.729 100.823 293.767 100.995Z" fill="white"/>
</g>
<path d="M281.379 302.66H219.73L198.673 295.107L120.786 302.66C120.786 302.66 118.784 192.383 130.858 173.072C139.607 159.075 166.293 144.667 180.338 137.779L191.277 140.166L233.305 123.195L234.467 122.237C240.852 125.816 287.967 153.259 301.097 190.38C315.175 230.213 281.379 302.66 281.379 302.66Z" fill="#417EE3"/>
<path d="M234.469 122.236C231.978 182.892 235.068 244.147 219.731 302.659H160.162C159.248 273.797 158.775 244.84 161.613 216.12C164.261 189.308 169.857 162.573 180.339 137.778C185.699 135.162 189.214 133.633 189.214 133.633L233.744 121.826C233.744 121.827 233.996 121.969 234.469 122.236Z" fill="#FFF5EE"/>
<path d="M222.634 18.8029C214.709 13.2247 204.897 10.3826 195.218 10.8616C186.574 11.2895 177.449 14.8654 173.184 22.3954C172.676 23.2908 172.216 24.2635 171.391 24.8779C170.653 25.4278 169.715 25.6188 168.809 25.7823C165.657 26.35 162.441 26.7633 159.469 27.9557C152.54 30.7358 147.662 37.9209 147.485 45.385C147.308 52.8492 151.759 60.1933 158.389 63.6268C162.794 65.9087 167.921 66.5206 172.864 66.1074C177.808 65.6941 182.616 64.305 187.33 62.7626C196.846 59.6498 206.34 55.7628 213.894 49.1934C218.416 45.2617 222.146 40.2801 224.303 34.6681C225.394 31.8292 226.039 28.8651 226.211 25.8289C226.41 22.3187 225.604 20.8945 222.634 18.8029Z" fill="#F05D6A"/>
<path d="M226.597 22.5782C228.311 22.4173 230.054 22.3068 231.742 22.6434C234.285 23.1511 236.551 24.6603 238.312 26.5635C241.258 29.7499 242.888 34.119 242.746 38.4569C242.707 39.6735 242.551 40.9713 243.135 42.0398C243.456 42.6255 243.968 43.077 244.438 43.5503C248.571 47.7042 249.793 54.1305 248.75 59.8964C247.708 65.6624 244.682 70.8771 241.277 75.6455C240.09 77.3086 238.56 79.0905 236.517 79.1301C235.259 79.155 234.098 78.492 233.058 77.785C225.34 72.5415 220.479 64.0146 217.063 55.3306C215.311 50.8778 213.873 46.3125 212.346 41.7799C211.165 38.2736 209.237 34.5335 208.944 30.7992C208.323 22.9046 221.193 23.0866 226.597 22.5782Z" fill="#F05D6A"/>
<path d="M233.744 90.4268V121.826C233.744 121.826 212.29 147.315 200.752 148.655C189.214 149.995 188.678 136.58 188.678 136.58L189.214 130.559L190.554 115.647L215.049 101.35C215.065 101.334 215.065 101.334 215.08 101.334L233.744 90.4268Z" fill="#FF899A"/>
<path d="M225.815 97.9619C224.317 106.017 222.425 114.245 217.917 121.102C213.409 127.959 205.733 133.272 197.536 132.814C194.636 132.656 191.845 131.79 189.213 130.56L190.553 115.649L215.048 101.351C215.064 101.335 215.064 101.335 215.08 101.335C218.69 100.153 222.315 99.0023 225.815 97.9619Z" fill="#401A49"/>
<path d="M225.815 97.9619C224.317 106.017 222.425 114.245 217.917 121.102C213.409 127.959 205.733 133.272 197.536 132.814C194.636 132.656 191.846 131.79 189.213 130.56L190.553 115.649L215.049 101.351C218.674 100.153 222.299 99.0023 225.815 97.9619Z" fill="#401A49"/>
<path d="M234.169 93.6274H233.617C233.601 94.2265 233.554 94.6991 233.476 94.9833C232.404 99.0184 222.205 116.72 204.503 121.827C186.801 126.919 179.819 121.291 172.047 105.986C164.261 90.6953 164.528 60.9191 164.528 60.9191C164.528 41.7985 179.362 26.3037 197.662 26.3037C200.484 26.3037 203.226 26.6818 205.843 27.3754C217.381 30.4334 226.508 39.8282 229.629 51.8078L229.723 51.7918C229.723 51.7918 229.755 52.0754 229.818 52.5487C230.448 55.2126 230.795 58.0023 230.795 60.8712C231.095 63.4878 231.441 66.4832 231.772 69.5878C231.788 69.7455 231.803 69.9186 231.819 70.0764C231.993 69.9506 232.15 69.8241 232.34 69.7296C232.434 69.651 232.545 69.5718 232.655 69.5086C237.069 66.8287 243.547 67.6801 247.125 71.3211C247.897 72.1093 248.528 72.9133 249.017 73.7328C254.425 82.7508 243.611 93.3279 234.169 93.6274Z" fill="#FF899A"/>
<path d="M235.733 84.3117C235.665 84.3117 235.595 84.3002 235.528 84.2746C235.222 84.1616 235.066 83.8212 235.179 83.5153C235.931 81.4836 236.918 79.7675 238.114 78.4155C239.534 76.8073 241.263 75.689 243.115 75.1793C243.434 75.0905 243.756 75.2777 243.841 75.5925C243.928 75.9068 243.743 76.2318 243.427 76.3187C241.799 76.7664 240.267 77.7621 238.999 79.1978C237.9 80.4407 236.988 82.031 236.287 83.924C236.199 84.1648 235.973 84.3117 235.733 84.3117Z" fill="#401A49"/>
<path d="M198.557 73.425C198.757 75.5684 200.363 77.1709 202.143 77.0042C203.923 76.8375 205.203 74.9649 205.002 72.8215C204.802 70.6781 203.196 69.0757 201.416 69.2424C199.636 69.4097 198.356 71.2817 198.557 73.425Z" fill="#401A49"/>
<path d="M171.457 75.9621C171.658 78.1055 173.263 79.708 175.043 79.5413C176.823 79.3746 178.104 77.502 177.903 75.3586C177.701 73.2152 176.097 71.6128 174.317 71.7795C172.537 71.9468 171.257 73.8194 171.457 75.9621Z" fill="#401A49"/>
<path d="M185.061 92.8123C184.968 92.8123 184.873 92.8098 184.779 92.806C183.459 92.7485 181.947 92.0715 181.546 90.6868C181.345 89.9901 181.483 89.2696 181.583 88.7427C181.88 87.1888 182.216 85.633 182.553 84.0753C183.729 78.6325 184.945 73.0046 184.378 67.4647C184.344 67.1397 184.581 66.8491 184.905 66.8165C185.228 66.7839 185.521 67.0196 185.553 67.344C186.14 73.071 184.904 78.7922 183.708 84.325C183.374 85.8725 183.04 87.4194 182.745 88.9643C182.643 89.4944 182.568 89.9651 182.682 90.3579C182.918 91.1742 183.961 91.5867 184.83 91.6244C185.37 91.6468 185.904 91.5842 186.474 91.5165C187.035 91.4501 187.609 91.3811 188.208 91.3977C188.533 91.4066 188.792 91.6787 188.783 92.0051C188.774 92.3308 188.518 92.5511 188.175 92.5799C187.671 92.5703 187.157 92.6259 186.614 92.6904C186.11 92.751 185.592 92.8123 185.061 92.8123Z" fill="#401A49"/>
<path d="M205.253 61.3691C206.723 60.998 206.871 58.8898 205.444 58.3763C203.934 57.8334 202.261 57.6846 200.667 57.9069C199.358 58.0889 198.149 58.4536 197.008 58.9715C195.511 59.6504 195.98 61.8705 197.62 61.9816C199.428 62.1036 201.238 62.0167 203.153 61.7817C203.758 61.707 204.496 61.5601 205.253 61.3691Z" fill="#401A49"/>
<path d="M170.773 65.0173C169.194 65.0518 168.534 63.017 169.837 62.1241C171.133 61.2357 172.675 60.6711 174.238 60.4687C175.548 60.2994 176.811 60.332 178.048 60.53C179.672 60.7906 179.804 63.0553 178.251 63.595C176.54 64.1889 174.771 64.583 172.862 64.8615C172.27 64.9483 171.537 65.0007 170.773 65.0173Z" fill="#401A49"/>
<path d="M189.353 98.3396C188.12 98.3396 186.886 97.9169 185.94 97.1153C185.691 96.9046 185.661 96.5316 185.873 96.2825C186.082 96.0334 186.456 96.0015 186.706 96.2148C187.848 97.1843 189.543 97.4378 190.918 96.8426C192.295 96.2499 193.273 94.8455 193.353 93.3478C193.371 93.0221 193.622 92.7762 193.976 92.7896C194.301 92.8068 194.551 93.0859 194.534 93.4117C194.43 95.3468 193.164 97.1619 191.386 97.9283C190.744 98.2055 190.05 98.3396 189.353 98.3396Z" fill="#401A49"/>
<path d="M232.656 69.5098C232.609 69.5883 232.546 69.6828 232.483 69.762C232.436 69.7461 232.388 69.7461 232.341 69.7307C232.435 69.6516 232.546 69.573 232.656 69.5098Z" fill="#F05D6A"/>
<path d="M230.796 60.8712C230.796 58.0022 230.449 55.2125 229.818 52.5486C229.755 52.0754 229.724 51.7918 229.724 51.7918L229.629 51.8078C227.842 44.9446 224.076 38.9379 219.022 34.4774C219.105 33.1713 219.085 31.862 218.831 30.5809C217.907 25.9141 213.983 22.1351 209.415 20.8079C204.846 19.4814 198.372 22.167 194.234 24.5122C194.085 30.2698 195.745 36.1271 199.236 40.7083C202.465 44.9465 207.305 47.9783 212.554 48.8086C212.721 48.8635 212.876 48.9408 213.048 48.9861C213.615 54.1249 215.727 58.3963 219.211 62.2271C222.536 65.8841 226.982 68.4848 231.774 69.5884C231.442 66.4825 231.095 63.4878 230.796 60.8712Z" fill="#F05D6A"/>
<path d="M18.8371 205.263L47.8142 303.463H203.432L174.991 200.434C174.991 200.434 18.3006 205.263 18.8371 205.263Z" fill="#401A49"/>
<path d="M85.8701 241.315C84.3801 243.607 83.8525 246.382 83.523 249.096C83.1628 252.06 83.0223 255.178 84.2102 257.917C86.047 262.148 90.6844 264.528 95.2292 265.318C101.658 266.435 108.784 264.786 113.26 260.039C117.737 255.292 118.786 247.278 114.779 242.128C108.456 234 91.9554 231.955 85.8701 241.315Z" fill="#FFF5EE"/>
<path d="M127.547 110.333L134.711 184.943C134.878 186.68 136.424 187.951 138.161 187.778L175.119 184.105C176.834 183.935 178.094 182.419 177.949 180.702L171.762 107.696C171.618 105.998 170.151 104.722 168.448 104.814L130.513 106.884C128.724 106.982 127.375 108.549 127.547 110.333Z" fill="#401A49"/>
<path d="M158.264 115.058C157.834 115.058 157.425 114.904 157.097 114.617C156.726 114.291 156.512 113.839 156.496 113.345L156.422 111.173C156.39 110.207 157.118 109.405 158.082 109.343L166.564 108.806C167.54 108.742 168.381 109.484 168.445 110.456L168.572 112.344C168.636 113.307 167.934 114.134 166.973 114.227L158.439 115.051C158.38 115.055 158.322 115.058 158.264 115.058ZM158.106 109.735C157.357 109.783 156.791 110.409 156.816 111.16L156.889 113.331C156.903 113.715 157.069 114.066 157.358 114.32C157.648 114.576 158.023 114.698 158.4 114.657L166.934 113.833C167.682 113.761 168.229 113.118 168.178 112.369L168.053 110.482C168.001 109.726 167.355 109.143 166.589 109.198L158.106 109.735Z" fill="#FFF5EE"/>
<path d="M227.646 168.751C227.646 168.751 212.436 157.765 202.491 152.722C192.546 147.679 152.766 132.191 151.401 136.334C150.036 140.476 179.481 152.362 179.481 152.362C179.481 152.362 149.451 144.078 147.891 147.859C146.331 151.641 175.971 162.267 175.971 162.267C175.971 162.267 145.941 158.485 145.746 162.987C145.551 167.49 177.531 173.133 177.531 173.133C177.531 173.133 157.931 177.718 158.811 180.697C159.591 183.338 184.356 180.637 184.356 180.637C184.356 180.637 206.586 184.599 212.826 188.561L227.646 168.751Z" fill="#FF899A"/>
<path d="M228.25 160.993L295.863 261.608C295.863 261.608 278.557 300.646 249.58 296.622C220.603 292.598 200.48 196.008 200.48 196.008L227.848 161.396" fill="#417EE3"/>
<path d="M259.87 295.961C257.856 295.961 255.898 295.717 254.035 295.221C241.682 291.931 232.143 281.255 226.041 273.511C225.839 273.255 225.884 272.884 226.14 272.681C226.396 272.48 226.769 272.522 226.97 272.779C236.5 284.877 245.196 291.644 254.34 294.079C260.723 295.777 268.337 294.354 275.235 290.172C282.474 285.783 287.713 279.068 289.249 272.211C289.321 271.891 289.638 271.691 289.955 271.764C290.274 271.836 290.474 272.151 290.402 272.47C288.797 279.634 283.356 286.63 275.848 291.183C270.673 294.321 265.091 295.961 259.87 295.961Z" fill="#401A49"/>
<path d="M279.631 240.734C279.436 240.734 279.246 240.638 279.134 240.463L228.155 161.313C227.978 161.039 228.058 160.673 228.332 160.496C228.606 160.318 228.973 160.399 229.15 160.673L280.128 239.822C280.305 240.097 280.225 240.463 279.951 240.64C279.851 240.704 279.741 240.734 279.631 240.734Z" fill="#401A49"/>
<path d="M314.834 101.392C322.791 86.5541 317.213 68.0748 302.375 60.1175C287.536 52.1603 269.057 57.7385 261.1 72.5768C253.905 85.994 257.805 102.361 269.582 111.261L263.876 121.902L273.452 127.038L279.26 116.207C292.848 120.271 307.871 114.378 314.834 101.392Z" fill="#FFA766"/>
<path d="M273.905 123.519C273.553 122.009 274.09 120.233 275.545 118.089C276.979 115.977 278.619 114.14 280.42 112.627C282.168 111.16 284.117 109.962 286.002 108.804C287.026 108.175 288.085 107.524 289.098 106.839C292.634 104.445 294.908 101.946 296.049 99.1999C296.627 97.8095 296.931 96.2952 296.931 94.8192C296.931 93.5304 296.697 92.4383 296.234 91.5729C295.088 89.4327 292.229 88.4964 289.584 89.3924C288.807 89.6556 288.042 90.0618 287.306 90.5938C287.18 92.4217 286.674 94.2246 286.133 95.9165C285.606 97.5713 284.786 99.5499 283.117 100.163C282.719 100.309 282.396 100.298 282.157 100.131C281.907 99.9567 281.781 99.6316 281.771 99.1386C281.746 97.7859 282.212 96.354 283.238 94.6315C284.296 92.8572 285.558 91.4119 286.925 90.3869C286.934 90.2036 286.94 90.0203 286.942 89.8363C286.962 87.6546 286.291 85.7265 285.102 84.5443C284.379 83.8245 283.385 83.2963 282.23 83.0166C279.707 82.4022 276.91 83.1737 275.114 84.9869C273.52 86.5938 272.525 89.091 272.16 92.4108C271.836 95.3532 271.936 98.4724 272.475 102.228C272.534 102.638 272.597 103.049 272.661 103.46C272.995 105.645 273.341 107.905 273.075 110.182C272.701 113.377 271.135 116.643 268.418 119.89L268.116 119.638C270.783 116.45 272.319 113.253 272.684 110.136C272.943 107.912 272.602 105.679 272.272 103.52C272.208 103.108 272.146 102.696 272.086 102.284C271.55 98.5465 271.447 95.3034 271.77 92.3687C272.144 88.9582 273.175 86.3811 274.835 84.7091C276.728 82.8026 279.67 81.9915 282.324 82.634C283.549 82.9304 284.606 83.4943 285.382 84.2652C286.644 85.5221 287.356 87.5543 287.337 89.8408C287.337 89.9257 287.335 90.012 287.332 90.0969C288.022 89.6288 288.735 89.266 289.459 89.0201C292.282 88.0627 295.347 89.0789 296.582 91.3883C297.076 92.3112 297.327 93.4665 297.327 94.8212C297.327 96.3482 297.011 97.9155 296.415 99.3525C295.244 102.172 292.923 104.728 289.321 107.167C288.3 107.858 287.238 108.51 286.21 109.143C284.337 110.292 282.402 111.482 280.675 112.931C278.902 114.42 277.286 116.231 275.872 118.312C274.482 120.359 273.964 122.034 274.289 123.43L273.905 123.519ZM286.884 90.915C285.665 91.8928 284.537 93.2226 283.577 94.8327C282.59 96.4894 282.142 97.8548 282.166 99.1309C282.174 99.4886 282.244 99.7108 282.384 99.8079C282.541 99.9184 282.796 99.8622 282.982 99.7926C284.491 99.2388 285.258 97.3663 285.759 95.7964C286.256 94.2368 286.725 92.5845 286.884 90.915Z" fill="#FFF5EE"/>
<path d="M266.035 117.237L276.15 122.433L272.207 130.502C271.805 131.323 270.792 131.632 270 131.174L262.299 126.71C261.542 126.271 261.287 125.301 261.731 124.546L266.035 117.237Z" fill="#8F8FEF"/>
<path d="M263.064 126.681L262.439 128.325C262.156 129.065 262.469 129.9 263.167 130.274L267.179 132.427C267.806 132.763 268.579 132.638 269.069 132.122L270.608 130.497L263.064 126.681Z" fill="#8F8FEF"/>
<path d="M308.886 88.6507C309.162 89.3762 309.579 90.1305 310.304 90.4077C310.84 90.6127 311.448 90.5131 311.984 90.3106C313.449 89.7582 314.564 88.4751 315.153 87.024C316.148 84.5709 316.279 77.4465 311.995 77.7486C307.683 78.0532 307.848 85.9191 308.886 88.6507Z" fill="#FFF5EE"/>
<path d="M306.905 95.4904C306.727 95.9662 306.619 96.4784 306.68 96.983C306.821 98.1601 307.946 99.1015 309.131 99.143C311.593 99.2286 313.041 96.1725 311.874 94.1486C310.494 91.7561 307.653 93.4901 306.905 95.4904Z" fill="#FFF5EE"/>
<path d="M215.162 197.095C201.961 188.347 184.169 191.957 175.421 205.158C170.912 211.963 169.71 219.983 171.39 227.36L159.957 234.205L174.791 235.788C176.918 239.322 179.816 242.467 183.483 244.897C196.683 253.645 214.476 250.036 223.223 236.835C231.971 223.635 228.362 205.843 215.162 197.095Z" fill="#F05D6A"/>
<path d="M198.117 236.922C198.062 236.922 198.006 236.908 197.951 236.885C197.855 236.843 197.792 236.759 197.762 236.66C197.631 236.527 197.396 236.304 197.079 236.004C185.237 224.772 181.509 216.339 185.999 210.94C187.157 209.548 188.537 208.842 190.101 208.842C190.11 208.842 190.119 208.842 190.128 208.842C193.71 208.86 197.343 212.628 198.985 214.58C200.392 213.203 204.758 209.254 208.677 209.628C210.285 209.777 211.622 210.629 212.648 212.162C216.692 218.2 212.213 226.235 199.335 236.044C198.935 236.348 198.647 236.567 198.503 236.689C198.457 236.77 198.389 236.838 198.308 236.867C198.301 236.869 198.294 236.871 198.287 236.873C198.235 236.906 198.177 236.922 198.117 236.922ZM190.101 209.611C188.776 209.611 187.595 210.224 186.589 211.432C183.713 214.891 183.291 221.864 197.608 235.444C197.834 235.659 198.022 235.837 198.162 235.974C198.328 235.842 198.562 235.664 198.868 235.431C211.364 225.914 215.785 218.228 212.008 212.59C211.117 211.26 209.972 210.521 208.606 210.395C204.719 210.019 200.114 214.517 199.232 215.419C199.155 215.497 199.053 215.54 198.94 215.535C198.83 215.53 198.728 215.479 198.659 215.393C197.247 213.661 193.59 209.629 190.122 209.611C190.116 209.611 190.108 209.611 190.101 209.611Z" fill="#401A49"/>
<path d="M110.76 69.883C97.0776 61.6205 79.0511 66.0082 70.4973 79.6828C61.9436 93.3574 66.1007 111.141 79.783 119.403C90.4405 125.839 103.715 124.57 113.113 117.246L125.994 120.918L118.843 111.328C119.254 110.763 119.67 110.204 120.045 109.603C128.599 95.9287 124.442 78.1448 110.76 69.883Z" fill="#417EE3"/>
<path d="M97.0949 110.122C96.9812 110.122 96.8707 110.067 96.8011 109.97L86.0235 94.9112C85.9418 94.7981 85.9335 94.6474 86.0005 94.5254C86.0171 94.496 87.6266 91.5307 86.415 89.1318C86.18 88.6675 85.8658 88.1042 85.5183 87.4808C83.8201 84.4331 81.4934 80.2587 83.1725 78.5624C85.0502 76.6643 92.6651 83.5632 94.7331 85.508C96.3879 84.0684 102.032 79.3186 103.74 79.9701C105.01 80.4542 105.517 82.2955 105.887 83.6399C106.026 84.1425 106.215 84.8304 106.347 84.9485C106.48 85.0679 106.837 85.2423 107.215 85.4275C108.333 85.9755 110.022 86.8026 110.692 88.3233C111.121 89.294 111.308 90.526 111.489 91.7184C111.673 92.93 111.846 94.0758 112.238 94.5567C112.99 95.4802 115.282 98.2923 113.823 100.644C112.529 102.726 98.811 109.339 97.2514 110.087C97.2016 110.11 97.1485 110.122 97.0949 110.122ZM86.7401 94.6697L97.2124 109.302C101.587 107.196 112.229 101.839 113.209 100.263C114.395 98.3498 112.349 95.8391 111.676 95.014C111.16 94.3804 110.981 93.197 110.773 91.827C110.6 90.6825 110.42 89.4991 110.031 88.6158C109.467 87.3378 107.92 86.5803 106.897 86.079C106.435 85.8529 106.071 85.6753 105.863 85.4888C105.587 85.2404 105.434 84.725 105.189 83.834C104.861 82.6384 104.409 81.0015 103.482 80.6477C102.449 80.2702 97.8811 83.698 94.963 86.2699C94.8219 86.3926 94.6111 86.3887 94.4744 86.2604C90.6456 82.6199 84.7743 77.9825 83.6866 79.0734C82.3901 80.3826 84.7449 84.6062 86.1513 87.1302C86.5032 87.7631 86.8225 88.3354 87.0601 88.8074C88.264 91.1864 87.115 93.9033 86.7401 94.6697Z" fill="#401A49"/>
<path d="M86.3173 94.7012L79.0441 99.6675L89.4666 114.805L97.0949 109.76L86.3173 94.7012Z" fill="#401A49"/>
<path d="M9.59353 163.449L9.6261 149.173C9.63568 145.032 12.7422 141.682 16.571 141.682L101.776 141.688C105.726 141.688 108.88 145.247 108.713 149.515L108.091 165.418C107.932 169.49 104.798 172.681 101.029 172.609L75.5562 172.117L76.6477 198.019L68.048 171.973L16.4152 170.976C12.6208 170.903 9.58395 167.552 9.59353 163.449Z" fill="#FFF5EE"/>
<path d="M76.9926 154.793C76.3194 155.593 75.9669 156.699 76.1144 157.855C76.3782 159.924 78.1428 161.37 80.0563 161.084C81.9698 160.799 83.3065 158.891 83.0427 156.822C82.779 154.753 81.0143 153.307 79.1008 153.593C78.2565 153.718 77.524 154.16 76.9926 154.793Z" fill="#401A49"/>
<path d="M55.0401 154.195C54.3663 154.996 54.0144 156.102 54.1619 157.258C54.4257 159.326 56.1904 160.772 58.1038 160.488C60.0166 160.202 61.354 158.294 61.0903 156.225C60.8265 154.156 59.0618 152.71 57.1484 152.996C56.3041 153.121 55.5721 153.563 55.0401 154.195Z" fill="#401A49"/>
<path d="M35.7056 153.853C35.0318 154.654 34.6799 155.76 34.8275 156.916C35.0912 158.984 36.8565 160.43 38.7694 160.145C40.6828 159.859 42.0196 157.951 41.7558 155.882C41.492 153.814 39.7267 152.368 37.8139 152.653C36.9689 152.779 36.237 153.221 35.7056 153.853Z" fill="#401A49"/>
</svg>
