<svg width="512" height="512" viewBox="0 0 512 512" fill="none" xmlns="http://www.w3.org/2000/svg">
<g clip-path="url(#clip0_2980_16232)">
<path d="M171.676 484.578C166.565 484.578 161.672 481.911 158.961 477.306C158.747 476.946 154.123 469.049 147.346 454.651C145.049 453.383 142.777 452.075 140.53 450.728C139.113 451.165 137.649 451.383 136.184 451.383C133.466 451.383 130.758 450.632 128.379 449.148L97.9 430.138C93.667 427.499 91.058 422.902 90.957 417.915C90.914 415.713 91.363 413.569 92.232 411.618C76.307 394.5 63.04 374.818 53.213 353.702H21.968C16.021 353.702 10.895 350.183 8.562 345.114C3.508 342.774 0 337.657 0 331.72V107.015C0 98.8689 6.605 92.2639 14.751 92.2639H109.712C133.975 71.3649 162.641 55.8949 193.375 47.0909C194.654 42.5699 198.023 38.9079 202.467 37.2699C204.124 36.6599 205.85 36.3609 207.564 36.3609C210.762 36.3609 213.924 37.3999 216.536 39.4019L219.086 41.3559C230.872 39.4529 242.763 38.4919 254.53 38.4919C273.511 38.4919 292.322 40.8999 310.583 45.6589C323.07 34.1049 339.78 27.4219 356.955 27.4219C367.264 27.4219 377.223 29.7129 386.558 34.2339C416.874 48.9149 431.452 83.5959 422.069 114.976C457.189 155.373 476.422 206.644 476.422 260.383C476.422 286.226 472.021 311.468 463.328 335.561C514.231 384.092 512.478 401.863 511.799 408.744C511.04 416.444 506.959 422.916 500.308 426.969C496.248 429.447 491.809 430.707 487.122 430.707C487.12 430.707 487.117 430.707 487.117 430.707C475.903 430.705 460.547 424.947 438.101 385.026C436.382 387.564 434.617 390.053 432.807 392.49C432.773 392.538 432.737 392.586 432.704 392.634C390.975 448.764 324.368 482.275 254.529 482.275C236.283 482.275 218.07 480.013 200.315 475.545L176.484 483.768C174.903 484.316 173.277 484.578 171.676 484.578Z" fill="white"/>
<path d="M254.53 465.012C368.93 465.012 461.67 372.273 461.67 257.872C461.67 143.472 368.93 50.7324 254.53 50.7324C140.13 50.7324 47.39 143.472 47.39 257.872C47.39 372.273 140.13 465.012 254.53 465.012Z" fill="#417EE3"/>
<path d="M102 144.678C102 144.678 104.511 268.334 124.597 344.913C144.683 421.492 171.674 467.314 171.674 467.314L420.87 381.32C420.87 381.32 376.304 329.221 359.356 252.642C342.408 176.063 338.642 107.016 338.642 107.016L102 142.167" fill="#FDF3EA"/>
<path d="M127.108 169.158L128.943 183.595L319.183 148.444L317.348 134.635L127.108 169.158Z" fill="#FFB4DC"/>
<path d="M131.083 200.124L131.92 214.77L321.164 179.006L319.206 165.404L131.083 200.124Z" fill="#FFB4DC"/>
<path d="M134.086 230.569L135.997 245.172L323.049 208.246L321.143 194.278L134.086 230.569Z" fill="#FFB4DC"/>
<path d="M139.749 265.804L141.334 278.442L296.045 246.537L294.464 234.448L139.749 265.804Z" fill="#FFB4DC"/>
<path d="M144.143 294.05L145.728 306.689L300.439 274.783L298.858 262.695L144.143 294.05Z" fill="#FFB4DC"/>
<path d="M381.953 378.808L370.173 383.91L344.211 393.055L330.838 397.751L304.605 406.995L285.872 413.608L260.009 422.704L233.26 432.12L207.594 441.167L192.388 446.599L173.825 395.769L152.216 340.205L344.925 286.529L381.953 378.808Z" fill="#FFD484"/>
<path d="M233.26 432.12L207.594 441.167L183.402 363.332L207.668 354.531L233.26 432.12Z" fill="#0060FF"/>
<path d="M285.872 413.609L260.009 422.705L229.843 334.864L257.452 326.505L285.872 413.609Z" fill="#FFB4DC"/>
<path d="M330.838 397.751L304.605 406.995L282.577 342.828L310.186 334.445L330.838 397.751Z" fill="#FDF3EA"/>
<path d="M492.63 411.864C471.979 424.476 441.321 358.22 431.906 336.29C431.635 335.675 431.39 335.11 431.168 334.594C431.168 334.545 431.143 334.52 431.119 334.496C429.767 331.3 429.03 329.431 429.03 329.431L433.209 325.67C433.209 325.67 434.635 326.875 437.069 329.013C437.118 329.062 437.168 329.112 437.241 329.136C438.937 330.66 441.126 332.603 443.658 334.889C465.365 354.63 511.831 400.161 492.63 411.864Z" fill="#FFB4DC"/>
<g opacity="0.41">
<path d="M443.657 334.889C439.92 335.897 435.962 336.167 431.906 336.29C431.635 335.675 431.39 335.11 431.168 334.594C431.045 334.668 430.922 334.742 430.799 334.766C430.897 334.692 431.02 334.594 431.119 334.496C433.209 332.799 435.2 330.98 437.068 329.013C437.289 328.792 437.486 328.57 437.707 328.349C437.56 328.619 437.412 328.89 437.24 329.135C438.937 330.66 441.125 332.602 443.657 334.889Z" fill="#B8B9FD"/>
</g>
<path d="M439.502 321.269C439.502 323.826 438.863 326.235 437.707 328.325V328.35C437.56 328.62 437.412 328.891 437.24 329.136C435.765 331.496 433.675 333.389 431.168 334.594C431.045 334.668 430.922 334.742 430.799 334.766C428.931 335.651 426.841 336.118 424.628 336.118C416.441 336.118 409.779 329.48 409.779 321.269C409.779 313.058 416.441 306.42 424.628 306.42C432.84 306.419 439.502 313.057 439.502 321.269Z" fill="#FFB4DC"/>
<path d="M371.91 336.754C420.097 336.754 459.16 297.691 459.16 249.504C459.16 201.317 420.097 162.254 371.91 162.254C323.723 162.254 284.66 201.317 284.66 249.504C284.66 297.691 323.723 336.754 371.91 336.754Z" fill="#B8B9FD"/>
<path d="M371.91 328.904C328.129 328.904 292.51 293.285 292.51 249.504C292.51 205.723 328.129 170.104 371.91 170.104C415.691 170.104 451.31 205.723 451.31 249.504C451.31 293.285 415.691 328.904 371.91 328.904ZM371.91 170.724C328.47 170.724 293.13 206.064 293.13 249.504C293.13 292.944 328.47 328.284 371.91 328.284C415.35 328.284 450.69 292.944 450.69 249.504C450.69 206.064 415.351 170.724 371.91 170.724Z" fill="#FFB4DC"/>
<path d="M448.5 249.825C448.5 271.435 439.404 290.906 424.8 304.649C411.327 317.359 393.159 325.153 373.172 325.153C331.574 325.153 297.844 291.423 297.844 249.825C297.844 241.933 299.049 234.336 301.311 227.207C310.899 196.648 339.466 174.497 373.172 174.497C414.77 174.497 448.5 208.228 448.5 249.825Z" fill="#FDF3EA"/>
<path d="M375.797 191.445C375.461 196.792 378.029 202.031 381.779 205.858C385.529 209.685 390.367 212.263 395.305 214.34C399.949 216.293 404.875 217.877 409.911 217.738C413.286 217.645 417.02 216.473 418.557 213.466C419.376 211.865 419.437 209.981 419.255 208.192C418.495 200.703 413.775 194.032 407.784 189.474C399.02 182.808 377.024 171.872 375.797 191.445Z" fill="white"/>
<path d="M346.447 313.386C350.844 317.832 357.641 318.954 363.88 318.542C365.344 318.445 366.859 318.259 368.108 317.488C370.182 316.207 371.06 313.49 370.661 311.085C370.262 308.68 368.79 306.573 367.05 304.867C362.447 300.353 354.128 297.395 347.773 299.624C341.695 301.754 342.534 309.429 346.447 313.386Z" fill="white"/>
<g opacity="0.11">
<path d="M424.801 304.649C411.328 317.359 393.16 325.153 373.173 325.153C331.575 325.153 297.845 291.423 297.845 249.825C297.845 241.933 299.05 234.336 301.312 227.207C306.278 244.342 316.972 260.028 330.592 271.73C350.137 288.521 375.164 297.888 400.536 302.338C408.501 303.74 416.688 304.674 424.801 304.649Z" fill="#B8B9FD"/>
</g>
<path d="M259.866 111.724H21.969V336.439H259.866V111.724Z" fill="#B8B9FD"/>
<path d="M252.658 104.504V155.346L223.146 214.771L252.658 276.18V329.209H14.751V275.443L53.182 209.041L14.751 155.346V104.504H252.658Z" fill="#FDF3EA"/>
<path d="M48.646 144.051C56.9662 144.051 63.711 137.306 63.711 128.986C63.711 120.666 56.9662 113.921 48.646 113.921C40.3258 113.921 33.581 120.666 33.581 128.986C33.581 137.306 40.3258 144.051 48.646 144.051Z" fill="#FFB4DC"/>
<path d="M176.277 119.361H84.215V126.057H176.277V119.361Z" fill="#FFB4DC"/>
<path d="M143.009 130.869H84.215V134.217H143.009V130.869Z" fill="#FFB4DC"/>
<path d="M143.009 137.773H84.215V141.121H143.009V137.773Z" fill="#FFB4DC"/>
<path d="M252.658 155.346H14.751V275.443H252.658V155.346Z" fill="#FFB4DC"/>
<path d="M201.385 259.657H37.722L85.752 181.538C90.326 174.142 101.049 173.964 105.831 181.271L144.593 240.439L171.742 216.261C178.336 210.409 188.791 213.528 191.108 222.023L201.385 259.657Z" fill="#FDF3EA"/>
<path d="M201.385 205.145C211.785 205.145 220.216 196.714 220.216 186.314C220.216 175.914 211.785 167.483 201.385 167.483C190.985 167.483 182.554 175.914 182.554 186.314C182.554 196.714 190.985 205.145 201.385 205.145Z" fill="#FDF3EA"/>
<path d="M48.293 313.551C48.241 313.551 48.192 313.542 48.143 313.52C48.056 313.485 47.983 313.424 47.936 313.349C45.919 311.571 31.831 298.809 36.2 292.82C37.264 291.362 38.577 290.589 40.106 290.523C40.174 290.521 40.245 290.518 40.315 290.518C43.558 290.518 46.809 293.693 47.955 294.936C49.101 293.694 52.354 290.518 55.597 290.518C55.665 290.518 55.736 290.52 55.806 290.523C57.333 290.589 58.648 291.361 59.712 292.82C59.712 292.822 59.712 292.822 59.712 292.822C64.095 298.834 50.505 311.674 48.666 313.365C48.626 313.424 48.572 313.473 48.509 313.504C48.443 313.535 48.375 313.551 48.307 313.551C48.307 313.551 48.302 313.551 48.293 313.551ZM40.321 291.345C40.26 291.345 40.199 291.345 40.14 291.347C38.876 291.401 37.775 292.061 36.866 293.308C33.66 297.702 42.803 307.696 48.306 312.576C53.565 307.696 62.252 297.712 59.044 293.305V293.307C58.135 292.06 57.034 291.4 55.77 291.346C55.709 291.344 55.65 291.344 55.589 291.344C52.331 291.344 48.926 295.064 48.266 295.823C48.106 296.006 47.801 296.006 47.641 295.823C46.982 295.065 43.577 291.345 40.321 291.345Z" fill="#B8B9FD"/>
<path d="M91.911 313.637C91.845 313.637 91.777 313.621 91.716 313.588L88.419 311.815C83.172 314.342 76.742 312.686 73.371 307.902C69.554 302.484 70.86 294.968 76.281 291.149C78.904 289.301 82.089 288.587 85.26 289.134C88.424 289.684 91.183 291.433 93.034 294.059C96.564 299.071 95.787 305.835 91.256 309.905L92.303 313.094C92.355 313.254 92.305 313.432 92.176 313.54C92.099 313.604 92.005 313.637 91.911 313.637ZM88.426 310.936C88.494 310.936 88.56 310.952 88.621 310.985L91.197 312.371L90.387 309.905C90.335 309.745 90.385 309.572 90.511 309.463C94.901 305.691 95.694 299.272 92.357 294.533C90.635 292.088 88.064 290.458 85.116 289.946C82.173 289.429 79.2 290.101 76.755 291.825C74.31 293.547 72.682 296.118 72.17 299.066C71.658 302.011 72.323 304.982 74.047 307.427C77.222 311.936 83.324 313.47 88.24 310.98C88.299 310.953 88.363 310.936 88.426 310.936Z" fill="#B8B9FD"/>
<path d="M116.142 313.104C116.104 313.104 116.067 313.099 116.029 313.088C115.869 313.043 115.754 312.907 115.733 312.743L114.338 301.93L106.31 294.252C106.19 294.139 106.15 293.968 106.207 293.813C106.263 293.66 106.404 293.552 106.566 293.543L132.727 291.774C132.891 291.718 133.046 291.849 133.122 291.995C133.197 292.141 133.178 292.317 133.075 292.446L116.461 312.952C116.384 313.048 116.264 313.104 116.142 313.104ZM107.556 294.301L115.013 301.434C115.081 301.5 115.126 301.587 115.137 301.681L116.429 311.684L131.841 292.66L107.556 294.301Z" fill="#B8B9FD"/>
<path d="M404.859 116.181C417.686 89.6948 406.612 57.8258 380.127 44.9998C353.641 32.1738 321.772 43.2458 308.946 69.7318C296.882 94.6418 305.963 124.309 329.12 138.423L310.479 157.321L340.952 143.799C365.753 151.612 393.189 140.28 404.859 116.181Z" fill="#EE4D89"/>
<path d="M330.466 74.738C340.708 60.692 356.882 78.24 359.309 81.022C361.736 78.24 377.909 60.692 388.152 74.738C398.929 89.519 360.66 123.434 358.462 125.362C358.461 125.409 358.461 125.456 358.461 125.456C358.461 125.456 358.425 125.424 358.41 125.409C358.393 125.423 358.356 125.456 358.356 125.456C358.356 125.456 358.357 125.409 358.358 125.362C356.24 123.418 319.692 89.515 330.466 74.738Z" fill="#FDF3EA"/>
<path d="M198.464 91.0726L207.566 48.6016L236.082 70.4436L198.464 91.0726Z" fill="#B8B9FD"/>
<path d="M141.173 390.975L136.183 434.123L105.705 415.113L141.173 390.975Z" fill="#B8B9FD"/>
<path d="M415.728 149.293C415.728 153.915 411.981 157.662 407.359 157.662C402.737 157.662 398.99 153.915 398.99 149.293C398.99 144.671 402.737 140.924 407.359 140.924C411.981 140.923 415.728 144.67 415.728 149.293Z" fill="#FFD484"/>
<path d="M286.79 84.4012C286.79 89.0232 283.043 92.7702 278.421 92.7702C273.799 92.7702 270.052 89.0232 270.052 84.4012C270.052 79.7792 273.799 76.0322 278.421 76.0322C283.044 76.0322 286.79 79.7792 286.79 84.4012Z" fill="#FDF3EA"/>
<path d="M331.565 436.946C331.565 441.568 327.818 445.315 323.196 445.315C318.574 445.315 314.827 441.568 314.827 436.946C314.827 432.324 318.574 428.577 323.196 428.577C327.818 428.577 331.565 432.324 331.565 436.946Z" fill="#FFD484"/>
<path d="M101.364 358.96C101.364 363.582 97.617 367.329 92.995 367.329C88.373 367.329 84.626 363.582 84.626 358.96C84.626 354.338 88.373 350.591 92.995 350.591C97.616 350.591 101.364 354.338 101.364 358.96Z" fill="#FFD484"/>
</g>
<defs>
<clipPath id="clip0_2980_16232">
<rect width="512" height="512" fill="white"/>
</clipPath>
</defs>
</svg>
