<svg width="555" height="555" viewBox="0 0 555 555" fill="none" xmlns="http://www.w3.org/2000/svg">
<path d="M272.379 547.518C273.647 547.518 274.913 547.369 276.152 547.072L290.844 543.544C292.979 543.607 295.113 543.639 297.247 543.639C309.028 543.639 320.929 542.826 332.622 541.225C359.322 537.555 385.111 529.763 409.282 518.061C410.436 517.524 411.559 516.967 412.654 516.404C413.235 516.114 413.967 515.746 414.667 515.38C439.794 502.537 462.656 485.591 482.498 465.078C528.613 417.736 555.328 351.962 554.997 285.889C554.997 243.333 544.401 201.159 524.355 163.925C508.89 135.148 488.341 109.838 463.281 88.7061C463.035 88.4958 462.794 88.2974 462.558 88.1066C451.03 78.4592 438.605 69.7896 425.597 62.3199C425.28 62.1204 424.964 61.9318 424.645 61.7497C403.397 49.6373 380.598 40.6609 356.827 35.0373C356.827 35.0373 356.253 34.8931 356.142 34.866C336.99 30.3859 317.175 28.1128 297.248 28.1128C285.204 28.1128 273.153 28.9561 261.232 30.6276V23.6414C261.232 14.717 253.997 7.48145 245.072 7.48145H108.917C99.9926 7.48145 92.7571 14.717 92.7571 23.6414V128.938C71.2975 156.915 55.5983 189.348 47.1422 223.296C43.3233 238.628 40.9061 254.482 39.9543 270.426C39.9066 270.905 39.8752 271.357 39.86 271.82C39.8579 271.876 39.8546 271.931 39.8524 271.986L17.6353 269.953C17.1431 269.905 16.651 269.884 16.1599 269.884C11.6701 269.884 7.3537 271.757 4.28168 275.092C0.870422 278.789 -0.621094 283.863 0.241699 288.818L35.1816 489.283C35.7128 492.325 37.0829 495.069 39.0449 497.268L45.2593 505.734C47.7611 509.14 51.4955 511.431 55.6666 512.118L269.759 547.305C270.626 547.447 271.503 547.518 272.379 547.518Z" fill="white"/>
<path d="M54.524 287.015C54.524 288.281 54.524 289.547 54.5511 290.786C54.6584 297.088 54.9825 303.309 55.5743 309.451C55.5743 309.694 55.6014 309.908 55.6285 310.124C57.9992 335.307 64.2473 359.331 73.7808 381.658C73.8611 381.9 73.9694 382.116 74.0768 382.358C90.8025 421.223 117.385 454.808 150.728 479.964C165.756 491.304 182.132 500.944 199.611 508.54C203.167 510.102 206.748 511.557 210.384 512.93C234.651 522.168 260.776 527.582 288.058 528.444C290.751 528.551 293.445 528.605 296.138 528.605C307.397 528.605 318.492 527.824 329.32 526.343C354.799 522.842 378.985 515.381 401.258 504.581C402.254 504.123 403.225 503.638 404.167 503.154C404.813 502.831 405.46 502.508 406.079 502.185C429.887 490.01 451.38 473.985 469.775 454.971C478.69 445.76 486.878 435.821 494.257 425.29C498.458 419.311 502.364 413.116 506 406.734C526.2 371.451 537.727 330.567 537.727 287.016C537.727 245.647 527.33 206.729 509.016 172.713C494.5 145.699 474.946 121.729 451.676 102.121C451.46 101.932 451.246 101.771 451.057 101.609C440.149 92.4787 428.434 84.3175 416.044 77.2348C415.855 77.1004 415.666 76.992 415.478 76.8846C395.871 65.7077 374.539 57.2234 351.997 51.8903C351.781 51.8361 351.566 51.783 351.351 51.7288C333.629 47.5815 315.125 45.3994 296.138 45.3994C221.722 45.3994 155.144 79.0385 110.813 131.963C87.7576 159.515 70.6828 192.32 61.714 228.329C58.1314 242.712 55.8421 257.605 54.9532 272.877C54.9261 273.119 54.899 273.334 54.899 273.577C54.6584 278.02 54.524 282.517 54.524 287.015Z" fill="#FFE5D2"/>
<path d="M55.5743 309.451C55.5743 309.694 55.6014 309.909 55.6285 310.124C68.6374 306.03 81.0532 295.742 93.3889 278.936C102.842 266.036 111.138 251.868 119.137 238.159C133.276 213.973 147.874 188.953 169.34 170.531C187.924 154.586 211.518 144.056 235.783 140.905C252.428 138.75 269.665 139.908 286.31 141.012C308.583 142.494 331.584 144.029 353.211 137.592C380.602 129.431 404.114 107.857 414.564 81.2749C415.076 79.9286 415.587 78.5823 416.046 77.2349C415.857 77.1005 415.669 76.9921 415.48 76.8848C414.995 78.2853 414.484 79.6587 413.945 81.0321C403.549 107.427 380.198 128.838 353.022 136.945C331.503 143.327 308.556 141.819 286.363 140.338C269.664 139.233 252.401 138.075 235.702 140.23C211.301 143.408 187.572 153.992 168.909 170.018C147.362 188.521 132.711 213.569 118.544 237.835C110.545 251.517 102.276 265.657 92.8502 278.558C80.6489 295.177 68.3945 305.331 55.5743 309.451Z" fill="white"/>
<path d="M73.7809 381.659C73.8611 381.901 73.9694 382.117 74.0767 382.359H74.6957C79.759 382.359 84.742 381.768 89.5093 380.529C116.712 373.579 133.491 349.206 141.059 335.281C148.52 321.545 153.852 306.544 159.024 292.054C161.609 284.783 164.276 277.268 167.184 270.024C178.092 242.714 190.778 224.803 207.072 213.626C235.784 193.938 273.651 197.386 300.368 203.742C304.408 204.711 308.555 205.788 312.542 206.838C328.298 210.959 344.592 215.214 360.914 213.545C384.803 211.04 408.532 195.123 426.011 169.887C439.962 149.714 448.635 126.283 451.678 102.123C451.463 101.934 451.248 101.773 451.059 101.611C448.097 125.824 439.424 149.31 425.473 169.51C408.101 194.584 384.535 210.394 360.833 212.872C344.619 214.568 328.406 210.287 312.705 206.165C308.719 205.142 304.571 204.037 300.531 203.068C273.678 196.686 235.595 193.238 206.696 213.061C190.294 224.319 177.527 242.337 166.539 269.755C163.631 277.026 160.964 284.541 158.378 291.813C153.233 306.302 147.901 321.25 140.467 334.959C132.953 348.776 116.307 373.016 89.3478 379.884C84.3388 381.174 79.114 381.739 73.7809 381.659Z" fill="white"/>
<path d="M54.9001 273.577C60.9065 272.23 66.8044 269.671 72.1646 265.981C84.419 257.471 93.8995 243.95 101.198 224.639C104.241 216.586 106.693 208.156 109.062 200.022C111.379 192.077 113.775 183.889 116.738 175.998C125.141 153.482 137.88 134.467 153.555 121.054C171.33 105.865 193.605 97.5418 214.72 98.2691C224.523 98.6192 234.274 100.827 243.727 102.955C252.426 104.921 261.449 106.968 270.498 107.561C272.194 107.668 273.919 107.722 275.643 107.722C300.583 107.722 324.66 96.2757 339.474 77.1532C345.291 69.6391 349.493 60.9662 351.997 51.89C351.781 51.8358 351.566 51.7827 351.351 51.7285C348.873 60.7244 344.698 69.289 338.935 76.75C324.257 95.7109 300.367 107.049 275.643 107.049C273.946 107.049 272.249 106.995 270.525 106.888C261.53 106.295 252.561 104.275 243.861 102.309C234.408 100.154 224.604 97.9461 214.747 97.596C213.885 97.5689 213.049 97.5689 212.189 97.5689C191.693 97.5689 170.308 105.865 153.125 120.543C137.342 134.036 124.549 153.131 116.092 175.782C113.156 183.674 110.759 191.888 108.416 199.834C106.045 207.968 103.596 216.371 100.552 224.424C93.3336 243.573 83.9074 256.985 71.7874 265.415C66.5626 269.025 60.7991 271.529 54.9543 272.876C54.9272 273.119 54.9001 273.334 54.9001 273.577Z" fill="white"/>
<path d="M506.07 406.646C526.217 371.375 537.729 330.537 537.729 287.015C537.729 245.646 527.332 206.728 509.019 172.712C502.393 174.112 495.633 176.752 488.846 180.792C477.049 187.767 465.818 196.979 460.513 209.611C455.127 222.538 456.661 237.405 460.756 250.791C464.85 264.204 471.341 276.754 475.838 290.032C479.662 301.263 482.059 313.006 482.922 324.83C483.568 333.367 483.406 342.121 480.551 350.174C476.16 362.697 506.07 406.646 506.07 406.646Z" fill="#EE4D89"/>
<path d="M459.547 267.28C472.31 259.956 480.936 246.706 485.071 232.584C490.179 215.14 488.833 195.686 480.379 179.594C471.925 163.502 456.214 151.155 438.351 147.792C437.786 129.665 429.358 111.346 415.05 100.201C400.74 89.058 382.155 81.081 364.44 84.9735C363.318 85.199 361.114 83.2717 358.401 82.217C355.056 80.9162 354.529 80.7124 351.884 80.3287C346.086 79.4875 340.165 79.6761 334.376 80.4945C326.364 81.6273 318.448 83.9849 311.522 88.1691C295.931 97.5878 287.472 117.337 292.698 135.07C275.879 153.808 264.237 178.899 265.309 204.055C266.38 229.212 279.714 254.089 301.399 266.886C324.38 280.446 352.774 279.444 379.438 278.431C404.908 277.464 431.141 276.696 454.457 266.397L459.547 267.28Z" fill="#401A49"/>
<path d="M243.028 508.189C243.028 508.189 253.909 511.071 270.365 514.814C273.273 515.487 276.398 516.188 279.629 516.888C282.242 517.454 284.961 518.046 287.764 518.638C294.874 520.12 302.496 521.628 310.387 523.083C316.582 524.24 322.939 525.318 329.321 526.341C354.8 522.84 378.986 515.379 401.259 504.579C402.255 504.121 403.226 503.636 404.168 503.152C404.814 502.829 405.461 502.506 406.08 502.183C429.888 490.008 451.381 473.983 469.776 454.969C478.691 445.758 486.879 435.819 494.258 425.288C498.46 419.309 502.365 413.114 506.001 406.732C506.836 375.947 506.244 343.385 501.719 321.866C497.168 300.239 480.253 280.927 461.992 265.738C439.342 246.911 414.698 234.415 409.177 231.748C408.449 231.371 408.045 231.183 408.045 231.183L359.969 240.583C359.969 240.583 359.674 240.69 359.081 240.96C355.875 242.468 343.621 248.743 317.362 268.351C315.718 269.59 314.102 270.856 312.541 272.203C284.477 296.147 269.718 336.545 259.375 368.946C257.033 376.272 254.958 386.803 253.127 398.896C250.326 417.345 248.117 439.35 246.475 458.768C246.071 463.643 245.694 468.329 245.344 472.773C244.806 479.991 244.347 486.509 243.998 491.923C243.351 501.914 243.028 508.189 243.028 508.189Z" fill="#417EE3"/>
<path d="M297.078 435.357C297.325 435.357 297.565 435.231 297.701 435.004C297.91 434.66 297.799 434.213 297.454 434.005C289.914 429.46 281.755 426.097 273.204 424.012C272.81 423.914 272.417 424.159 272.323 424.547C272.229 424.937 272.468 425.331 272.858 425.427C281.266 427.477 289.291 430.783 296.703 435.253C296.821 435.322 296.95 435.357 297.078 435.357Z" fill="#401A49"/>
<path d="M296.729 434.659C296.747 434.659 296.766 434.658 296.786 434.656C297.186 434.624 297.486 434.274 297.454 433.873C294.269 393.14 307.72 352.09 319.588 315.871C319.714 315.489 319.504 315.078 319.122 314.953C318.753 314.825 318.331 315.034 318.204 315.418C306.294 351.766 292.796 392.963 296.003 433.986C296.032 434.369 296.353 434.659 296.729 434.659Z" fill="#401A49"/>
<path d="M359.051 241.577C359.284 235.987 359.079 234.268 358.672 228.503C358.293 223.233 357.682 218.021 356.895 212.985C359.836 211.937 362.863 209.288 364.902 206.9C373.812 196.417 383.508 186.636 393.902 177.609C394.98 176.677 396.202 175.717 397.513 174.931C399.9 173.416 402.55 172.515 404.966 173.562C405.723 194.438 407.296 215.284 409.655 236.015C409.655 236.015 393.433 288.039 368.159 280.605C342.882 273.171 359.051 241.577 359.051 241.577Z" fill="#FF899A"/>
<path d="M356.896 212.984C357.682 218.021 358.293 223.233 358.673 228.502C370.611 227.483 381.936 221.34 389.623 212.14C397.833 202.298 401.822 189.167 401.065 176.385C399.901 175.833 398.736 175.337 397.513 174.93C396.203 175.716 394.98 176.676 393.902 177.608C383.508 186.635 373.813 196.416 364.902 206.899C362.865 209.287 359.837 211.937 356.896 212.984Z" fill="#401A49"/>
<path d="M311.025 146.31C311.025 146.351 311.024 146.391 311.024 146.432C310.879 162.947 313.855 180.222 320.525 195.371C324.89 205.281 332.363 215.263 344.115 215.809C374.774 217.236 396.843 202.911 404.18 174.873C407.907 176.328 416.526 176.299 417.807 176.066C424.038 175.018 429.657 171.67 431.229 165.118C433.878 153.908 422.203 144.941 412.77 147.387C412.799 147.154 412.799 146.95 412.828 146.717C412.944 145.436 413.003 144.125 413.003 142.845C413.003 114.719 390.206 91.9219 362.08 91.9219C357.741 91.9219 353.519 92.4747 349.501 93.4936C325.292 99.6333 311.283 122.16 311.025 146.31Z" fill="#FF899A"/>
<path d="M408.101 167.541C408.325 167.541 408.546 167.437 408.688 167.244C409.468 166.18 410.395 165.226 411.439 164.409C412.22 163.795 412.973 163.334 413.737 163C416.354 161.852 419.447 162.074 422.178 162.271C422.633 162.309 422.927 161.997 422.956 161.598C422.985 161.197 422.683 160.849 422.283 160.819C419.387 160.608 416.097 160.376 413.154 161.668C412.276 162.052 411.42 162.574 410.539 163.264C409.392 164.164 408.374 165.213 407.515 166.384C407.275 166.709 407.347 167.163 407.67 167.401C407.801 167.495 407.951 167.541 408.101 167.541Z" fill="#401A49"/>
<path d="M355.706 158.04C355.706 161.068 357.745 163.523 360.259 163.523C362.773 163.523 364.812 161.069 364.812 158.04C364.812 155.013 362.774 152.558 360.259 152.558C357.744 152.558 355.706 155.013 355.706 158.04Z" fill="#401A49"/>
<path d="M317.422 158.04C317.422 161.068 319.461 163.523 321.975 163.523C324.49 163.523 326.529 161.069 326.529 158.04C326.529 155.013 324.49 152.558 321.975 152.558C319.461 152.558 317.422 155.013 317.422 158.04Z" fill="#401A49"/>
<path d="M334.522 179.866C335.702 179.866 336.915 179.415 337.941 178.579C338.614 178.031 339.012 177.454 339.151 176.813C339.237 176.421 338.99 176.033 338.596 175.947C338.193 175.861 337.814 176.112 337.731 176.503C337.665 176.804 337.425 177.122 337.023 177.45C336.121 178.187 334.998 178.521 334.03 178.371C333.272 178.248 332.234 177.78 331.876 177.24C331.752 177.054 331.76 176.935 331.782 176.851C333.731 168.877 334.531 160.672 334.155 152.466C334.138 152.076 333.815 151.771 333.428 151.771C333.417 151.771 333.408 151.772 333.394 151.772C332.994 151.79 332.684 152.13 332.702 152.531C333.071 160.6 332.284 168.667 330.366 176.504C330.24 177.027 330.342 177.56 330.661 178.042C331.3 179.008 332.733 179.633 333.794 179.807C334.033 179.847 334.277 179.866 334.522 179.866Z" fill="#401A49"/>
<path d="M365.979 148.094C366.16 148.094 366.342 148.028 366.481 147.894C366.773 147.616 366.783 147.156 366.505 146.865C364.311 144.569 361.108 143.327 357.944 143.561C357.544 143.591 357.241 143.938 357.27 144.34C357.3 144.738 357.575 145.033 358.049 145.013C360.745 144.817 363.551 145.882 365.452 147.869C365.594 148.02 365.786 148.094 365.979 148.094Z" fill="#401A49"/>
<path d="M316.913 147.04C317.131 147.04 317.346 146.941 317.492 146.755C318.972 144.827 321.816 144.439 323.844 144.899C324.238 144.983 324.627 144.74 324.714 144.349C324.803 143.958 324.556 143.568 324.165 143.479C321.622 142.9 318.216 143.421 316.335 145.868C316.09 146.187 316.151 146.644 316.469 146.889C316.603 146.99 316.758 147.04 316.913 147.04Z" fill="#401A49"/>
<path d="M338.346 187.833C339.178 187.833 340.024 187.672 340.824 187.336C343.046 186.404 344.817 184.245 345.561 181.561C345.666 181.173 345.44 180.772 345.054 180.665C344.654 180.56 344.263 180.786 344.158 181.172C343.534 183.431 342.077 185.234 340.262 185.995C338.281 186.827 335.882 186.244 334.789 184.679C334.558 184.347 334.11 184.266 333.774 184.501C333.446 184.73 333.366 185.185 333.595 185.513C334.635 187 336.455 187.833 338.346 187.833Z" fill="#401A49"/>
<path d="M349.413 119.727C351.713 125.609 355.382 131.111 360.681 134.518C365.952 137.953 372.88 139.031 378.529 136.295C377.888 142.641 379.985 149.251 384.207 154.055C388.457 158.859 394.194 161.392 400.599 161.537C402.171 158.451 403.773 155.336 405.899 152.599C407.762 150.183 411.325 147.764 414.062 146.425C414.178 145.144 414.247 143.99 414.247 142.708C414.247 114.582 390.894 90.4854 362.768 90.4854C358.43 90.4854 353.963 90.7672 349.944 91.7861C346.072 99.7057 346.122 111.37 349.413 119.727Z" fill="#401A49"/>
<path d="M271.519 522.573L379.804 496.307L248.474 472.52L49.9929 487.635L271.519 522.573Z" fill="#401A49"/>
<path opacity="0.35" d="M271.519 522.573L379.804 496.307L248.474 472.52L49.9929 487.635L271.519 522.573Z" fill="#8F8FEF"/>
<path d="M309.927 449.722C309.927 449.722 268.297 445.261 261.854 446.253C255.412 447.244 228.154 477.475 229.641 481.44C231.128 485.406 247.483 495.812 251.447 492.839C255.412 489.865 272.261 482.431 272.261 482.431L316.369 486.396L309.927 449.722Z" fill="#FF899A"/>
<path d="M379.804 496.307L372.37 508.202L271.271 532.485L57.1786 497.299L49.9929 487.511L271.271 518.609L379.804 496.307Z" fill="#401A49"/>
<path d="M239.554 307.737L271.519 522.573L49.993 487.634L15.0542 287.171L239.554 307.737Z" fill="#401A49"/>
<path d="M128.047 427.422C113.678 427.422 102.029 416.106 102.029 402.146C102.029 388.187 113.678 376.871 128.047 376.871C142.416 376.871 154.065 388.187 154.065 402.146C154.065 416.106 142.416 427.422 128.047 427.422Z" fill="#FFE5D2"/>
<path d="M295.062 491.356C295.062 491.356 324.122 497.388 359.486 500.486C360.241 500.54 360.995 500.62 361.748 500.702C366.543 501.079 371.472 501.429 376.426 501.698C377.584 501.752 378.769 501.805 379.928 501.859C388.628 502.264 397.461 502.398 406.08 502.182C429.888 490.008 451.381 473.983 469.776 454.969C478.691 445.758 486.879 435.819 494.258 425.288C501.665 377.563 499.24 326.821 499.24 326.821L477.425 295.605C477.425 295.605 455.636 297.086 437.78 321.353C427.599 335.251 423.559 369.106 421.943 395.527C421.538 402.529 421.296 409.02 421.134 414.488C420.865 424.398 420.945 430.89 420.945 430.89L419.868 430.863L418.413 430.809L297.538 427.415L297.349 432.317L297.295 433.636V433.906L297.268 434.418L297.241 435.091V435.306L296.729 448.395L296.352 457.769L295.463 481.038L295.329 484.512L295.062 491.356Z" fill="#417EE3"/>
<path d="M294.336 491.329C294.336 491.706 294.577 492.002 294.929 492.056C295.359 492.137 325.255 497.335 356.982 500.998C357.764 501.105 358.544 501.187 359.352 501.267C364.792 501.887 370.287 502.479 375.646 502.936C383.51 503.663 391.133 504.202 398.108 504.471C399.159 504.498 400.209 504.525 401.259 504.579C402.256 504.121 403.226 503.636 404.168 503.152C402.201 503.125 400.182 503.098 398.161 503.017C392.452 502.802 386.311 502.398 379.928 501.859C378.797 501.778 377.665 501.67 376.508 501.563C372.225 501.185 367.835 500.754 363.472 500.27C362.853 500.215 362.206 500.135 361.56 500.054C330.775 496.66 300.448 491.542 295.789 490.735L295.898 484.567L295.952 481.12L296.356 457.769L296.518 448.37L296.761 435.28V435.091H418.954C419.089 435.091 419.197 435.064 419.304 434.984C419.52 434.876 419.682 434.661 419.682 434.392C419.682 434.338 419.709 433.934 419.736 433.18C419.763 432.587 419.817 431.834 419.87 430.863C420.059 427.416 420.463 421.599 421.136 414.488C423.21 393.13 427.977 359.921 438.401 342.55C454.426 315.859 475.945 309.234 476.161 309.179C476.538 309.072 476.754 308.668 476.646 308.264C476.537 307.887 476.134 307.672 475.73 307.78C475.514 307.834 453.483 314.621 437.162 341.796C429.352 354.805 424.692 376.46 421.945 395.528C419.764 410.906 418.767 424.588 418.417 430.81C418.335 431.942 418.282 432.804 418.282 433.396C418.255 433.503 418.255 433.557 418.255 433.638H296.059C296.032 433.638 296.005 433.638 295.979 433.666C295.602 433.693 295.333 433.989 295.333 434.339V434.473L295.09 448.236L294.524 480.879L294.443 484.435L294.336 491.329Z" fill="#401A49"/>
<path d="M430.306 450.408C430.431 450.408 430.56 450.375 430.676 450.305C431.023 450.1 431.137 449.654 430.931 449.307C427.559 443.624 423.738 438.125 419.574 432.967C419.327 432.657 418.864 432.605 418.551 432.858C418.238 433.11 418.19 433.569 418.444 433.882C422.563 438.987 426.345 444.425 429.679 450.049C429.816 450.28 430.057 450.408 430.306 450.408Z" fill="#401A49"/>
<path opacity="0.16" d="M61.7142 228.329C71.1134 261.915 101.953 286.531 138.528 286.531C182.59 286.531 218.303 250.818 218.303 206.756C218.303 162.72 182.59 127.007 138.528 127.007C128.777 127.007 119.432 128.757 110.813 131.963C87.758 159.514 70.6831 192.319 61.7142 228.329Z" fill="#FFA766"/>
<path d="M81.4484 197.771C81.4484 169.004 104.77 145.682 133.538 145.682C162.307 145.682 185.628 169.004 185.628 197.771C185.628 223.785 166.539 245.281 141.618 249.172V269.803H123.052V248.804C99.3103 243.951 81.4484 222.947 81.4484 197.771Z" fill="#FFA766"/>
<path d="M125.214 264.139C126.962 262.15 127.586 259.04 127.127 254.636C126.67 250.293 125.684 246.201 124.194 242.475C122.746 238.852 120.778 235.472 118.873 232.206C117.838 230.434 116.77 228.601 115.802 226.754C112.411 220.294 111.007 214.697 111.503 209.638C111.757 207.078 112.52 204.552 113.712 202.328C114.757 200.386 115.992 198.93 117.387 198.003C120.836 195.704 125.898 196.602 129.158 200.089C130.116 201.113 130.941 202.341 131.619 203.738C130.335 206.591 129.64 209.716 129.085 212.699C128.548 215.618 128.185 219.26 130.201 221.529C130.678 222.071 131.17 222.306 131.674 222.258C132.44 222.165 132.904 221.345 133.056 221.076C134.184 219.058 134.639 216.524 134.484 213.103C134.324 209.578 133.59 206.383 132.361 203.734C132.493 203.45 132.632 203.169 132.78 202.891C134.514 199.592 137.081 197.229 139.822 196.409C141.496 195.91 143.413 195.913 145.382 196.426C149.681 197.542 153.263 200.963 154.507 205.139C155.61 208.848 155.09 213.411 152.96 218.704C151.071 223.397 148.4 228.013 144.558 233.233C144.14 233.802 143.712 234.369 143.286 234.937C141.018 237.958 138.67 241.081 137.234 244.724C135.215 249.837 134.936 256.021 136.407 263.104L137.066 262.968C135.623 256.016 135.888 249.961 137.857 244.97C139.262 241.412 141.58 238.326 143.822 235.341C144.25 234.772 144.68 234.202 145.1 233.631C148.978 228.365 151.674 223.701 153.583 218.955C155.772 213.517 156.3 208.803 155.151 204.946C153.842 200.549 150.073 196.949 145.549 195.774C143.467 195.231 141.418 195.228 139.629 195.764C136.715 196.635 134.001 199.119 132.183 202.578C132.115 202.707 132.049 202.838 131.983 202.968C131.324 201.705 130.542 200.584 129.649 199.63C126.172 195.903 120.742 194.962 117.011 197.443C115.525 198.432 114.216 199.969 113.118 202.011C111.886 204.311 111.094 206.926 110.833 209.573C110.32 214.765 111.751 220.487 115.203 227.066C116.182 228.927 117.255 230.767 118.289 232.546C120.18 235.792 122.139 239.148 123.569 242.727C125.034 246.395 126.006 250.426 126.456 254.709C126.895 258.915 126.323 261.855 124.706 263.697L125.214 264.139ZM131.994 204.563C133.041 207.02 133.667 209.933 133.809 213.133C133.959 216.424 133.533 218.842 132.467 220.743C132.168 221.275 131.882 221.552 131.593 221.587C131.268 221.618 130.926 221.334 130.703 221.081C128.882 219.029 129.237 215.589 129.749 212.821C130.259 210.072 130.89 207.204 131.994 204.563Z" fill="#FFF5EE"/>
<path d="M142.134 261.034L122.708 260.69L122.13 276.024C122.071 277.585 123.348 278.87 124.91 278.818L140.112 278.315C141.605 278.265 142.774 277.009 142.714 275.515L142.134 261.034Z" fill="#8F8FEF"/>
<path d="M138.983 277.652L138.599 280.633C138.425 281.976 137.282 282.982 135.928 282.982H128.147C126.933 282.982 125.868 282.169 125.548 280.997L124.543 277.309L138.983 277.652Z" fill="#8F8FEF"/>
<path d="M100.695 183.387C99.6934 184.256 98.4565 185.055 97.1406 184.888C96.1683 184.765 95.3347 184.124 94.6897 183.386C92.9293 181.371 92.2865 178.538 92.5716 175.878C93.0551 171.382 98.6105 160.546 104.817 164.462C111.062 168.401 104.465 180.112 100.695 183.387Z" fill="#FFF5EE"/>
<path d="M98.1542 195.287C98.0382 196.146 97.7856 197.005 97.288 197.716C96.1249 199.374 93.6708 199.884 91.853 198.988C88.0764 197.129 88.3636 191.358 91.7554 189.253C95.7651 186.765 98.6441 191.67 98.1542 195.287Z" fill="#FFF5EE"/>
<path d="M107.808 24.7695H243.964V132.961H107.808V24.7695Z" fill="#FFF5EE"/>
<path d="M240.296 102.703L278.347 127.459L233.42 117.831L240.296 102.703Z" fill="#FFF5EE"/>
<path d="M144.367 83.7164C141.821 65.5381 154.494 48.7377 172.672 46.1917C190.85 43.6456 207.651 56.3181 210.197 74.4964C212.743 92.6747 200.07 109.475 181.892 112.021C163.714 114.567 146.913 101.895 144.367 83.7164Z" fill="#FFD2A7"/>
<path d="M177.279 109.92C194.277 109.92 208.104 96.0917 208.104 79.0948C208.104 62.0968 194.276 48.2695 177.279 48.2695C160.282 48.2695 146.453 62.0979 146.453 79.0948C146.453 96.0917 160.282 109.92 177.279 109.92ZM177.279 48.7833C193.993 48.7833 207.59 62.3808 207.59 79.0948C207.59 95.8088 193.993 109.406 177.279 109.406C160.565 109.406 146.966 95.8098 146.966 79.0948C146.966 62.3798 160.565 48.7833 177.279 48.7833Z" fill="#FFF5EE"/>
<path d="M178.687 94.4271C178.776 94.4271 178.86 94.4033 178.924 94.3415C178.984 94.2992 179.033 94.245 179.064 94.1821C179.192 94.038 179.446 93.78 179.796 93.4234C192.107 80.9044 195.8 71.6992 190.773 66.0625C189.469 64.5991 187.937 63.8913 186.254 63.9596C182.399 64.1146 178.634 68.2998 176.945 70.4602C175.378 69.0326 170.49 64.9601 166.339 65.4999C164.614 65.7189 163.211 66.6858 162.164 68.3725C158.041 75.0162 163.158 83.4865 177.371 93.5523C177.81 93.8635 178.127 94.0857 178.287 94.2125C178.338 94.296 178.412 94.3664 178.498 94.3946C178.557 94.4152 178.623 94.4271 178.687 94.4271ZM186.468 64.7845C187.833 64.7845 189.071 65.398 190.154 66.6132C193.374 70.225 194.09 77.7077 179.205 92.8423C178.969 93.0819 178.777 93.2814 178.63 93.4331C178.448 93.2976 178.189 93.1144 177.852 92.8749C164.06 83.1092 159.017 75.0119 162.87 68.8071C163.778 67.3438 164.98 66.5069 166.446 66.3205C170.595 65.7774 175.728 70.4353 176.71 71.3719C176.796 71.4521 176.916 71.477 177.03 71.4857C177.147 71.4759 177.255 71.4163 177.327 71.322C178.777 69.4077 182.554 64.9373 186.287 64.7877C186.347 64.7856 186.407 64.7845 186.468 64.7845Z" fill="white"/>
<path d="M267.802 341.318H441.091V404.583H267.802V341.318Z" fill="#FFF5EE"/>
<path d="M272.387 391.059L242.589 394.267L273.304 378.681L272.387 391.059Z" fill="#FFF5EE"/>
<path d="M293.474 355.759H417.711V360.572H293.474V355.759Z" fill="#401A49"/>
<path d="M293.474 367.22H417.711V371.804H293.474V367.22Z" fill="#401A49"/>
<path d="M330.608 378.681H417.711V383.495H330.608V378.681Z" fill="#401A49"/>
<path d="M79.3946 267.321C96.4305 267.332 110.232 281.151 110.221 298.187C110.216 306.969 106.521 314.872 100.628 320.486L106.804 333.423L92.5661 326.018C88.5564 327.92 84.0893 329.016 79.3556 329.013C62.3197 329.002 48.5184 315.184 48.5292 298.148C48.5401 281.112 62.3598 267.31 79.3946 267.321Z" fill="#EE4D89"/>
<path d="M80.1698 314.901C80.2587 314.901 80.3421 314.877 80.4061 314.815C80.4668 314.773 80.5156 314.719 80.5459 314.656C80.6749 314.512 80.9286 314.254 81.2787 313.897C93.5895 301.378 97.2826 292.173 92.2551 286.536C90.9511 285.073 89.4194 284.365 87.736 284.433C83.8813 284.588 80.1167 288.773 78.4278 290.934C76.8604 289.506 71.9727 285.434 67.821 285.974C66.0964 286.193 64.6937 287.159 63.6466 288.846C59.5231 295.49 64.6406 303.96 78.8538 314.026C79.2928 314.337 79.6094 314.559 79.7698 314.686C79.8207 314.77 79.8944 314.84 79.9801 314.868C80.0397 314.889 80.1058 314.901 80.1698 314.901ZM87.9506 285.258C89.3154 285.258 90.5533 285.872 91.6362 287.087C94.8567 290.699 95.5721 298.181 80.6879 313.316C80.4516 313.556 80.2598 313.755 80.1123 313.907C79.9302 313.771 79.6711 313.588 79.334 313.348C65.5425 303.583 60.4998 295.486 64.3523 289.281C65.2607 287.817 66.4628 286.981 67.9283 286.794C72.0778 286.251 77.2105 290.909 78.1926 291.845C78.2782 291.926 78.3985 291.951 78.5124 291.959C78.6294 291.95 78.7378 291.89 78.8094 291.796C80.2597 289.881 84.0364 285.411 87.7696 285.261C87.8292 285.259 87.8899 285.258 87.9506 285.258Z" fill="#401A49"/>
<path d="M208.336 246.44C217.246 230.986 236.997 225.682 252.452 234.594C267.905 243.504 273.209 263.255 264.298 278.709C257.357 290.745 243.842 296.586 230.901 294.385L220.359 304.886L222.252 291.613C221.558 291.275 220.861 290.946 220.183 290.555C204.728 281.644 199.424 261.893 208.336 246.44Z" fill="#FFF5EE"/>
<path d="M230.629 279.179C235.828 279.179 241.446 278.907 242.501 278.853C242.696 278.843 242.857 278.695 242.879 278.501L245.413 257.897C245.433 257.745 245.362 257.594 245.233 257.51C245.202 257.49 242.088 255.427 242.001 252.411C241.986 251.83 241.994 251.11 242.004 250.312C242.049 246.399 242.113 241.04 239.597 240.264C236.777 239.394 233.026 250.261 232.044 253.284C229.675 252.744 221.726 251.082 220.418 252.639C219.445 253.791 219.901 255.791 220.266 257.397C220.395 257.968 220.575 258.748 220.507 258.937C220.441 259.126 220.187 259.489 219.918 259.873C219.125 261.009 217.923 262.726 218.069 264.581C218.162 265.766 218.63 267.08 219.078 268.35C219.537 269.645 219.968 270.868 219.841 271.554C219.598 272.865 218.857 276.856 221.5 278.395C222.546 279.003 226.452 279.179 230.629 279.179ZM242.123 278.067C236.782 278.326 223.68 278.727 221.906 277.701C219.75 276.448 220.415 272.876 220.634 271.701C220.801 270.803 220.355 269.543 219.837 268.083C219.404 266.86 218.957 265.597 218.871 264.518C218.747 262.951 219.848 261.376 220.579 260.333C220.906 259.867 221.164 259.497 221.268 259.204C221.402 258.815 221.281 258.225 221.05 257.218C220.741 255.862 220.317 254.005 221.033 253.158C221.822 252.226 228.053 253.175 232.223 254.15C232.428 254.188 232.634 254.081 232.697 253.88C234.494 248.253 237.754 240.504 239.36 241.033C241.302 241.631 241.239 247.059 241.201 250.303C241.192 251.112 241.184 251.843 241.201 252.434C241.283 255.422 243.823 257.486 244.588 258.039L242.123 278.067Z" fill="#401A49"/>
<path d="M245.015 257.849L254.66 258.86L252.512 279.349L242.48 278.451L245.015 257.849Z" fill="#401A49"/>
</svg>
