<svg width="182" height="36" viewBox="0 0 182 36" fill="none" xmlns="http://www.w3.org/2000/svg">
<g clip-path="url(#clip0_2997_22621)">
<path d="M45.1645 6.57251V28.1822H41.6627V6.57251H45.1645ZM53.638 6.57251L48.224 19.3217H44.3635L43.8855 15.2105H46.3358L49.4072 6.57251H53.638ZM49.9689 28.1822L46.4072 18.5647L48.8095 15.2995L54.116 28.1822H49.9689Z" fill="#212224"/>
<path d="M66.8087 15.7003V19.3069C66.8087 20.8307 66.6574 22.1664 66.3545 23.3142C66.0597 24.4521 65.6375 25.4069 65.0877 26.1787C64.5458 26.9405 63.8886 27.5144 63.1158 27.9003C62.3508 28.2862 61.5022 28.4791 60.57 28.4791C59.6377 28.4791 58.7854 28.2862 58.0126 27.9003C57.2476 27.5144 56.5863 26.9405 56.0284 26.1787C55.4787 25.4069 55.0526 24.4521 54.7497 23.3142C54.4471 22.1664 54.2955 20.8307 54.2955 19.3069V15.7003C54.2955 14.137 54.4431 12.7715 54.7378 11.604C55.0326 10.4265 55.4589 9.44698 56.0165 8.66531C56.5744 7.87372 57.2357 7.28006 58.0007 6.88428C58.7653 6.47861 59.6139 6.27576 60.5462 6.27576C61.4784 6.27576 62.327 6.47861 63.0917 6.88428C63.8566 7.28006 64.5179 7.87372 65.0758 8.66531C65.6334 9.44698 66.0597 10.4265 66.3545 11.604C66.6574 12.7715 66.8087 14.137 66.8087 15.7003ZM63.3307 19.3069V15.6707C63.3307 14.6416 63.2712 13.7659 63.1515 13.0436C63.0321 12.3115 62.8526 11.7128 62.6136 11.2478C62.3746 10.7827 62.0839 10.4414 61.7412 10.2237C61.3988 10.006 61.0004 9.89717 60.5462 9.89717C60.0919 9.89717 59.6897 10.006 59.3392 10.2237C58.9965 10.4414 58.7058 10.7827 58.4668 11.2478C58.2356 11.7128 58.0602 12.3115 57.9408 13.0436C57.8293 13.7659 57.7736 14.6416 57.7736 15.6707V19.3069C57.7736 20.2963 57.8331 21.1423 57.9527 21.8448C58.0724 22.5474 58.2516 23.1213 58.4906 23.5665C58.7296 24.0118 59.0203 24.3432 59.363 24.5609C59.7135 24.7687 60.1161 24.8726 60.57 24.8726C61.0164 24.8726 61.4107 24.7687 61.7531 24.5609C62.104 24.3432 62.3947 24.0118 62.6255 23.5665C62.8567 23.1213 63.0321 22.5474 63.1515 21.8448C63.2712 21.1423 63.3307 20.2963 63.3307 19.3069Z" fill="#212224"/>
<path d="M78.6528 6.57251V10.1791H72.3903V28.1822H68.9006V6.57251H78.6528Z" fill="#212224"/>
<path d="M90.1624 24.5905V28.1822H79.9083V24.5905H90.1624ZM80.9001 24.5905V33.4956H77.6134L77.4224 24.5905H80.9001ZM92.6963 24.5905L92.3855 33.4956H89.1825V24.5905H92.6963ZM88.3577 6.57251V10.1791H81.3305V6.57251H88.3577ZM90.8794 6.57251V28.1822H87.4017V6.57251H90.8794ZM80.912 6.57251H84.402L83.9715 15.4183C83.9079 16.8827 83.8005 18.1739 83.6489 19.292C83.5054 20.4002 83.3262 21.3698 83.111 22.201C82.904 23.0321 82.6731 23.7594 82.4181 24.3827C82.1631 24.9962 81.8922 25.5305 81.6052 25.9857C81.3186 26.4309 81.0238 26.8317 80.7209 27.1878C80.418 27.544 80.1195 27.8755 79.8247 28.1822H77.9242V24.5905H78.5936C78.7928 24.353 78.9921 24.0315 79.1913 23.6258C79.3902 23.2102 79.5735 22.6611 79.7411 21.9784C79.9083 21.2956 80.0556 20.42 80.1831 19.3514C80.3106 18.2827 80.4102 16.9717 80.4819 15.4183L80.912 6.57251Z" fill="#212224"/>
<path d="M100.525 10.4314L96.7839 28.1822H93.091L98.5287 6.57251H100.836L100.525 10.4314ZM103.477 28.1822L99.7119 10.4314L99.3654 6.57251H101.708L107.194 28.1822H103.477ZM103.608 20.1231V23.7297H95.7561V20.1231H103.608Z" fill="#212224"/>
<path d="M119.385 18.7577H115.823L115.811 15.6112H118.847C119.325 15.6112 119.716 15.5122 120.018 15.3144C120.329 15.1066 120.556 14.8048 120.7 14.409C120.851 14.0033 120.927 13.5136 120.927 12.9397C120.927 12.2767 120.859 11.7474 120.723 11.3516C120.588 10.9459 120.369 10.6491 120.066 10.4611C119.763 10.2731 119.369 10.1791 118.883 10.1791H117.018V28.1822H113.517V6.57251H118.883C119.751 6.57251 120.528 6.69125 121.213 6.92872C121.899 7.1662 122.48 7.52736 122.958 8.0122C123.436 8.49701 123.799 9.11048 124.046 9.85258C124.301 10.5946 124.428 11.4703 124.428 12.4796C124.428 13.3701 124.285 14.1913 123.998 14.9433C123.711 15.6953 123.261 16.3088 122.648 16.7837C122.042 17.2587 121.249 17.5258 120.269 17.5852L119.385 18.7577ZM119.265 28.1822H114.831L116.23 24.5905H119.265C119.727 24.5905 120.102 24.4668 120.389 24.2195C120.675 23.9721 120.883 23.6406 121.01 23.2251C121.138 22.7996 121.201 22.3148 121.201 21.7706C121.201 21.1571 121.142 20.6228 121.022 20.1676C120.911 19.7125 120.723 19.3662 120.461 19.1287C120.197 18.8813 119.843 18.7577 119.397 18.7577H116.385L116.409 15.6112H120.066L120.891 16.8579C121.823 16.8183 122.568 17.041 123.126 17.5258C123.683 18.0008 124.082 18.6241 124.321 19.3959C124.568 20.1578 124.691 20.9691 124.691 21.8299C124.691 23.2152 124.48 24.3827 124.058 25.3326C123.643 26.2726 123.034 26.985 122.229 27.4699C121.424 27.9448 120.436 28.1822 119.265 28.1822Z" fill="#212224"/>
<path d="M140.217 20.984H143.695C143.647 22.6067 143.384 23.9771 142.906 25.0952C142.428 26.2034 141.747 27.0444 140.862 27.6183C139.986 28.1922 138.926 28.4791 137.683 28.4791C136.719 28.4791 135.863 28.2812 135.114 27.8854C134.365 27.4798 133.727 26.8861 133.201 26.1044C132.675 25.3227 132.277 24.358 132.006 23.2103C131.743 22.0526 131.612 20.7218 131.612 19.2178V15.5519C131.612 14.0479 131.751 12.7171 132.03 11.5594C132.317 10.4017 132.723 9.43206 133.249 8.65039C133.783 7.85883 134.424 7.26517 135.173 6.86939C135.93 6.46372 136.783 6.26086 137.731 6.26086C138.998 6.26086 140.058 6.55769 140.91 7.15138C141.763 7.74503 142.42 8.61082 142.882 9.7487C143.352 10.8767 143.635 12.257 143.731 13.8896H140.241C140.217 12.8605 140.121 12.0541 139.954 11.4703C139.794 10.8767 139.539 10.4611 139.189 10.2237C138.838 9.97628 138.353 9.8526 137.731 9.8526C137.269 9.8526 136.871 9.95647 136.536 10.1643C136.201 10.3622 135.926 10.6837 135.711 11.129C135.496 11.5742 135.337 12.158 135.233 12.8803C135.138 13.6026 135.09 14.4832 135.09 15.5222V19.2178C135.09 20.2369 135.134 21.1076 135.221 21.83C135.309 22.5424 135.448 23.1261 135.639 23.5813C135.831 24.0364 136.09 24.3679 136.416 24.5757C136.751 24.7835 137.173 24.8874 137.683 24.8874C138.273 24.8874 138.747 24.7785 139.105 24.5609C139.472 24.3432 139.743 23.9523 139.918 23.3884C140.093 22.8244 140.193 22.0229 140.217 20.984Z" fill="#212224"/>
<path d="M155.372 24.5905V28.1822H147.806V24.5905H155.372ZM148.894 6.57251V28.1822H145.392V6.57251H148.894ZM154.356 15.3292V18.817H147.806V15.3292H154.356ZM155.348 6.57251V10.1791H147.806V6.57251H155.348Z" fill="#212224"/>
<path d="M164.096 6.57251V28.1822H160.619V6.57251H164.096ZM168.423 6.57251V10.1791H156.376V6.57251H168.423Z" fill="#212224"/>
<path d="M173.24 20.2419L178.678 6.57251H182V28.1822H178.618V14.6762L173.228 28.1822H169.845V6.57251H173.24V20.2419Z" fill="#212224"/>
<path d="M23.2547 7.54363C22.8951 7.36341 22.5234 7.20044 22.1403 7.05606C20.8358 6.5613 19.4358 6.29647 18.0021 6.29712C16.5663 6.296 15.1642 6.56117 13.8579 7.05691C13.2242 7.29592 12.6215 7.58583 12.0534 7.92057L12.0547 7.92326C9.50742 9.42596 7.52468 11.8895 6.69876 14.9718C6.4896 15.7524 6.36455 16.5356 6.318 17.312L6.31715 17.312C6.30368 17.5412 6.29698 17.7716 6.2972 18.0028C6.29664 19.436 6.56143 20.8356 7.05599 22.1398C8.27079 25.3629 10.802 27.7831 13.8567 28.9427C15.1637 29.4388 16.5665 29.7042 18.003 29.7029C18.0389 29.7029 18.0747 29.7026 18.1106 29.7023C19.0749 29.6926 20.0538 29.5625 21.0284 29.3013C23.9101 28.5292 26.2509 26.746 27.7714 24.4357L27.774 24.4374C28.2405 23.7288 28.6349 22.9607 28.944 22.1407C29.4389 20.8362 29.7038 19.4363 29.7032 18.0027C29.7045 16.5661 29.4391 15.1633 28.9429 13.8563C28.799 13.4772 28.6357 13.1062 28.4538 12.7448C25.9537 12.0153 23.9831 10.0441 23.2547 7.54363Z" fill="#212224"/>
<path d="M10.4232 20.0081C10.3787 19.899 10.3364 19.7887 10.2963 19.6772C10.2414 19.5249 10.1912 19.3716 10.1455 19.2174L10.1461 19.2172C9.99215 18.6949 9.88715 18.1499 9.83696 17.5872C9.6778 15.8031 10.0934 14.1092 10.9284 12.693L14.3323 14.9867C14.1579 15.7426 14.0982 16.5411 14.1713 17.3604C14.2088 17.7802 14.2796 18.1893 14.381 18.585L10.4232 20.0081Z" fill="white"/>
<path d="M14.8061 13.5873L12.2018 11.0571C12.3212 10.9396 12.445 10.8253 12.5731 10.7145C13.2971 10.0853 14.1373 9.58587 15.0624 9.25411C15.4578 9.1117 15.8608 9.00283 16.2675 8.92676L17.1197 10.7246C16.9647 10.8389 16.8145 10.9592 16.6695 11.0853C16.3485 11.3631 16.0568 11.6649 15.7951 11.9864L15.7964 11.9877C15.4017 12.4732 15.0681 13.0106 14.8061 13.5873Z" fill="white"/>
<path d="M24.2598 1.11825C22.3103 0.395098 20.2014 0 18.0002 0C8.05897 0 0 8.05887 0 18C0 27.9411 8.05897 36 18.0002 36C27.9414 36 36.0003 27.9411 36.0003 18C36.0003 15.7988 35.6053 13.69 34.8823 11.7404C34.1396 12.2428 33.3041 12.6183 32.4067 12.8355C32.9852 14.4488 33.3004 16.1876 33.3004 18C33.3004 26.45 26.4502 33.3 18.0002 33.3C9.55014 33.3 2.70003 26.45 2.70003 18C2.70003 9.55005 9.55014 2.7 18.0002 2.7C19.8126 2.7 21.5514 3.01513 23.1648 3.59358C23.382 2.69628 23.7574 1.86078 24.2598 1.11825Z" fill="#212224"/>
<path d="M30.6003 9.90002C33.0856 9.90002 35.1004 7.88531 35.1004 5.40002C35.1004 2.91474 33.0856 0.900024 30.6003 0.900024C28.115 0.900024 26.1003 2.91474 26.1003 5.40002C26.1003 7.88531 28.115 9.90002 30.6003 9.90002Z" fill="#4D89EE"/>
</g>
<defs>
<clipPath id="clip0_2997_22621">
<rect width="182" height="36" fill="white"/>
</clipPath>
</defs>
</svg>
