<svg width="182" height="36" viewBox="0 0 182 36" fill="none" xmlns="http://www.w3.org/2000/svg">
<g clip-path="url(#clip0_2980_16453)">
<path d="M45.1645 6.57227V28.182H41.6627V6.57227H45.1645ZM53.638 6.57227L48.2241 19.3214H44.3635L43.8855 15.2102H46.3358L49.4072 6.57227H53.638ZM49.9689 28.182L46.4072 18.5645L48.8095 15.2993L54.116 28.182H49.9689Z" fill="white"/>
<path d="M66.8087 15.7V19.3065C66.8087 20.8303 66.6574 22.1661 66.3545 23.3138C66.0597 24.4517 65.6375 25.4065 65.0877 26.1783C64.5458 26.9402 63.8886 27.5141 63.1158 27.9C62.3508 28.2859 61.5022 28.4788 60.57 28.4788C59.6377 28.4788 58.7854 28.2859 58.0126 27.9C57.2476 27.5141 56.5864 26.9402 56.0284 26.1783C55.4787 25.4065 55.0527 24.4517 54.7497 23.3138C54.4471 22.1661 54.2955 20.8303 54.2955 19.3065V15.7C54.2955 14.1366 54.4431 12.7712 54.7378 11.6036C55.0326 10.4262 55.459 9.44662 56.0165 8.66495C56.5744 7.87335 57.2357 7.2797 58.0007 6.88392C58.7653 6.47824 59.6139 6.27539 60.5462 6.27539C61.4784 6.27539 62.327 6.47824 63.0917 6.88392C63.8566 7.2797 64.5179 7.87335 65.0758 8.66495C65.6334 9.44662 66.0597 10.4262 66.3545 11.6036C66.6574 12.7712 66.8087 14.1366 66.8087 15.7ZM63.3307 19.3065V15.6703C63.3307 14.6413 63.2712 13.7656 63.1515 13.0433C63.0322 12.3111 62.8527 11.7125 62.6137 11.2474C62.3746 10.7824 62.0839 10.441 61.7412 10.2233C61.3989 10.0056 61.0004 9.8968 60.5462 9.8968C60.092 9.8968 59.6897 10.0056 59.3392 10.2233C58.9965 10.441 58.7058 10.7824 58.4668 11.2474C58.2356 11.7125 58.0602 12.3111 57.9409 13.0433C57.8293 13.7656 57.7736 14.6413 57.7736 15.6703V19.3065C57.7736 20.296 57.8331 21.142 57.9528 21.8445C58.0724 22.547 58.2516 23.1209 58.4906 23.5661C58.7296 24.0114 59.0203 24.3428 59.363 24.5605C59.7136 24.7683 60.1161 24.8722 60.57 24.8722C61.0164 24.8722 61.4108 24.7683 61.7531 24.5605C62.104 24.3428 62.3947 24.0114 62.6256 23.5661C62.8567 23.1209 63.0322 22.547 63.1515 21.8445C63.2712 21.142 63.3307 20.296 63.3307 19.3065Z" fill="white"/>
<path d="M78.6528 6.57227V10.1788H72.3903V28.182H68.9006V6.57227H78.6528Z" fill="white"/>
<path d="M90.1624 24.5903V28.182H79.9083V24.5903H90.1624ZM80.9001 24.5903V33.4954H77.6134L77.4224 24.5903H80.9001ZM92.6963 24.5903L92.3855 33.4954H89.1825V24.5903H92.6963ZM88.3577 6.57227V10.1788H81.3305V6.57227H88.3577ZM90.8794 6.57227V28.182H87.4017V6.57227H90.8794ZM80.912 6.57227H84.402L83.9715 15.418C83.9079 16.8824 83.8005 18.1737 83.6489 19.2917C83.5054 20.3999 83.3262 21.3696 83.111 22.2007C82.904 23.0319 82.6731 23.7591 82.4181 24.3825C82.1631 24.9959 81.8922 25.5303 81.6052 25.9854C81.3186 26.4307 81.0238 26.8314 80.7209 27.1876C80.418 27.5438 80.1195 27.8753 79.8247 28.182H77.9242V24.5903H78.5936C78.7928 24.3528 78.9921 24.0312 79.1913 23.6256C79.3902 23.21 79.5735 22.6608 79.7411 21.9781C79.9083 21.2954 80.0556 20.4197 80.1831 19.3511C80.3106 18.2825 80.4102 16.9715 80.4819 15.418L80.912 6.57227Z" fill="white"/>
<path d="M100.525 10.4312L96.7839 28.182H93.0909L98.5287 6.57227H100.836L100.525 10.4312ZM103.477 28.182L99.7119 10.4312L99.3654 6.57227H101.708L107.194 28.182H103.477ZM103.608 20.1229V23.7295H95.7561V20.1229H103.608Z" fill="white"/>
<path d="M119.385 18.7574H115.823L115.811 15.611H118.847C119.325 15.611 119.716 15.512 120.018 15.3141C120.329 15.1063 120.556 14.8046 120.7 14.4088C120.851 14.0031 120.927 13.5133 120.927 12.9394C120.927 12.2765 120.859 11.7471 120.723 11.3513C120.588 10.9457 120.369 10.6488 120.066 10.4608C119.763 10.2728 119.369 10.1788 118.883 10.1788H117.018V28.182H113.517V6.57227H118.883C119.751 6.57227 120.528 6.691 121.213 6.92848C121.899 7.16595 122.48 7.52711 122.958 8.01195C123.436 8.49676 123.799 9.11023 124.046 9.85234C124.301 10.5944 124.428 11.4701 124.428 12.4793C124.428 13.3698 124.285 14.1911 123.998 14.9431C123.711 15.6951 123.261 16.3085 122.648 16.7835C122.042 17.2584 121.249 17.5256 120.269 17.5849L119.385 18.7574ZM119.265 28.182H114.831L116.23 24.5903H119.265C119.727 24.5903 120.102 24.4666 120.389 24.2192C120.675 23.9719 120.883 23.6404 121.01 23.2248C121.138 22.7993 121.201 22.3145 121.201 21.7703C121.201 21.1569 121.142 20.6226 121.022 20.1674C120.911 19.7123 120.723 19.3659 120.461 19.1285C120.197 18.8811 119.843 18.7574 119.397 18.7574H116.385L116.409 15.611H120.066L120.891 16.8577C121.823 16.8181 122.568 17.0407 123.126 17.5256C123.683 18.0005 124.082 18.6238 124.321 19.3956C124.568 20.1575 124.691 20.9689 124.691 21.8297C124.691 23.2149 124.48 24.3825 124.058 25.3324C123.643 26.2723 123.034 26.9848 122.229 27.4696C121.424 27.9445 120.436 28.182 119.265 28.182Z" fill="white"/>
<path d="M140.217 20.9839H143.695C143.647 22.6066 143.384 23.977 142.906 25.095C142.428 26.2032 141.747 27.0443 140.862 27.6182C139.986 28.192 138.926 28.479 137.683 28.479C136.719 28.479 135.863 28.2811 135.114 27.8853C134.365 27.4796 133.727 26.886 133.201 26.1043C132.675 25.3226 132.277 24.3579 132.006 23.2101C131.743 22.0525 131.612 20.7216 131.612 19.2177V15.5517C131.612 14.0478 131.751 12.717 132.03 11.5593C132.317 10.4016 132.723 9.43194 133.249 8.65027C133.783 7.8587 134.424 7.26505 135.173 6.86927C135.93 6.46359 136.783 6.26074 137.731 6.26074C138.998 6.26074 140.058 6.55757 140.91 7.15126C141.763 7.74491 142.42 8.6107 142.882 9.74858C143.352 10.8766 143.635 12.2568 143.731 13.8895H140.241C140.217 12.8604 140.121 12.054 139.954 11.4702C139.794 10.8766 139.539 10.461 139.189 10.2235C138.838 9.97616 138.353 9.85248 137.731 9.85248C137.269 9.85248 136.871 9.95635 136.536 10.1641C136.201 10.3621 135.926 10.6836 135.711 11.1289C135.496 11.5741 135.337 12.1579 135.233 12.8802C135.138 13.6025 135.09 14.4831 135.09 15.522V19.2177C135.09 20.2368 135.134 21.1075 135.221 21.8298C135.309 22.5423 135.448 23.126 135.639 23.5812C135.831 24.0363 136.09 24.3678 136.416 24.5756C136.751 24.7834 137.173 24.8873 137.683 24.8873C138.273 24.8873 138.747 24.7784 139.105 24.5607C139.472 24.343 139.743 23.9522 139.918 23.3882C140.093 22.8242 140.193 22.0228 140.217 20.9839Z" fill="white"/>
<path d="M155.372 24.5903V28.182H147.806V24.5903H155.372ZM148.894 6.57227V28.182H145.392V6.57227H148.894ZM154.356 15.329V18.8168H147.806V15.329H154.356ZM155.348 6.57227V10.1788H147.806V6.57227H155.348Z" fill="white"/>
<path d="M164.096 6.57227V28.182H160.619V6.57227H164.096ZM168.423 6.57227V10.1788H156.376V6.57227H168.423Z" fill="white"/>
<path d="M173.24 20.2416L178.678 6.57227H182V28.182H178.618V14.6759L173.228 28.182H169.845V6.57227H173.24V20.2416Z" fill="white"/>
<path d="M23.2546 7.54339C22.8951 7.36317 22.5234 7.2002 22.1403 7.05582C20.8358 6.56106 19.4358 6.29622 18.0021 6.29688C16.5663 6.29575 15.1642 6.56093 13.8579 7.05667C13.2242 7.29567 12.6215 7.58558 12.0534 7.92032L12.0547 7.92301C9.5074 9.42572 7.52467 11.8892 6.69874 14.9716C6.48959 15.7521 6.36453 16.5354 6.31799 17.3118L6.31714 17.3117C6.30367 17.541 6.29697 17.7713 6.29719 18.0026C6.29662 19.4358 6.56141 20.8353 7.05598 22.1395C8.27077 25.3626 10.802 27.7829 13.8567 28.9424C15.1637 29.4386 16.5665 29.7039 18.003 29.7027C18.0389 29.7027 18.0747 29.7024 18.1106 29.7021C19.0749 29.6923 20.0538 29.5623 21.0284 29.3011C23.9101 28.529 26.2509 26.7458 27.7714 24.4355L27.774 24.4371C28.2405 23.7286 28.6349 22.9605 28.944 22.1405C29.4389 20.836 29.7038 19.4361 29.7032 18.0025C29.7045 16.5659 29.4391 15.1631 28.9429 13.8561C28.799 13.477 28.6357 13.1059 28.4538 12.7445C25.9537 12.0151 23.9831 10.0439 23.2546 7.54339Z" fill="white"/>
<path d="M10.4232 20.0084C10.3787 19.8993 10.3364 19.789 10.2963 19.6775C10.2414 19.5253 10.1912 19.3719 10.1455 19.2177L10.1461 19.2176C9.99213 18.6953 9.88713 18.1503 9.83695 17.5876C9.67778 15.8035 10.0934 14.1096 10.9284 12.6934L14.3323 14.987C14.1579 15.7429 14.0982 16.5414 14.1713 17.3608C14.2087 17.7806 14.2796 18.1896 14.381 18.5854L10.4232 20.0084Z" fill="#212224"/>
<path d="M14.8061 13.5873L12.2018 11.0571C12.3213 10.9396 12.4451 10.8253 12.5731 10.7145C13.2971 10.0853 14.1373 9.58587 15.0624 9.25411C15.4578 9.1117 15.8608 9.00283 16.2676 8.92676L17.1197 10.7246C16.9647 10.8389 16.8146 10.9592 16.6695 11.0853C16.3485 11.3631 16.0568 11.6649 15.7951 11.9864L15.7965 11.9877C15.4017 12.4732 15.0681 13.0106 14.8061 13.5873Z" fill="#212224"/>
<path d="M24.2598 1.11825C22.3103 0.395098 20.2014 0 18.0002 0C8.05897 0 0 8.05887 0 18C0 27.9411 8.05897 36 18.0002 36C27.9414 36 36.0003 27.9411 36.0003 18C36.0003 15.7988 35.6053 13.69 34.8823 11.7404C34.1396 12.2428 33.3041 12.6183 32.4067 12.8355C32.9852 14.4488 33.3004 16.1876 33.3004 18C33.3004 26.45 26.4502 33.3 18.0002 33.3C9.55014 33.3 2.70003 26.45 2.70003 18C2.70003 9.55005 9.55014 2.7 18.0002 2.7C19.8126 2.7 21.5514 3.01513 23.1648 3.59358C23.382 2.69628 23.7574 1.86078 24.2598 1.11825Z" fill="white"/>
<path d="M30.6003 9.90039C33.0856 9.90039 35.1004 7.88567 35.1004 5.40039C35.1004 2.91511 33.0856 0.900391 30.6003 0.900391C28.115 0.900391 26.1003 2.91511 26.1003 5.40039C26.1003 7.88567 28.115 9.90039 30.6003 9.90039Z" fill="#4D89EE"/>
</g>
<defs>
<clipPath id="clip0_2980_16453">
<rect width="182" height="36" fill="white"/>
</clipPath>
</defs>
</svg>
