<svg width="64" height="72" viewBox="0 0 64 72" fill="none" xmlns="http://www.w3.org/2000/svg">
<rect x="10" y="24" width="48" height="48" rx="24" fill="#F5D7FF"/>
<path fill-rule="evenodd" clip-rule="evenodd" d="M53 25.4422C53.338 25.3883 53.6715 25.3209 54 25.2407V56.4C54 59.7603 54 61.4405 53.346 62.7239C52.7708 63.8529 51.8529 64.7708 50.7239 65.346C49.4405 66 47.7603 66 44.4 66H29.6C26.2397 66 24.5595 66 23.2761 65.346C22.1471 64.7708 21.2292 63.8529 20.654 62.7239C20 61.4405 20 59.7603 20 56.4V54.4783C20.3458 54.2468 20.6795 53.9986 21 53.735V54H53V25.4422ZM21 34.2651V22H20V33.5218C20.3458 33.7533 20.6795 34.0014 21 34.2651ZM28 5H41.2651C41.0014 5.32047 40.7533 5.65419 40.5218 6H28C26.5834 6 25.581 6.00078 24.7974 6.0648C24.0255 6.12787 23.5543 6.24729 23.184 6.43597C22.4314 6.81947 21.8195 7.43139 21.436 8.18404C21.2473 8.55435 21.1279 9.02552 21.0648 9.79744C21.0361 10.1485 21.0201 10.5435 21.0112 11H38.5579C38.5054 11.3293 38.4656 11.6628 38.4391 12H21.0012C21 12.3089 21 12.6411 21 13V14H20V11H20.011C20.0405 9.46078 20.1486 8.50797 20.545 7.73005C21.0243 6.78924 21.7892 6.02433 22.73 5.54497C23.7996 5 25.1997 5 28 5ZM53 55V56.4C53 58.0967 52.9992 59.309 52.9216 60.2594C52.8449 61.198 52.6982 61.7927 52.455 62.27C51.9757 63.2108 51.2108 63.9757 50.27 64.455C49.7927 64.6982 49.198 64.8449 48.2594 64.9216C47.309 64.9992 46.0967 65 44.4 65H29.6C27.9033 65 26.691 64.9992 25.7406 64.9216C24.802 64.8449 24.2073 64.6982 23.73 64.455C22.7892 63.9757 22.0243 63.2108 21.545 62.27C21.3018 61.7927 21.1551 61.198 21.0784 60.2594C21.0008 59.309 21 58.0967 21 56.4V55H53ZM37 63C38.6569 63 40 61.6569 40 60C40 58.3431 38.6569 57 37 57C35.3431 57 34 58.3431 34 60C34 61.6569 35.3431 63 37 63ZM37 62C38.1046 62 39 61.1046 39 60C39 58.8954 38.1046 58 37 58C35.8954 58 35 58.8954 35 60C35 61.1046 35.8954 62 37 62Z" fill="#18191B"/>
<circle cx="50.9999" cy="13" r="12.1" stroke="#18191B"/>
<circle cx="12.9999" cy="44" r="12.1" stroke="#18191B"/>
<path d="M57.7492 20.6979V23.6667C57.7492 23.8508 57.5999 24 57.4159 24C57.2318 24 57.0826 23.8508 57.0826 23.6667V20.6979C57.0826 19.165 55.8421 17.9245 54.3091 17.9245C53.5837 17.9245 52.9256 17.555 52.5485 16.936C52.4528 16.7788 52.5026 16.5737 52.6598 16.4779C52.817 16.3822 53.022 16.432 53.1178 16.5892C53.3729 17.0079 53.8182 17.2579 54.3091 17.2579C56.2104 17.2578 57.7492 18.7965 57.7492 20.6979ZM51.933 17.357C51.9722 17.5368 51.8582 17.7144 51.6783 17.7536C50.8012 17.9447 49.9091 17.7534 49.1988 17.2686C48.4957 18.0221 47.5667 17.9245 47.6911 17.9245C46.1581 17.9245 44.9176 19.1649 44.9176 20.6979V23.1667C44.9176 23.3508 44.7683 23.5 44.5843 23.5C44.4002 23.5 44.251 23.3508 44.251 23.1667V20.6979C44.251 18.7967 45.7895 17.2579 47.691 17.2579C48.4601 17.2579 49.0837 16.6382 49.0837 15.8688V15.7811C47.6289 15.0855 46.6078 13.6237 46.5456 11.9214C45.9469 11.7775 45.5008 11.2417 45.5008 10.6041V8.87631C45.4826 8.03059 45.6082 5.91241 47.1526 4.42368C49.0596 2.58534 52.1179 2.70212 54.3667 3.78468C54.5859 3.8903 54.6192 4.18642 54.4371 4.33978C55.5764 4.61766 56.5587 5.31798 57.1899 6.32027C57.2224 6.37189 57.2821 6.45292 57.2665 6.58219C57.2569 6.66264 57.2329 6.73071 57.1709 6.79362C56.7647 7.20557 56.541 7.75146 56.541 8.33075V10.6042C56.541 10.7883 56.3918 10.9375 56.2077 10.9375C56.0237 10.9375 55.8745 10.7883 55.8745 10.6042V8.33075C55.8745 7.66263 56.1027 7.02847 56.522 6.51903C55.883 5.60515 54.886 5.0174 53.7585 4.89666L53.1727 4.83392C52.8301 4.79726 52.7629 4.32536 53.0813 4.19434L53.3477 4.08465C49.8779 2.87501 46.1674 4.21904 46.1674 8.87268V10.6041C46.1674 10.8686 46.3197 11.0984 46.5423 11.2139V9.0532C46.5423 7.76679 47.5889 6.72017 48.8753 6.72017H53.1248C54.4112 6.72017 55.4578 7.7667 55.4578 9.05308V11.782C55.4578 14.6805 52.6253 16.8822 49.7431 16.0337C49.7244 16.2715 49.6652 16.5009 49.5687 16.7142C50.1294 17.0993 50.8374 17.2546 51.5364 17.1023C51.7162 17.0631 51.8938 17.1771 51.933 17.357ZM51 15.5478C53.0905 15.5478 54.7912 13.8472 54.7912 11.7567V9.05308C54.7912 8.13428 54.0437 7.38675 53.1248 7.38675H48.8753C47.9564 7.38675 47.2089 8.13432 47.2089 9.0532V11.7567C47.2089 13.8472 48.9096 15.5478 51 15.5478ZM54.3746 21.2919H53.3747C53.1907 21.2919 53.0414 21.4411 53.0414 21.6252C53.0414 21.8092 53.1907 21.9585 53.3747 21.9585H54.3746C54.5587 21.9585 54.7079 21.8092 54.7079 21.6252C54.7079 21.4411 54.5587 21.2919 54.3746 21.2919Z" fill="#18191B" stroke="#18191B" stroke-width="0.3"/>
<path d="M19.7519 51.6975V53.6666C19.7519 53.8507 19.6027 54 19.4186 54C19.2345 54 19.0852 53.8507 19.0852 53.6666V51.6975C19.0852 50.1643 17.8445 48.9235 16.3112 48.9235C15.5857 48.9235 14.9274 48.5539 14.5503 47.9348C14.4545 47.7775 14.5043 47.5724 14.6616 47.4767C14.8187 47.3808 15.0239 47.4307 15.1197 47.588C15.3748 48.0068 15.8202 48.2568 16.3112 48.2568C18.2128 48.2567 19.7519 49.7957 19.7519 51.6975ZM20.7301 45.5754C21.0659 45.0775 21.0367 44.4295 20.6576 43.9628L20.0198 43.1776C19.875 42.9995 19.8279 42.7633 19.8934 42.5457L20.2705 41.2946C20.4429 40.7225 20.2225 40.1117 19.722 39.7748L18.9726 39.2703C18.7221 39.1016 18.6068 38.7965 18.6858 38.511C18.9198 37.6652 18.2969 36.8211 17.4033 36.783L17.0718 36.7689C16.5057 36.7448 16.0343 36.3499 15.9253 35.8085L15.9019 35.6923C15.7167 34.7715 14.6731 34.3235 13.8654 34.7778C13.5851 34.9354 13.2301 34.8896 13.0022 34.6664L12.7237 34.3938C12.1876 33.8687 11.3152 33.8687 10.779 34.3938L10.1708 34.9894C10.0655 35.0924 9.93191 35.1598 9.78444 35.1842L8.52686 35.3921C7.46026 35.5685 6.7873 36.6133 7.07107 37.6323L7.31808 38.5191C7.39629 38.7999 7.28329 39.1 7.03677 39.2659L6.27327 39.7799C5.77745 40.1138 5.55906 40.7189 5.7299 41.2858L6.11142 42.5519C6.1758 42.7656 6.12947 42.9975 5.98738 43.1725L5.33954 43.9699C4.96386 44.4324 4.93498 45.0745 5.26767 45.5677L5.89158 46.4928C6.05838 46.7402 6.04434 47.0627 5.85666 47.2955L5.76428 47.41C5.26296 48.0319 5.31608 48.9232 5.88791 49.4831C5.95283 49.5466 6.037 49.5782 6.12113 49.5782C6.41744 49.5782 6.56824 49.2161 6.35444 49.0067C6.02913 48.6882 5.99863 48.1817 6.28331 47.8285L6.37565 47.714C6.74813 47.2521 6.7758 46.6115 6.44436 46.1201L5.82041 45.195C5.65298 44.9467 5.66769 44.6234 5.85699 44.3903L6.50486 43.5928C6.78642 43.2462 6.87801 42.7852 6.7498 42.3595L6.36823 41.0934C6.28227 40.8082 6.39373 40.5026 6.64558 40.333L7.40904 39.819C7.89424 39.4925 8.11575 38.8982 7.96033 38.3403L7.71331 37.4535C7.53139 36.8005 7.97508 36.159 8.63562 36.0498L9.89324 35.8419C10.1764 35.7952 10.4336 35.6651 10.6372 35.4658L11.2455 34.8701C11.5244 34.597 11.9784 34.597 12.2573 34.8701L12.5357 35.1428C12.9741 35.5719 13.6553 35.6609 14.1922 35.3589C14.6209 35.1176 15.1556 35.3631 15.2484 35.8238L15.2717 35.94C15.4413 36.783 16.1699 37.3978 17.0435 37.4351L17.3749 37.4492C17.8403 37.469 18.1628 37.9013 18.0432 38.3333C17.8877 38.8955 18.1116 39.4944 18.6003 39.8234L19.3497 40.3279C19.6062 40.5005 19.7197 40.8117 19.6321 41.1022L19.2551 42.3533C19.1257 42.7828 19.218 43.2481 19.5023 43.598L20.1402 44.3832C20.333 44.6205 20.3479 44.9498 20.1774 45.2026L19.5638 46.1125C19.2293 46.6084 19.2572 47.2549 19.6332 47.7212C19.7336 47.8456 19.8453 47.965 19.895 48.1926C19.9343 48.3725 20.1119 48.4864 20.2917 48.4472C20.4716 48.408 20.5856 48.2304 20.5463 48.0505C20.4614 47.6615 20.2662 47.4442 20.1521 47.3026C19.9609 47.0656 19.9466 46.7371 20.1165 46.4853L20.7301 45.5754ZM17.32 49.992C14.9067 50.6633 12.5099 50.1365 10.6479 48.6895C11.2519 48.373 11.6872 47.7622 11.7444 47.0312C14.5895 47.8712 17.4372 45.7345 17.46 42.7895C17.4602 42.7821 17.4601 41.0581 17.4601 41.0507C17.4601 39.2126 15.9647 37.7171 14.1266 37.7171H12.9828C11.8511 37.7171 10.8144 38.3639 10.4032 39.3265C10.152 39.9143 10.2598 40.3074 10.1736 40.7718C10.032 41.535 9.41067 42.259 8.32697 42.9236C8.17005 43.0199 8.12084 43.2251 8.21709 43.3821C8.31335 43.539 8.51853 43.5882 8.67554 43.4919C9.92699 42.7245 10.6516 41.8503 10.8291 40.8935C10.9284 40.3593 10.823 40.0408 11.0163 39.5885C11.3241 38.868 12.1144 38.3839 12.9828 38.3839H14.1266C15.5971 38.3839 16.7934 39.5803 16.7934 41.0508V42.7547C16.7934 44.8456 15.0924 46.5466 13.0015 46.5466C11.5193 46.5466 10.1641 45.6747 9.54913 44.3255C9.47279 44.1579 9.27507 44.084 9.10756 44.1604C8.94001 44.2367 8.86609 44.4344 8.94247 44.602C9.38525 45.5735 10.1547 46.3338 11.0847 46.7778V46.8677C11.0847 47.6362 10.4619 48.257 9.69181 48.257C7.78615 48.257 6.25106 49.7996 6.25106 51.6977V53.6668C6.25106 53.8509 6.40032 54.0002 6.58441 54.0002C6.76851 54.0002 6.91777 53.8509 6.91777 53.6668V51.6977C6.91777 50.1645 8.15846 48.9237 9.69181 48.9237C9.75319 48.9237 9.81381 48.9206 9.87378 48.9154C11.9167 50.697 14.6938 51.4148 17.4987 50.6344C17.6761 50.5851 17.7799 50.4013 17.7305 50.2239C17.6812 50.0464 17.4975 49.9426 17.32 49.992Z" fill="#18191B" stroke="#18191B" stroke-width="0.3"/>
<path d="M36 39C36 38.4477 36.4477 38 37 38H40C40.5523 38 41 38.4477 41 39C41 39.5523 40.5523 40 40 40H37C36.4477 40 36 39.5523 36 39Z" fill="#18191B"/>
<path d="M29 39C29 38.4477 29.4477 38 30 38H33C33.5523 38 34 38.4477 34 39C34 39.5523 33.5523 40 33 40H30C29.4477 40 29 39.5523 29 39Z" fill="#18191B"/>
<path d="M37 43C36.4477 43 36 43.4477 36 44C36 44.5523 36.4477 45 37 45H40C40.5523 45 41 44.5523 41 44C41 43.4477 40.5523 43 40 43H37Z" fill="#18191B"/>
<path d="M30 43C29.4477 43 29 43.4477 29 44C29 44.5523 29.4477 45 30 45H33C33.5523 45 34 44.5523 34 44C34 43.4477 33.5523 43 33 43H30Z" fill="#18191B"/>
<path d="M29 49C29 48.4477 29.4477 48 30 48H33C33.5523 48 34 48.4477 34 49C34 49.5523 33.5523 50 33 50H30C29.4477 50 29 49.5523 29 49Z" fill="#18191B"/>
<path d="M15.973 20C15.5986 20 15.2604 19.9134 14.9581 19.7403C14.6594 19.5672 14.4241 19.3296 14.2524 19.0276C14.0841 18.7219 14 18.3794 14 18C14 17.6206 14.0841 17.2799 14.2524 16.9779C14.4241 16.6722 14.6594 16.4328 14.9581 16.2597C15.2604 16.0866 15.5986 16 15.973 16C16.3473 16 16.6838 16.0866 16.9826 16.2597C17.2814 16.4328 17.5166 16.6722 17.6883 16.9779C17.8601 17.2799 17.9459 17.6206 17.9459 18C17.9459 18.3794 17.8601 18.7219 17.6883 19.0276C17.5166 19.3296 17.2814 19.5672 16.9826 19.7403C16.6838 19.9134 16.3473 20 15.973 20ZM15.973 19.2376C16.1859 19.2376 16.3782 19.186 16.5499 19.0829C16.7216 18.9761 16.8555 18.8287 16.9517 18.6409C17.0513 18.453 17.1011 18.2394 17.1011 18C17.1011 17.7606 17.0513 17.547 16.9517 17.3591C16.8555 17.1713 16.7216 17.0258 16.5499 16.9227C16.3782 16.8158 16.1859 16.7624 15.973 16.7624C15.76 16.7624 15.5677 16.8158 15.396 16.9227C15.2243 17.0258 15.0886 17.1713 14.9891 17.3591C14.8929 17.547 14.8448 17.7606 14.8448 18C14.8448 18.2394 14.8929 18.453 14.9891 18.6409C15.0886 18.8287 15.2243 18.9761 15.396 19.0829C15.5677 19.186 15.76 19.2376 15.973 19.2376Z" fill="black"/>
<path d="M21.9833 16V20H21.2981L19.5003 17.5856V20H18.6761V16H19.3664L21.159 18.4144V16H21.9833Z" fill="black"/>
<path d="M22.9394 16H23.7739V19.2707H25.5821V20H22.9394V16Z" fill="black"/>
<path d="M26.1514 16H26.9859V20H26.1514V16Z" fill="black"/>
<path d="M31.2518 16V20H30.5667L28.7689 17.5856V20H27.9447V16H28.6349L30.4276 18.4144V16H31.2518Z" fill="black"/>
<path d="M35 19.2818V20H32.208V16H34.933V16.7182H33.0373V17.6243H34.7115V18.3204H33.0373V19.2818H35Z" fill="black"/>
</svg>
