<svg width="77" height="79" viewBox="0 0 77 79" fill="none" xmlns="http://www.w3.org/2000/svg">
<rect x="15" y="31" width="48" height="48" rx="24" fill="#FFE3B4"/>
<circle cx="29.9999" cy="18" r="12.1" stroke="#18191B"/>
<path fill-rule="evenodd" clip-rule="evenodd" d="M30 14.4C28.0118 14.4 26.4 16.0118 26.4 18C26.4 19.9882 28.0118 21.6 30 21.6C31.9883 21.6 33.6 19.9882 33.6 18C33.6 16.0118 31.9883 14.4 30 14.4ZM27.3 18C27.3 19.4912 28.5089 20.7 30 20.7C31.4912 20.7 32.7 19.4912 32.7 18C32.7 16.5088 31.4912 15.3 30 15.3C28.5089 15.3 27.3 16.5088 27.3 18Z" fill="#18191B"/>
<path d="M33.6 13.5C33.103 13.5 32.7 13.9029 32.7 14.4C32.7 14.897 33.103 15.3 33.6 15.3C34.0971 15.3 34.5 14.897 34.5 14.4C34.5 13.9029 34.0971 13.5 33.6 13.5Z" fill="#18191B"/>
<path fill-rule="evenodd" clip-rule="evenodd" d="M27.3 10.8C24.8148 10.8 22.8 12.8147 22.8 15.3V20.7C22.8 23.1853 24.8148 25.2 27.3 25.2H32.7C35.1853 25.2 37.2 23.1853 37.2 20.7V15.3C37.2 12.8147 35.1853 10.8 32.7 10.8H27.3ZM32.7 11.7H27.3C25.3118 11.7 23.7 13.3118 23.7 15.3V20.7C23.7 22.6882 25.3118 24.3 27.3 24.3H32.7C34.6883 24.3 36.3 22.6882 36.3 20.7V15.3C36.3 13.3118 34.6883 11.7 32.7 11.7Z" fill="#18191B"/>
<path fill-rule="evenodd" clip-rule="evenodd" d="M30 14.4C28.0118 14.4 26.4 16.0118 26.4 18C26.4 19.9882 28.0118 21.6 30 21.6C31.9883 21.6 33.6 19.9882 33.6 18C33.6 16.0118 31.9883 14.4 30 14.4ZM27.3 18C27.3 19.4912 28.5089 20.7 30 20.7C31.4912 20.7 32.7 19.4912 32.7 18C32.7 16.5088 31.4912 15.3 30 15.3C28.5089 15.3 27.3 16.5088 27.3 18Z" stroke="#18191B" stroke-width="0.3"/>
<path d="M33.6 13.5C33.103 13.5 32.7 13.9029 32.7 14.4C32.7 14.897 33.103 15.3 33.6 15.3C34.0971 15.3 34.5 14.897 34.5 14.4C34.5 13.9029 34.0971 13.5 33.6 13.5Z" stroke="#18191B" stroke-width="0.3"/>
<path fill-rule="evenodd" clip-rule="evenodd" d="M27.3 10.8C24.8148 10.8 22.8 12.8147 22.8 15.3V20.7C22.8 23.1853 24.8148 25.2 27.3 25.2H32.7C35.1853 25.2 37.2 23.1853 37.2 20.7V15.3C37.2 12.8147 35.1853 10.8 32.7 10.8H27.3ZM32.7 11.7H27.3C25.3118 11.7 23.7 13.3118 23.7 15.3V20.7C23.7 22.6882 25.3118 24.3 27.3 24.3H32.7C34.6883 24.3 36.3 22.6882 36.3 20.7V15.3C36.3 13.3118 34.6883 11.7 32.7 11.7Z" stroke="#18191B" stroke-width="0.3"/>
<circle cx="17.9999" cy="52" r="12.1" stroke="#18191B"/>
<path fill-rule="evenodd" clip-rule="evenodd" d="M17.3856 56.4661H18.3001C18.3001 56.4661 18.5764 56.438 18.7174 56.2969C18.8472 56.1673 18.8431 55.9241 18.8431 55.9241C18.8431 55.9241 18.8252 54.7853 19.3948 54.6176C19.9562 54.4524 20.6771 55.7182 21.4413 56.2049C22.0191 56.5733 22.4582 56.4925 22.4582 56.4925L24.5015 56.4661C24.5015 56.4661 25.5703 56.405 25.0635 55.6251C25.022 55.5613 24.7684 55.0482 23.5443 53.9938C22.2632 52.8903 22.4348 53.0688 23.978 51.16C24.9179 49.9975 25.2937 49.2878 25.1763 48.9838C25.0644 48.6943 24.3731 48.7708 24.3731 48.7708L22.0725 48.7841C22.0725 48.7841 21.902 48.7625 21.7755 48.8327C21.6519 48.9015 21.5724 49.0619 21.5724 49.0619C21.5724 49.0619 21.2082 49.9614 20.7226 50.7265C19.6982 52.3408 19.2886 52.426 19.1212 52.3258C18.7317 52.0921 18.829 51.3872 18.829 50.8865C18.829 49.3221 19.0846 48.6698 18.3311 48.5009C18.081 48.4448 17.897 48.4078 17.2574 48.4019C16.4366 48.394 15.7418 48.4042 15.3484 48.5831C15.0867 48.702 14.8848 48.967 15.0077 48.9822C15.1598 49.0011 15.5042 49.0684 15.6867 49.2991C15.9225 49.5967 15.9142 50.2652 15.9142 50.2652C15.9142 50.2652 16.0496 52.1068 15.5978 52.3356C15.2877 52.4925 14.8624 52.1721 13.9491 50.7076C13.4811 49.9574 13.1278 49.1282 13.1278 49.1282C13.1278 49.1282 13.0597 48.9732 12.9381 48.8903C12.7907 48.7899 12.5846 48.7579 12.5846 48.7579L10.3985 48.7712C10.3985 48.7712 10.0703 48.7797 9.94985 48.9121C9.84267 49.0299 9.94133 49.2735 9.94133 49.2735C9.94133 49.2735 11.6528 52.9894 13.5908 54.862C15.3677 56.5789 17.3856 56.4661 17.3856 56.4661Z" fill="#18191B"/>
<path d="M48.6432 40.5685L48.7025 40.361L48.5922 40.1755C47.5173 38.3681 46.8999 36.2569 46.8999 34C46.8999 27.3174 52.3173 21.9 58.9999 21.9C65.6825 21.9 71.0999 27.3174 71.0999 34C71.0999 40.6827 65.6825 46.1 58.9999 46.1C56.743 46.1 54.6318 45.4826 52.8244 44.4077L52.6389 44.2974L52.4315 44.3567L47.1279 45.872L48.6432 40.5685Z" stroke="#18191B"/>
<path d="M63.44 35.0192C63.0172 34.6018 62.4893 34.6018 62.0691 35.0192C61.7486 35.337 61.4281 35.6548 61.113 35.978C61.0268 36.0669 60.9541 36.0857 60.8491 36.0265C60.7669 35.9816 60.6826 35.9402 60.5983 35.8988C60.47 35.8357 60.3419 35.7727 60.2215 35.6979C59.2923 35.1135 58.514 34.3621 57.8245 33.5164C57.4825 33.0962 57.1781 32.6465 56.9653 32.1401C56.9222 32.0378 56.9303 31.9705 57.0138 31.887C57.2884 31.6216 57.557 31.3504 57.8265 31.0783L57.9619 30.9417C58.4009 30.5 58.4009 29.9829 57.9591 29.5385C57.8339 29.4119 57.7087 29.2867 57.5834 29.1614C57.4582 29.0362 57.333 28.911 57.2077 28.7844C57.1216 28.6982 57.0357 28.6118 56.9499 28.5253C56.7781 28.3523 56.6063 28.1793 56.432 28.0087C56.0092 27.5967 55.4813 27.5967 55.0612 28.0114C55.0162 28.0556 54.9715 28.1 54.927 28.1444C54.8435 28.2278 54.7607 28.3114 54.6779 28.3951L54.6765 28.3965C54.4864 28.5886 54.2964 28.7804 54.0997 28.9675C53.7953 29.2557 53.6418 29.6085 53.6095 30.0206C53.5583 30.6912 53.7226 31.3241 53.9542 31.9408C54.4283 33.2174 55.1501 34.3513 56.0254 35.3909C57.2077 36.7967 58.619 37.909 60.27 38.7116C61.0134 39.0725 61.7836 39.3499 62.6213 39.3957C63.1976 39.428 63.6986 39.2826 64.0999 38.8328C64.2805 38.631 64.4762 38.4408 64.6717 38.2508C64.7736 38.1517 64.8756 38.0527 64.9752 37.9521C65.4061 37.5158 65.4088 36.9879 64.9806 36.557C64.4713 36.0451 63.9594 35.5359 63.4475 35.0266L63.44 35.0192Z" fill="#18191B"/>
<path fill-rule="evenodd" clip-rule="evenodd" d="M42.5609 19C42.5868 18.6701 42.6 18.3366 42.6 18V18H57.9888C57.9799 17.5435 57.9639 17.1485 57.9352 16.7974C57.8721 16.0255 57.7527 15.5543 57.564 15.184C57.1805 14.4314 56.5686 13.8195 55.816 13.436C55.4457 13.2473 54.9745 13.1279 54.2026 13.0648C53.419 13.0008 52.4166 13 51 13H41.5689C41.4212 12.6586 41.2587 12.325 41.0824 12H51C53.8003 12 55.2004 12 56.27 12.545C57.2108 13.0243 57.9757 13.7892 58.455 14.73C58.8514 15.508 58.9595 16.4608 58.989 18H59L59 21.4C58.6634 21.4 58.3299 21.4132 58 21.4391V20C58 19.6411 58 19.3089 57.9988 19H42.5609ZM58 46.5609V61H26.8182C26.2602 61.5468 25.6516 62.0421 25 62.4783V63.4C25 66.7603 25 68.4405 25.654 69.7239C26.2292 70.8529 27.1471 71.7708 28.2761 72.346C29.5595 73 31.2397 73 34.6 73H49.4C52.7603 73 54.4405 73 55.7239 72.346C56.8529 71.7708 57.7708 70.8529 58.346 69.7239C59 68.4405 59 66.7603 59 63.4L59 46.6C58.6634 46.6 58.3299 46.5868 58 46.5609ZM26 42.2651C25.6795 42.0014 25.3458 41.7533 25 41.5218V29.569C25.3264 29.7103 25.66 29.8381 26 29.9519V42.2651ZM58 62V63.4C58 65.0967 57.9992 66.309 57.9216 67.2594C57.8449 68.198 57.6982 68.7927 57.455 69.27C56.9757 70.2108 56.2108 70.9757 55.27 71.455C54.7927 71.6982 54.198 71.8449 53.2594 71.9216C52.309 71.9992 51.0967 72 49.4 72H34.6C32.9033 72 31.691 71.9992 30.7406 71.9216C29.802 71.8449 29.2073 71.6982 28.73 71.455C27.7892 70.9757 27.0243 70.2108 26.545 69.27C26.3018 68.7927 26.1551 68.198 26.0784 67.2594C26.0008 66.309 26 65.0967 26 63.4V62H58ZM42 70C43.6569 70 45 68.6569 45 67C45 65.3431 43.6569 64 42 64C40.3431 64 39 65.3431 39 67C39 68.6569 40.3431 70 42 70ZM42 69C43.1046 69 44 68.1046 44 67C44 65.8954 43.1046 65 42 65C40.8954 65 40 65.8954 40 67C40 68.1046 40.8954 69 42 69Z" fill="#18191B"/>
</svg>
