<svg width="71" height="79" viewBox="0 0 71 79" fill="none" xmlns="http://www.w3.org/2000/svg">
<rect x="14" y="31" width="48" height="48" rx="24" fill="#B4FFE3"/>
<circle cx="17.9999" cy="18" r="12.1" stroke="#18191B"/>
<path fill-rule="evenodd" clip-rule="evenodd" d="M18 14.4C16.0118 14.4 14.4 16.0118 14.4 18C14.4 19.9882 16.0118 21.6 18 21.6C19.9883 21.6 21.6 19.9882 21.6 18C21.6 16.0118 19.9883 14.4 18 14.4ZM15.3 18C15.3 19.4912 16.5089 20.7 18 20.7C19.4912 20.7 20.7 19.4912 20.7 18C20.7 16.5088 19.4912 15.3 18 15.3C16.5089 15.3 15.3 16.5088 15.3 18Z" fill="#18191B"/>
<path d="M21.6 13.5C21.103 13.5 20.7 13.9029 20.7 14.4C20.7 14.897 21.103 15.3 21.6 15.3C22.0971 15.3 22.5 14.897 22.5 14.4C22.5 13.9029 22.0971 13.5 21.6 13.5Z" fill="#18191B"/>
<path fill-rule="evenodd" clip-rule="evenodd" d="M15.3 10.8C12.8148 10.8 10.8 12.8147 10.8 15.3V20.7C10.8 23.1853 12.8148 25.2 15.3 25.2H20.7C23.1853 25.2 25.2 23.1853 25.2 20.7V15.3C25.2 12.8147 23.1853 10.8 20.7 10.8H15.3ZM20.7 11.7H15.3C13.3118 11.7 11.7 13.3118 11.7 15.3V20.7C11.7 22.6882 13.3118 24.3 15.3 24.3H20.7C22.6883 24.3 24.3 22.6882 24.3 20.7V15.3C24.3 13.3118 22.6883 11.7 20.7 11.7Z" fill="#18191B"/>
<path fill-rule="evenodd" clip-rule="evenodd" d="M18 14.4C16.0118 14.4 14.4 16.0118 14.4 18C14.4 19.9882 16.0118 21.6 18 21.6C19.9883 21.6 21.6 19.9882 21.6 18C21.6 16.0118 19.9883 14.4 18 14.4ZM15.3 18C15.3 19.4912 16.5089 20.7 18 20.7C19.4912 20.7 20.7 19.4912 20.7 18C20.7 16.5088 19.4912 15.3 18 15.3C16.5089 15.3 15.3 16.5088 15.3 18Z" stroke="#18191B" stroke-width="0.3"/>
<path d="M21.6 13.5C21.103 13.5 20.7 13.9029 20.7 14.4C20.7 14.897 21.103 15.3 21.6 15.3C22.0971 15.3 22.5 14.897 22.5 14.4C22.5 13.9029 22.0971 13.5 21.6 13.5Z" stroke="#18191B" stroke-width="0.3"/>
<path fill-rule="evenodd" clip-rule="evenodd" d="M15.3 10.8C12.8148 10.8 10.8 12.8147 10.8 15.3V20.7C10.8 23.1853 12.8148 25.2 15.3 25.2H20.7C23.1853 25.2 25.2 23.1853 25.2 20.7V15.3C25.2 12.8147 23.1853 10.8 20.7 10.8H15.3ZM20.7 11.7H15.3C13.3118 11.7 11.7 13.3118 11.7 15.3V20.7C11.7 22.6882 13.3118 24.3 15.3 24.3H20.7C22.6883 24.3 24.3 22.6882 24.3 20.7V15.3C24.3 13.3118 22.6883 11.7 20.7 11.7Z" stroke="#18191B" stroke-width="0.3"/>
<path fill-rule="evenodd" clip-rule="evenodd" d="M27.7991 25C27.5468 25.3471 27.2773 25.6809 26.9916 26H70V63.4C70 65.0967 69.9992 66.309 69.9216 67.2594C69.8449 68.198 69.6982 68.7927 69.455 69.27C68.9757 70.2108 68.2108 70.9757 67.27 71.455C66.7927 71.6982 66.198 71.8449 65.2594 71.9216C64.309 71.9992 63.0967 72 61.4 72H30.6C28.9033 72 27.691 71.9992 26.7406 71.9216C25.802 71.8449 25.2073 71.6982 24.73 71.455C23.7892 70.9757 23.0243 70.2108 22.545 69.27C22.3018 68.7927 22.1551 68.198 22.0784 67.2594C22.0008 66.309 22 65.0967 22 63.4V29.4104C21.6729 29.5323 21.3393 29.6411 21 29.7359V63.4C21 66.7603 21 68.4405 21.654 69.7239C22.2292 70.8529 23.1471 71.7708 24.2761 72.346C25.5595 73 27.2397 73 30.6 73H61.4C64.7603 73 66.4405 73 67.7239 72.346C68.8529 71.7708 69.7708 70.8529 70.346 69.7239C71 68.4405 71 66.7603 71 63.4V23.6C71 20.2397 71 18.5595 70.346 17.2761C69.7708 16.1471 68.8529 15.2292 67.7239 14.654C66.4405 14 64.7603 14 61.4 14H30.6C30.2777 14 29.9709 14 29.6784 14.0006C29.7759 14.3284 29.8605 14.6618 29.9315 15.0002C30.1457 15 30.3683 15 30.6 15H61.4C63.0967 15 64.309 15.0008 65.2594 15.0784C66.198 15.1551 66.7927 15.3018 67.27 15.545C68.2108 16.0243 68.9757 16.7892 69.455 17.73C69.6982 18.2073 69.8449 18.802 69.9216 19.7406C69.9992 20.691 70 21.9033 70 23.6V25H27.7991ZM59 21C59.5523 21 60 20.5523 60 20C60 19.4477 59.5523 19 59 19C58.4477 19 58 19.4477 58 20C58 20.5523 58.4477 21 59 21ZM62 21C62.5523 21 63 20.5523 63 20C63 19.4477 62.5523 19 62 19C61.4477 19 61 19.4477 61 20C61 20.5523 61.4477 21 62 21ZM66 20C66 20.5523 65.5523 21 65 21C64.4477 21 64 20.5523 64 20C64 19.4477 64.4477 19 65 19C65.5523 19 66 19.4477 66 20ZM26 40C26 39.4477 26.4477 39 27 39H41C41.5523 39 42 39.4477 42 40C42 40.5523 41.5523 41 41 41H27C26.4477 41 26 40.5523 26 40ZM62 39C61.4477 39 61 39.4477 61 40C61 40.5523 61.4477 41 62 41H65C65.5523 41 66 40.5523 66 40C66 39.4477 65.5523 39 65 39H62ZM54 40C54 39.4477 54.4477 39 55 39H58C58.5523 39 59 39.4477 59 40C59 40.5523 58.5523 41 58 41H55C54.4477 41 54 40.5523 54 40ZM27.625 32C26.7275 32 26 32.6716 26 33.5C26 34.3284 26.7275 35 27.625 35H50.375C51.2725 35 52 34.3284 52 33.5C52 32.6716 51.2725 32 50.375 32H27.625ZM26 46C26 45.4477 26.4477 45 27 45H41C41.5523 45 42 45.4477 42 46C42 46.5523 41.5523 47 41 47H27C26.4477 47 26 46.5523 26 46ZM62 45C61.4477 45 61 45.4477 61 46C61 46.5523 61.4477 47 62 47H65C65.5523 47 66 46.5523 66 46C66 45.4477 65.5523 45 65 45H62ZM54 46C54 45.4477 54.4477 45 55 45H58C58.5523 45 59 45.4477 59 46C59 46.5523 58.5523 47 58 47H55C54.4477 47 54 46.5523 54 46ZM26 52C26 51.4477 26.4477 51 27 51H41C41.5523 51 42 51.4477 42 52C42 52.5523 41.5523 53 41 53H27C26.4477 53 26 52.5523 26 52ZM62 51C61.4477 51 61 51.4477 61 52C61 52.5523 61.4477 53 62 53H65C65.5523 53 66 52.5523 66 52C66 51.4477 65.5523 51 65 51H62ZM54 52C54 51.4477 54.4477 51 55 51H58C58.5523 51 59 51.4477 59 52C59 52.5523 58.5523 53 58 53H55C54.4477 53 54 52.5523 54 52ZM26 58C26 57.4477 26.4477 57 27 57H41C41.5523 57 42 57.4477 42 58C42 58.5523 41.5523 59 41 59H27C26.4477 59 26 58.5523 26 58ZM62 57C61.4477 57 61 57.4477 61 58C61 58.5523 61.4477 59 62 59H65C65.5523 59 66 58.5523 66 58C66 57.4477 65.5523 57 65 57H62ZM54 58C54 57.4477 54.4477 57 55 57H58C58.5523 57 59 57.4477 59 58C59 58.5523 58.5523 59 58 59H55C54.4477 59 54 58.5523 54 58ZM26 64C26 63.4477 26.4477 63 27 63H41C41.5523 63 42 63.4477 42 64C42 64.5523 41.5523 65 41 65H27C26.4477 65 26 64.5523 26 64ZM62 63C61.4477 63 61 63.4477 61 64C61 64.5523 61.4477 65 62 65H65C65.5523 65 66 64.5523 66 64C66 63.4477 65.5523 63 65 63H62ZM54 64C54 63.4477 54.4477 63 55 63H58C58.5523 63 59 63.4477 59 64C59 64.5523 58.5523 65 58 65H55C54.4477 65 54 64.5523 54 64Z" fill="#18191B"/>
</svg>
